{
.appVersion = "3343";
.formatVersion = 3;
axes = (
{
name = Weight;
tag = wght;
}
);
customParameters = (
{
name = vendorID;
value = DH;
},
{
name = panose;
value = (
2,
2,
6,
0,
6,
5,
0,
2,
2,
0
);
},
{
name = unicodeRanges;
value = (
0,
1,
2,
3,
4,
5,
6,
7,
9,
29,
30,
31,
32,
33,
34,
35,
36,
37,
38,
39,
43,
44,
45,
46,
60,
62,
64,
67,
69
);
},
{
name = glyphOrder;
value = (
.notdef,
CR,
space,
uni0000,
exclam,
quotedbl,
numbersign,
dollar,
percent,
ampersand,
quotesingle,
parenleft,
parenright,
asterisk,
plus,
comma,
hyphen,
period,
slash,
zero,
one,
two,
three,
four,
five,
six,
seven,
eight,
nine,
colon,
semicolon,
less,
equal,
greater,
question,
at,
A,
B,
C,
D,
E,
F,
G,
H,
I,
J,
K,
L,
M,
N,
O,
P,
Q,
R,
S,
T,
U,
V,
W,
X,
Y,
Z,
bracketleft,
backslash,
bracketright,
asciicircum,
underscore,
grave,
a,
b,
c,
d,
e,
f,
g,
h,
i,
j,
k,
l,
m,
n,
o,
p,
q,
r,
s,
t,
u,
v,
w,
x,
y,
z,
braceleft,
bar,
braceright,
asciitilde,
guillemotleft,
guillemotright,
uni1780,
uni1781,
uni1782,
uni1783,
uni1784,
uni1785,
uni1786,
uni1787,
uni1788,
uni1789,
uni178A,
uni178B,
uni178C,
uni178D,
uni178E,
uni178F,
uni1790,
uni1791,
uni1792,
uni1793,
uni1794,
uni1795,
uni1796,
uni1797,
uni1798,
uni1799,
uni179A,
uni179B,
uni179C,
uni179D,
uni179E,
uni179F,
uni17A0,
uni17A1,
uni17A2,
uni17A3,
uni17A4,
uni17A5,
uni17A6,
uni17A7,
uni17A8,
uni17A9,
uni17AA,
uni17AB,
uni17AC,
uni17AD,
uni17AE,
uni17AF,
uni17B0,
uni17B1,
uni17B2,
uni17B3,
uni17B4,
uni17B5,
uni17B6,
uni17B7,
uni17B8,
uni17B9,
uni17BA,
uni17BB,
uni17BC,
uni17BD,
uni17BE,
uni17BF,
uni17C0,
uni17C1,
uni17C2,
uni17C3,
uni17C4,
uni17C5,
uni17C6,
uni17C7,
uni17C8,
uni17C9,
uni17CA,
uni17CB,
uni17CC,
uni17CD,
uni17CE,
uni17CF,
uni17D0,
uni17D1,
uni17D2,
uni17D3,
uni17D4,
uni17D5,
uni17D6,
uni17D7,
uni17D8,
uni17D9,
uni17DA,
uni17DB,
uni17DC,
uni17DD,
uni17E0,
uni17E1,
uni17E2,
uni17E3,
uni17E4,
uni17E5,
uni17E6,
uni17E7,
uni17E8,
uni17E9,
uni17D2_1780,
uni17D2_1781,
uni17D2_1782,
uni17D21783,
uni17D2_1784,
uni17D2_1785,
uni17D2_1786,

glyphs = (
{
glyphname = .notdef;
lastChange = "2025-05-02 13:15:02 +0000";
layers = (
{
layerId = m01;
shapes = (
{
closed = 1;
nodes = (
(922,0,l),
(922,1462,l),
(102,1462,l),
(102,0,l),
(102,0,l)
);
},
{
closed = 1;
nodes = (
(201,1364,l),
(823,1364,l),
(823,98,l),
(201,98,l),
(201,98,l)
);
}
);
userData = {
assembly = "NPUSHB[ ]	/* 39 values pushed */
0 0 0 3 2 0 3 103 0 2 1 1 2 87 0 2 2 1 95 4 1 1 2 1 79 0 0 7 6 5 4 0 3 0 3 17 5 6 23
CALL[ ]	/* CallFunction */";
};
width = 1024;
},
{
layerId = "A52C9687-8F69-441E-A346-B6B4B01C4528";
shapes = (
{
closed = 1;
nodes = (
(922,0,l),
(922,1462,l),
(102,1462,l),
(102,0,l),
(102,0,l)
);
},
{
closed = 1;
nodes = (
(201,1364,l),
(823,1364,l),
(823,98,l),
(201,98,l),
(201,98,l)
);
}
);
userData = {
assembly = "NPUSHB[ ]	/* 39 values pushed */
0 0 0 3 2 0 3 103 0 2 1 1 2 87 0 2 2 1 95 4 1 1 2 1 79 0 0 7 6 5 4 0 3 0 3 17 5 6 23
CALL[ ]	/* CallFunction */";
};
width = 1024;
},
{
layerId = "74807A0F-D47B-485E-A88B-DED3F6679B72";
shapes = (
{
closed = 1;
nodes = (
(922,0,l),
(922,1462,l),
(102,1462,l),
(102,0,l),
(102,0,l)
);
},
{
closed = 1;
nodes = (
(201,1364,l),
(823,1364,l),
(823,98,l),
(201,98,l),
(201,98,l)
);
}
);
userData = {
assembly = "NPUSHB[ ]	/* 39 values pushed */
0 0 0 3 2 0 3 103 0 2 1 1 2 87 0 2 2 1 95 4 1 1 2 1 79 0 0 7 6 5 4 0 3 0 3 17 5 6 23
CALL[ ]	/* CallFunction */";
};
width = 1024;
}
);
note = .notdef;
},
{
glyphname = exclam;
lastChange = "2025-05-02 13:15:02 +0000";
layers = (
{
layerId = m01;
shapes = (
{
closed = 1;
nodes = (
(442,516,l),
(493,1462,l),
(61,1462,l),
(112,516,l),
(112,516,l)
);
},
{
closed = 1;
nodes = (
(388,-25,o),
(483,32.667,o),
(483,166,cs),
(483,307.333,o),
(388,358,o),
(276,358,cs),
(161.333,358,o),
(65,307.333,o),
(65,166,cs),
(65,32.667,o),
(161.333,-25,o),
(276,-25,cs)
);
}
);
width = 550;
},
{
layerId = "A52C9687-8F69-441E-A346-B6B4B01C4528";
shapes = (
{
closed = 1;
nodes = (
(333,412,l),
(385,1462,l),
(165,1462,l),
(217,412,l),
(217,412,l)
);
},
{
closed = 1;
nodes = (
(342,-29,o),
(401,12.333,o),
(401,111,cs),
(401,211,o),
(342,248,o),
(274,248,cs),
(203.333,248,o),
(147,211,o),
(147,111,cs),
(147,12.333,o),
(203.333,-29,o),
(274,-29,cs)
);
}
);
userData = {
assembly = "NPUSHB[ ]	/* 28 values pushed */
0 3 3 2 95 0 2 2 31 77 0 0 0 1 97 0 1 1 38 1 78 17 18 36 34 4 8 26
CALL[ ]	/* CallFunction */";
};
width = 550;
},
{
layerId = "74807A0F-D47B-485E-A88B-DED3F6679B72";
shapes = (
{
closed = 1;
nodes = (
(296,356,l),
(300,1462,l),
(241,1462,l),
(245,356,l),
(245,356,l)
);
},
{
closed = 1;
nodes = (
(314.333,-16,o),
(320,11,o),
(320,47,cs),
(320,80.333,o),
(314.333,111,o),
(265,111,cs),
(223.667,111,o),
(214,80.333,o),
(214,47,cs),
(214,11,o),
(223.667,-16,o),
(265,-16,cs)
);
}
);
width = 550;
}
);
note = exclam;
unicode = 33;
},
{
glyphname = quotedbl;
lastChange = "2025-05-02 13:15:02 +0000";
layers = (
{
layerId = m01;
shapes = (
{
closed = 1;
nodes = (
(763,934,l),
(800,1462,l),
(474,1462,l),
(512,934,l),
(512,934,l)
);
},
{
closed = 1;
nodes = (
(328,934,l),
(366,1462,l),
(40,1462,l),
(77,934,l),
(77,934,l)
);
}
);
width = 835;
},
{
layerId = "A52C9687-8F69-441E-A346-B6B4B01C4528";
shapes = (
{
closed = 1;
nodes = (
(287,934,l),
(328,1462,l),
(133,1462,l),
(174,934,l),
(174,934,l)
);
},
{
closed = 1;
nodes = (
(661,934,l),
(702,1462,l),
(508,1462,l),
(549,934,l),
(549,934,l)
);
}
);
userData = {
assembly = "NPUSHB[ ]	/* 33 values pushed */
5 3 4 3 1 1 0 95 2 1 0 0 31 1 78 4 4 0 0 4 7 4 7 6 5 0 3 0 3 17 6 8 23
CALL[ ]	/* CallFunction */";
};
width = 835;
},
{
layerId = "74807A0F-D47B-485E-A88B-DED3F6679B72";
shapes = (
{
closed = 1;
nodes = (
(577,934,l),
(585,1462,l),
(528,1462,l),
(536,934,l),
(536,934,l)
);
},
{
closed = 1;
nodes = (
(278,934,l),
(286,1462,l),
(229,1462,l),
(237,934,l),
(237,934,l)
);
}
);
width = 835;
}
);
note = quotedbl;
unicode = 34;
},
{
glyphname = numbersign;
lastChange = "2025-05-02 13:15:02 +0000";
layers = (
{
layerId = m01;
shapes = (
{
closed = 1;
nodes = (
(447,0,l),
(518,391,l),
(681,391,l),
(610,0,l),
(872,0,l),
(944,391,l),
(1229,391,l),
(1229,645,l),
(990,645,l),
(1021,813,l),
(1291,813,l),
(1291,1073,l),
(1067,1073,l),
(1138,1462,l),
(876,1462,l),
(805,1073,l),
(644,1073,l),
(715,1462,l),
(453,1462,l),
(383,1073,l),
(103,1073,l),
(103,813,l),
(335,813,l),
(304,645,l),
(36,645,l),
(36,391,l),
(256,391,l),
(187,0,l),
(187,0,l)
);
},
{
closed = 1;
nodes = (
(595,813,l),
(757,813,l),
(728,645,l),
(566,645,l),
(566,645,l)
);
}
);
width = 1323;
},
{
layerId = "A52C9687-8F69-441E-A346-B6B4B01C4528";
shapes = (
{
closed = 1;
nodes = (
(375,0,l),
(454,428,l),
(747,428,l),
(663,0,l),
(809,0,l),
(893,428,l),
(1200,428,l),
(1200,565,l),
(919,565,l),
(983,893,l),
(1270,893,l),
(1270,1028,l),
(1009,1028,l),
(1091,1462,l),
(950,1462,l),
(868,1028,l),
(573,1028,l),
(655,1462,l),
(508,1462,l),
(426,1028,l),
(127,1028,l),
(127,893,l),
(401,893,l),
(336,565,l),
(51,565,l),
(51,428,l),
(309,428,l),
(231,0,l),
(231,0,l)
);
},
{
closed = 1;
nodes = (
(545,893,l),
(837,893,l),
(774,565,l),
(481,565,l),
(481,565,l)
);
}
);
userData = {
assembly = "NPUSHB[ ]	/* 68 values pushed */
16 13 11 3 9 14 8 2 0 1 9 0 104 15 7 2 1 6 4 2 2 3 1 2 103 12 1 10 10 31 77 5 1 3 3 32 3 78 0 0 31 30 29 28 0 27 0 27 26 25 24 23 22 21 20 19 17 17 17 17 17 17 17 17 17 17 8 31
CALL[ ]	/* CallFunction */";
};
width = 1323;
},
{
layerId = "74807A0F-D47B-485E-A88B-DED3F6679B72";
shapes = (
{
closed = 1;
nodes = (
(315,0,l),
(405,465,l),
(813,465,l),
(723,0,l),
(774,0,l),
(864,465,l),
(1185,465,l),
(1185,514,l),
(872,514,l),
(956,946,l),
(1265,946,l),
(1265,995,l),
(964,995,l),
(1054,1462,l),
(1003,1462,l),
(913,995,l),
(506,995,l),
(596,1462,l),
(544,1462,l),
(454,995,l),
(137,995,l),
(137,946,l),
(446,946,l),
(362,514,l),
(57,514,l),
(57,465,l),
(354,465,l),
(264,0,l),
(264,0,l)
);
},
{
closed = 1;
nodes = (
(497,946,l),
(905,946,l),
(821,514,l),
(413,514,l),
(413,514,l)
);
}
);
width = 1323;
}
);
note = numbersign;
unicode = 35;
},
{
glyphname = dollar;
lastChange = "2025-05-02 13:17:30 +0000";
layers = (
{
background = {
shapes = (
{
closed = 1;
nodes = (
(950.333,54,o),
(1134,209.667,o),
(1134,471,cs),
(1134,623,o),
(977.667,758.333,o),
(665,877,cs),
(477,947,o),
(383,995.333,o),
(383,1022,cs),
(383,1044.667,o),
(390.167,1067,o),
(404.5,1089,cs),
(418.833,1111,o),
(479,1122,o),
(585,1122,cs),
(760.333,1122,o),
(901,1097.667,o),
(1007,1049,c),
(1095,1323,l),
(962.333,1384.333,o),
(792.333,1415,o),
(585,1415,cs),
(113,1415,o),
(53,1204,o),
(53,1028,cs),
(53,864.667,o),
(210.333,723.667,o),
(525,605,cs),
(709,535.667,o),
(801,480,o),
(801,438,cs),
(801,412.667,o),
(788.167,390,o),
(762.5,370,cs),
(736.833,350,o),
(677.667,340,o),
(585,340,cs),
(435.667,340,o),
(269.333,374,o),
(86,442,c),
(86,129,l),
(224.667,79,o),
(391,54,o),
(585,54,cs)
);
},
{
closed = 1;
nodes = (
(684,-119,l),
(684,1556,l),
(495,1556,l),
(495,-119,l)
);
}
);
};
layerId = m01;
shapes = (
{
closed = 1;
nodes = (
(950.333,54,o),
(1134,209.667,o),
(1134,471,cs),
(1134,623,o),
(977.667,758.333,o),
(665,877,cs),
(477,947,o),
(383,995.333,o),
(383,1045,cs),
(383,1123,o),
(476,1122,o),
(585,1122,cs),
(760.333,1122,o),
(901,1097.667,o),
(1007,1049,c),
(1095,1323,l),
(962.333,1384.333,o),
(792.333,1415,o),
(585,1415,cs),
(113,1415,o),
(53,1204,o),
(53,1028,cs),
(53,864.667,o),
(210.333,723.667,o),
(525,605,cs),
(709,535.667,o),
(801,480,o),
(801,413,cs),
(801,347,o),
(676,340,o),
(585,340,cs),
(435.667,340,o),
(269.333,374,o),
(86,442,c),
(86,129,l),
(224.667,79,o),
(391,54,o),
(585,54,cs)
);
},
{
closed = 1;
nodes = (
(684,-119,l),
(684,1556,l),
(495,1556,l),
(495,-119,l)
);
}
);
width = 1171;
},
{
layerId = "A52C9687-8F69-441E-A346-B6B4B01C4528";
shapes = (
{
closed = 1;
nodes = (
(881.333,100,o),
(1056,255,o),
(1056,451,cs),
(1056,587.667,o),
(920,707,o),
(648,809,cs),
(417.333,898.333,o),
(302,973.667,o),
(302,1060,cs),
(302,1187,o),
(424,1219,o),
(584,1219,cs),
(729.333,1219,o),
(852.333,1195.667,o),
(953,1149,c),
(1009,1300,l),
(899.667,1349.333,o),
(758,1374,o),
(584,1374,cs),
(181.333,1374,o),
(126,1182,o),
(126,1030,cs),
(126,889.333,o),
(278.333,762,o),
(583,648,cs),
(781,572,o),
(880,502,o),
(880,438,cs),
(880,333,o),
(800,258,o),
(584,258,cs),
(436,258,o),
(283.333,286,o),
(126,342,c),
(126,168,l),
(254.667,122.667,o),
(407.333,100,o),
(584,100,cs)
);
},
{
closed = 1;
nodes = (
(648,-119,l),
(648,1554,l),
(517,1554,l),
(517,-119,l)
);
}
);
width = 1171;
},
{
layerId = "74807A0F-D47B-485E-A88B-DED3F6679B72";
shapes = (
{
closed = 1;
nodes = (
(840,20,o),
(1010,149,o),
(1010,381,cs),
(1010,533.667,o),
(879,659.333,o),
(617,758,cs),
(363,853.333,o),
(236,968,o),
(236,1102,cs),
(236,1227.333,o),
(301.333,1391,o),
(584,1391,cs),
(710,1391,o),
(824,1367,o),
(926,1319,c),
(949,1366,l),
(839.667,1416.667,o),
(718,1442,o),
(584,1442,cs),
(262.667,1442,o),
(181,1239.333,o),
(181,1098,cs),
(181,943.333,o),
(318.333,815,o),
(593,713,cs),
(834.333,621.667,o),
(955,511.667,o),
(955,383,cs),
(955,183,o),
(810.667,72,o),
(584,72,cs),
(442.667,72,o),
(310.333,94.333,o),
(187,139,c),
(187,80,l),
(299,40,o),
(431.333,20,o),
(584,20,cs)
);
},
{
closed = 1;
nodes = (
(617,-119,l),
(617,1554,l),
(568,1554,l),
(568,-119,l)
);
}
);
width = 1171;
}
);
note = dollar;
unicode = 36;
},
{
glyphname = percent;
lastChange = "2025-05-02 13:17:09 +0000";
layers = (
{
background = {
shapes = (
{
closed = 1;
nodes = (
(622,0,l),
(1328,1462,l),
(1069,1462,l),
(363,0,l)
);
},
{
closed = 1;
nodes = (
(577,565,o),
(693,736.667,o),
(693,1026,cs),
(693,1315.333,o),
(561,1483,o),
(361,1483,cs),
(151.667,1483,o),
(36,1315.333,o),
(36,1026,cs),
(36,736.667,o),
(166.333,565,o),
(361,565,cs)
);
},
{
closed = 1;
nodes = (
(299,805,o),
(298,957,o),
(298,1022,cs),
(298,1087,o),
(298,1239,o),
(365,1239,cs),
(430,1239,o),
(431,1087,o),
(431,1022,cs),
(431,957,o),
(430,805,o),
(365,805,cs)
);
},
{
closed = 1;
nodes = (
(1546,-16,o),
(1662,154.667,o),
(1662,444,cs),
(1662,734.667,o),
(1530,901,o),
(1330,901,cs),
(1120.667,901,o),
(1005,734.667,o),
(1005,444,cs),
(1005,154.667,o),
(1135.333,-16,o),
(1330,-16,cs)
);
},
{
closed = 1;
nodes = (
(1269,223,o),
(1267,376,o),
(1267,440,cs),
(1267,505,o),
(1268,657,o),
(1333,657,cs),
(1399,657,o),
(1400,506,o),
(1400,440,cs),
(1400,375,o),
(1400,223,o),
(1333,223,cs)
);
}
);
};
layerId = m01;
shapes = (
{
closed = 1;
nodes = (
(622,0,l),
(1328,1462,l),
(1069,1462,l),
(363,0,l)
);
},
{
closed = 1;
nodes = (
(577,565,o),
(693,736.667,o),
(693,1026,cs),
(693,1315.333,o),
(561,1483,o),
(361,1483,cs),
(151.667,1483,o),
(36,1315.333,o),
(36,1026,cs),
(36,736.667,o),
(166.333,565,o),
(361,565,cs)
);
},
{
closed = 1;
nodes = (
(320,805,o),
(298,877,o),
(298,1022,cs),
(298,1167,o),
(320,1239,o),
(365,1239,cs),
(409,1239,o),
(431,1167,o),
(431,1022,cs),
(431,877,o),
(409,805,o),
(365,805,cs)
);
},
{
closed = 1;
nodes = (
(1546,-16,o),
(1662,154.667,o),
(1662,444,cs),
(1662,734.667,o),
(1530,901,o),
(1330,901,cs),
(1120.667,901,o),
(1005,734.667,o),
(1005,444,cs),
(1005,154.667,o),
(1135.333,-16,o),
(1330,-16,cs)
);
},
{
closed = 1;
nodes = (
(1289,223,o),
(1267,295,o),
(1267,440,cs),
(1267,585,o),
(1289,657,o),
(1333,657,cs),
(1378,657,o),
(1400,585,o),
(1400,440,cs),
(1400,295,o),
(1378,223,o),
(1333,223,cs)
);
}
);
width = 1701;
},
{
layerId = "A52C9687-8F69-441E-A346-B6B4B01C4528";
shapes = (
{
closed = 1;
nodes = (
(524,0,l),
(1335,1462,l),
(1177,1462,l),
(366,0,l)
);
},
{
closed = 1;
nodes = (
(609.667,565,o),
(706,736.667,o),
(706,1026,cs),
(706,1315.333,o),
(599,1483,o),
(399,1483,cs),
(191,1483,o),
(100,1315.333,o),
(100,1026,cs),
(100,736.667,o),
(205.667,565,o),
(399,565,cs)
);
},
{
closed = 1;
nodes = (
(299,694,o),
(250,804,o),
(250,1026,cs),
(250,1247,o),
(299,1356,o),
(399,1356,cs),
(505,1356,o),
(557,1247,o),
(557,1026,cs),
(557,804,o),
(505,694,o),
(399,694,cs)
);
},
{
closed = 1;
nodes = (
(1504.667,-20,o),
(1601,150.667,o),
(1601,440,cs),
(1601,729.333,o),
(1492.667,897,o),
(1294,897,cs),
(1086,897,o),
(995,729.333,o),
(995,440,cs),
(995,150.667,o),
(1100.667,-20,o),
(1294,-20,cs)
);
},
{
closed = 1;
nodes = (
(1194,109,o),
(1144,219,o),
(1144,440,cs),
(1144,659,o),
(1194,768,o),
(1294,768,cs),
(1400,768,o),
(1452,659,o),
(1452,440,cs),
(1452,219,o),
(1400,109,o),
(1294,109,cs)
);
}
);
width = 1701;
},
{
layerId = "74807A0F-D47B-485E-A88B-DED3F6679B72";
shapes = (
{
closed = 1;
nodes = (
(485,0,l),
(1296,1462,l),
(1239,1462,l),
(428,0,l)
);
},
{
closed = 1;
nodes = (
(626.333,565,o),
(731,718,o),
(731,1026,cs),
(731,1323.333,o),
(641,1483,o),
(453,1483,cs),
(278.333,1483,o),
(170,1328.667,o),
(170,1026,cs),
(170,723.333,o),
(267.667,565,o),
(449,565,cs)
);
},
{
closed = 1;
nodes = (
(303.667,616,o),
(225,755.333,o),
(225,1026,cs),
(225,1299.333,o),
(307.667,1432,o),
(453,1432,cs),
(607.667,1432,o),
(676,1288.667,o),
(676,1026,cs),
(676,760.667,o),
(598.333,616,o),
(449,616,cs)
);
},
{
closed = 1;
nodes = (
(1444.667,-20,o),
(1552,132,o),
(1552,440,cs),
(1552,738.667,o),
(1462,897,o),
(1274,897,cs),
(1099.333,897,o),
(991,744,o),
(991,440,cs),
(991,137.333,o),
(1090,-20,o),
(1270,-20,cs)
);
},
{
closed = 1;
nodes = (
(1127.333,31,o),
(1047,170.667,o),
(1047,440,cs),
(1047,713.333,o),
(1131.333,846,o),
(1274,846,cs),
(1430,846,o),
(1497,702.667,o),
(1497,440,cs),
(1497,176,o),
(1422,31,o),
(1270,31,cs)
);
}
);
width = 1701;
}
);
note = percent;
unicode = 37;
},
{
glyphname = ampersand;
lastChange = "2025-05-02 13:15:02 +0000";
layers = (
{
layerId = m01;
shapes = (
{
closed = 1;
nodes = (
(1017.333,-20,o),
(1310.333,260.333,o),
(1433,821,c),
(1064,821,l),
(988.667,467.667,o),
(830,291,o),
(588,291,cs),
(488,291,o),
(438,338.667,o),
(438,434,cs),
(438,524,o),
(536.5,618.5,o),
(733.5,717.5,cs),
(930.5,816.5,o),
(1029,955,o),
(1029,1133,cs),
(1029,1365,o),
(893,1481,o),
(621,1481,cs),
(339.667,1481,o),
(199,1365,o),
(199,1133,cs),
(199,1005,o),
(248,885.667,o),
(346,775,cs),
(1045,0,l),
(1467,0,l),
(601,965,ls),
(547.667,1027.667,o),
(521,1079.333,o),
(521,1120,cs),
(521,1190,o),
(552.667,1225,o),
(616,1225,cs),
(676.667,1225,o),
(707,1194.333,o),
(707,1133,cs),
(707,1054.333,o),
(601,962,o),
(389,856,cs),
(177,750,o),
(71,600,o),
(71,406,cs),
(71,122,o),
(232,-20,o),
(554,-20,cs)
);
}
);
width = 1499;
},
{
layerId = "A52C9687-8F69-441E-A346-B6B4B01C4528";
shapes = (
{
closed = 1;
nodes = (
(1009.667,-20,o),
(1288,230.333,o),
(1404,731,c),
(1222,731,l),
(1131.333,336.333,o),
(915.667,139,o),
(575,139,cs),
(389,139,o),
(296,221.667,o),
(296,387,cs),
(296,527.667,o),
(409.333,650,o),
(636,754,cs),
(862.667,858,o),
(976,996.333,o),
(976,1169,cs),
(976,1379.667,o),
(858,1485,o),
(622,1485,cs),
(370.667,1485,o),
(245,1378.333,o),
(245,1165,cs),
(245,1062.333,o),
(309.333,944.333,o),
(438,811,cs),
(1239,0,l),
(1466,0,l),
(567,911,ls),
(469.667,1013.667,o),
(421,1099,o),
(421,1167,cs),
(421,1280.333,o),
(486,1337,o),
(616,1337,cs),
(737.333,1337,o),
(798,1281,o),
(798,1169,cs),
(798,1049.667,o),
(683,937.167,o),
(453,831.5,cs),
(223,725.833,o),
(108,575.667,o),
(108,381,cs),
(108,113.667,o),
(261.667,-20,o),
(569,-20,cs)
);
}
);
width = 1499;
},
{
layerId = "74807A0F-D47B-485E-A88B-DED3F6679B72";
shapes = (
{
closed = 1;
nodes = (
(992.333,-20,o),
(1243.667,210.667,o),
(1349,672,c),
(1294,672,l),
(1196.667,244.667,o),
(963.667,31,o),
(595,31,cs),
(334.333,31,o),
(204,143,o),
(204,367,cs),
(204,526.333,o),
(330.333,664,o),
(583,780,cs),
(835.667,896,o),
(962,1032.667,o),
(962,1190,cs),
(962,1386.667,o),
(855.667,1485,o),
(643,1485,cs),
(417.667,1485,o),
(305,1383.333,o),
(305,1180,cs),
(305,1080,o),
(378,956.667,o),
(524,810,cs),
(1321,0,l),
(1393,0,l),
(562,846,ls),
(427.333,983.333,o),
(360,1094.667,o),
(360,1180,cs),
(360,1349.333,o),
(454.333,1434,o),
(643,1434,cs),
(819,1434,o),
(907,1352.667,o),
(907,1190,cs),
(907,1051.333,o),
(780.667,924.333,o),
(528,809,cs),
(275.333,693.667,o),
(149,546.333,o),
(149,367,cs),
(149,109,o),
(297.667,-20,o),
(595,-20,cs)
);
}
);
width = 1499;
}
);
note = ampersand;
unicode = 38;
},
{
glyphname = quotesingle;
lastChange = "2025-05-02 13:15:02 +0000";
layers = (
{
layerId = m01;
shapes = (
{
closed = 1;
nodes = (
(375,934,l),
(416,1462,l),
(60,1462,l),
(101,934,l),
(101,934,l)
);
}
);
width = 460;
},
{
layerId = "A52C9687-8F69-441E-A346-B6B4B01C4528";
shapes = (
{
closed = 1;
nodes = (
(287,934,l),
(328,1462,l),
(133,1462,l),
(174,934,l),
(174,934,l)
);
}
);
userData = {
assembly = "NPUSHB[ ]	/* 22 values pushed */
2 1 1 1 0 95 0 0 0 31 1 78 0 0 0 3 0 3 17 3 8 23
CALL[ ]	/* CallFunction */";
};
width = 460;
},
{
layerId = "74807A0F-D47B-485E-A88B-DED3F6679B72";
shapes = (
{
closed = 1;
nodes = (
(258,934,l),
(266,1462,l),
(209,1462,l),
(217,934,l),
(217,934,l)
);
}
);
width = 460;
}
);
note = quotesingle;
unicode = 39;
},
{
glyphname = parenleft;
lastChange = "2025-05-02 13:15:02 +0000";
layers = (
{
layerId = m01;
shapes = (
{
closed = 1;
nodes = (
(599,-324,l),
(448.333,-110.667,o),
(373,192,o),
(373,584,cs),
(373,990,o),
(449,1296.333,o),
(601,1503,c),
(318,1503,l),
(154.667,1276.333,o),
(73,969.333,o),
(73,582,cs),
(73,210.667,o),
(154.667,-91.333,o),
(318,-324,c)
);
}
);
width = 614;
},
{
layerId = "A52C9687-8F69-441E-A346-B6B4B01C4528";
shapes = (
{
closed = 1;
nodes = (
(550,-324,l),
(358.667,-86.667,o),
(263,209,o),
(263,563,cs),
(263,931.667,o),
(359.333,1231.333,o),
(552,1462,c),
(382,1462,l),
(181.333,1221.333,o),
(81,921,o),
(81,561,cs),
(81,221,o),
(181.333,-74,o),
(382,-324,c)
);
}
);
width = 614;
},
{
layerId = "74807A0F-D47B-485E-A88B-DED3F6679B72";
shapes = (
{
closed = 1;
nodes = (
(501,-324,l),
(294.333,-68,o),
(191,227.667,o),
(191,563,cs),
(191,915,o),
(294.333,1214.667,o),
(501,1462,c),
(433,1462,l),
(235,1225.333,o),
(136,925,o),
(136,561,cs),
(136,215.667,o),
(235,-79.333,o),
(433,-324,c)
);
}
);
width = 614;
}
);
note = parenleft;
unicode = 40;
},
{
glyphname = parenright;
lastChange = "2025-05-02 13:15:02 +0000";
layers = (
{
layerId = m01;
shapes = (
{
closed = 1;
nodes = (
(296,-324,l),
(459.333,-91.333,o),
(541,210.667,o),
(541,582,cs),
(541,969.333,o),
(459.333,1276.333,o),
(296,1503,c),
(13,1503,l),
(165,1296.333,o),
(241,990,o),
(241,584,cs),
(241,192,o),
(165.667,-110.667,o),
(15,-324,c)
);
}
);
width = 614;
},
{
layerId = "A52C9687-8F69-441E-A346-B6B4B01C4528";
shapes = (
{
closed = 1;
nodes = (
(251,-324,l),
(451.667,-74,o),
(552,221,o),
(552,561,cs),
(552,921,o),
(451.667,1221.333,o),
(251,1462,c),
(81,1462,l),
(273.667,1231.333,o),
(370,931.667,o),
(370,563,cs),
(370,209,o),
(274.333,-86.667,o),
(83,-324,c)
);
}
);
width = 614;
},
{
layerId = "74807A0F-D47B-485E-A88B-DED3F6679B72";
shapes = (
{
closed = 1;
nodes = (
(174,-324,l),
(372,-79.333,o),
(471,215.667,o),
(471,561,cs),
(471,925,o),
(372,1225.333,o),
(174,1462,c),
(106,1462,l),
(312.667,1214.667,o),
(416,915,o),
(416,563,cs),
(416,227.667,o),
(312.667,-68,o),
(106,-324,c)
);
}
);
width = 614;
}
);
note = parenright;
unicode = 41;
},
{
glyphname = asterisk;
lastChange = "2025-05-02 13:15:02 +0000";
layers = (
{
layerId = m01;
shapes = (
{
closed = 1;
nodes = (
(970,711,l),
(763,989,l),
(1077,1010,l),
(1040,1305,l),
(683,1204,l),
(722,1556,l),
(419,1556,l),
(458,1204,l),
(110,1305,l),
(65,1014,l),
(378,989,l),
(171,711,l),
(444,575,l),
(567,856,l),
(710,573,l),
(710,573,l)
);
}
);
width = 1128;
},
{
layerId = "A52C9687-8F69-441E-A346-B6B4B01C4528";
shapes = (
{
closed = 1;
nodes = (
(556,993,l),
(730,635,l),
(906,731,l),
(663,1055,l),
(1039,1085,l),
(1011,1274,l),
(618,1163,l),
(658,1556,l),
(458,1556,l),
(501,1163,l),
(112,1274,l),
(83,1085,l),
(456,1055,l),
(216,731,l),
(398,635,l),
(398,635,l)
);
}
);
userData = {
assembly = "NPUSHB[ ]	/* 15 values pushed */
14 13 12 11 10 9 8 7 6 5 4 3 12 0 73
MPPEM[ ]	/* MeasurePixelPerEm */
PUSHB[ ]	/* 1 value pushed */
41
LT[ ]	/* LessThan */
IF[ ]	/* If */
PUSHB[ ]	/* 6 values pushed */
0 0 0 33 0 78
ELSE[ ]	/* Else */
PUSHB[ ]	/* 4 values pushed */
0 0 0 118
EIF[ ]	/* EndIf */
PUSHB[ ]	/* 4 values pushed */
17 1 8 23
CALL[ ]	/* CallFunction */";
};
width = 1128;
},
{
layerId = "74807A0F-D47B-485E-A88B-DED3F6679B72";
shapes = (
{
closed = 1;
nodes = (
(843,766,l),
(587,1100,l),
(988,1217,l),
(972,1272,l),
(575,1130,l),
(587,1552,l),
(529,1552,l),
(542,1130,l),
(144,1272,l),
(126,1217,l),
(532,1100,l),
(276,766,l),
(323,733,l),
(558,1079,l),
(796,731,l),
(796,731,l)
);
}
);
width = 1128;
}
);
note = asterisk;
unicode = 42;
},
{
glyphname = plus;
lastChange = "2025-05-02 13:15:02 +0000";
layers = (
{
layerId = m01;
shapes = (
{
closed = 1;
nodes = (
(713,227,l),
(713,588,l),
(1086,588,l),
(1086,856,l),
(713,856,l),
(713,1223,l),
(445,1223,l),
(445,856,l),
(72,856,l),
(72,588,l),
(445,588,l),
(445,227,l),
(445,227,l)
);
}
);
width = 1171;
},
{
layerId = "A52C9687-8F69-441E-A346-B6B4B01C4528";
shapes = (
{
closed = 1;
nodes = (
(657,227,l),
(657,649,l),
(1065,649,l),
(1065,795,l),
(657,795,l),
(657,1219,l),
(510,1219,l),
(510,795,l),
(102,795,l),
(102,649,l),
(510,649,l),
(510,227,l),
(510,227,l)
);
}
);
userData = {
assembly = "NPUSHB[ ]	/* 35 values pushed */
0 0 1 3 0 87 5 1 1 4 1 2 3 1 2 103 0 0 0 3 95 0 3 0 3 79 17 17 17 17 17 16 6 8 28
CALL[ ]	/* CallFunction */";
};
width = 1171;
},
{
layerId = "74807A0F-D47B-485E-A88B-DED3F6679B72";
shapes = (
{
closed = 1;
nodes = (
(628,252,l),
(628,698,l),
(1074,698,l),
(1074,748,l),
(628,748,l),
(628,1194,l),
(578,1194,l),
(578,748,l),
(132,748,l),
(132,698,l),
(578,698,l),
(578,252,l),
(578,252,l)
);
}
);
width = 1171;
}
);
note = plus;
unicode = 43;
},
{
glyphname = comma;
lastChange = "2025-05-02 13:15:02 +0000";
layers = (
{
layerId = m01;
shapes = (
{
closed = 1;
nodes = (
(306,-285,l),
(348.667,-183.667,o),
(456.667,178.667,o),
(482,276,c),
(467,299,l),
(125,299,l),
(114.333,189.667,o),
(53.667,-162.333,o),
(27,-285,c)
);
}
);
width = 548;
},
{
layerId = "A52C9687-8F69-441E-A346-B6B4B01C4528";
shapes = (
{
closed = 1;
nodes = (
(216,-264,l),
(281.333,-117.333,o),
(354.667,69.667,o),
(392,215,c),
(378,238,l),
(185,238,l),
(166.333,95.333,o),
(121.667,-108,o),
(83,-264,c)
);
}
);
userData = {
assembly = "NPUSHB[ ]	/* 21 values pushed */
0 0 1 1 0 87 0 0 0 1 95 0 1 0 1 79 20 16 2 8 24
CALL[ ]	/* CallFunction */";
};
width = 548;
},
{
layerId = "74807A0F-D47B-485E-A88B-DED3F6679B72";
shapes = (
{
closed = 1;
nodes = (
(182,-264,l),
(239.333,-122.667,o),
(285.667,59.667,o),
(315,213,c),
(309,238,l),
(252,238,l),
(229.333,82,o),
(197,-65.333,o),
(137,-264,c)
);
}
);
width = 548;
}
);
note = comma;
unicode = 44;
},
{
glyphname = hyphen;
lastChange = "2025-05-02 13:15:02 +0000";
layers = (
{
layerId = m01;
shapes = (
{
closed = 1;
nodes = (
(618,393,l),
(618,705,l),
(53,705,l),
(53,393,l),
(53,393,l)
);
}
);
width = 659;
},
{
layerId = "A52C9687-8F69-441E-A346-B6B4B01C4528";
shapes = (
{
closed = 1;
nodes = (
(577,469,l),
(577,629,l),
(81,629,l),
(81,469,l),
(81,469,l)
);
}
);
userData = {
assembly = "NPUSHB[ ]	/* 28 values pushed */
2 1 1 0 0 1 87 2 1 1 1 0 95 0 0 1 0 79 0 0 0 3 0 3 17 3 8 23
CALL[ ]	/* CallFunction */";
};
width = 659;
},
{
layerId = "74807A0F-D47B-485E-A88B-DED3F6679B72";
shapes = (
{
closed = 1;
nodes = (
(577,530,l),
(577,582,l),
(81,582,l),
(81,530,l),
(81,530,l)
);
}
);
width = 659;
}
);
note = hyphen;
unicode = 45;
},
{
glyphname = period;
lastChange = "2025-05-02 13:15:02 +0000";
layers = (
{
layerId = m01;
shapes = (
{
closed = 1;
nodes = (
(388.333,-25,o),
(484,32.667,o),
(484,166,cs),
(484,307.333,o),
(388.333,358,o),
(279,358,cs),
(161.667,358,o),
(66,307.333,o),
(66,166,cs),
(66,32.667,o),
(161.667,-25,o),
(279,-25,cs)
);
}
);
width = 548;
},
{
layerId = "A52C9687-8F69-441E-A346-B6B4B01C4528";
shapes = (
{
closed = 1;
nodes = (
(340,-29,o),
(401,12.333,o),
(401,111,cs),
(401,211,o),
(340,248,o),
(272,248,cs),
(204,248,o),
(147,211,o),
(147,111,cs),
(147,12.333,o),
(204,-29,o),
(272,-29,cs)
);
}
);
userData = {
assembly = "NPUSHB[ ]	/* 16 values pushed */
0 0 0 1 97 0 1 1 38 1 78 36 34 2 8 24
CALL[ ]	/* CallFunction */";
};
width = 548;
},
{
layerId = "74807A0F-D47B-485E-A88B-DED3F6679B72";
shapes = (
{
closed = 1;
nodes = (
(274.333,-16,o),
(280,11,o),
(280,47,cs),
(280,80.333,o),
(274.333,111,o),
(225,111,cs),
(183.667,111,o),
(174,80.333,o),
(174,47,cs),
(174,11,o),
(183.667,-16,o),
(225,-16,cs)
);
}
);
width = 548;
}
);
note = period;
unicode = 46;
},
{
glyphname = slash;
lastChange = "2025-05-02 13:15:02 +0000";
layers = (
{
layerId = m01;
shapes = (
{
closed = 1;
nodes = (
(301,-20,l),
(760,1483,l),
(469,1483,l),
(10,-20,l),
(10,-20,l)
);
}
);
width = 761;
},
{
layerId = "A52C9687-8F69-441E-A346-B6B4B01C4528";
shapes = (
{
closed = 1;
nodes = (
(196,0,l),
(741,1462,l),
(565,1462,l),
(20,0,l),
(20,0,l)
);
}
);
userData = {
assembly = "NPUSHB[ ]	/* 22 values pushed */
0 0 0 31 77 2 1 1 1 32 1 78 0 0 0 3 0 3 17 3 8 23
CALL[ ]	/* CallFunction */";
};
width = 761;
},
{
layerId = "74807A0F-D47B-485E-A88B-DED3F6679B72";
shapes = (
{
closed = 1;
nodes = (
(123,0,l),
(672,1462,l),
(615,1462,l),
(66,0,l),
(66,0,l)
);
}
);
width = 761;
}
);
note = slash;
unicode = 47;
},
{
glyphname = zero;
lastChange = "2025-05-02 13:15:02 +0000";
layers = (
{
layerId = m01;
shapes = (
{
closed = 1;
nodes = (
(941.667,-20,o),
(1118,229.667,o),
(1118,729,cs),
(1118,1231.667,o),
(941.667,1483,o),
(589,1483,cs),
(237,1483,o),
(61,1231.667,o),
(61,729,cs),
(61,229.667,o),
(237,-20,o),
(589,-20,cs)
);
},
{
closed = 1;
nodes = (
(499,295,o),
(454,439.667,o),
(454,729,cs),
(454,1021,o),
(499,1167,o),
(589,1167,cs),
(679.667,1167,o),
(725,1021,o),
(725,729,cs),
(725,439.667,o),
(679.667,295,o),
(589,295,cs)
);
}
);
width = 1171;
},
{
layerId = "A52C9687-8F69-441E-A346-B6B4B01C4528";
shapes = (
{
closed = 1;
nodes = (
(908.333,-20,o),
(1071,231,o),
(1071,733,cs),
(1071,1234.333,o),
(908.333,1485,o),
(583,1485,cs),
(261,1485,o),
(100,1234.333,o),
(100,733,cs),
(100,231,o),
(261,-20,o),
(583,-20,cs)
);
},
{
closed = 1;
nodes = (
(381,133,o),
(280,333,o),
(280,733,cs),
(280,1131.667,o),
(381,1331,o),
(583,1331,cs),
(786.333,1331,o),
(888,1131.667,o),
(888,733,cs),
(888,333,o),
(786.333,133,o),
(583,133,cs)
);
}
);
width = 1171;
},
{
layerId = "74807A0F-D47B-485E-A88B-DED3F6679B72";
shapes = (
{
closed = 1;
nodes = (
(895.667,-20,o),
(1047,232.333,o),
(1047,737,cs),
(1047,1235.667,o),
(896.333,1485,o),
(595,1485,cs),
(289,1485,o),
(136,1235.667,o),
(136,737,cs),
(136,232.333,o),
(288.333,-20,o),
(593,-20,cs)
);
},
{
closed = 1;
nodes = (
(325,31,o),
(191,266.333,o),
(191,737,cs),
(191,1201.667,o),
(325.667,1434,o),
(595,1434,cs),
(859.667,1434,o),
(992,1201.667,o),
(992,737,cs),
(992,266.333,o),
(859,31,o),
(593,31,cs)
);
}
);
width = 1171;
}
);
note = zero;
unicode = 48;
},
{
glyphname = one;
lastChange = "2025-05-02 13:15:02 +0000";
layers = (
{
layerId = m01;
shapes = (
{
closed = 1;
nodes = (
(941,0,l),
(941,1462,l),
(585,1462,l),
(83,1053,l),
(288,801,l),
(540,1032,l),
(540,0,l),
(540,0,l)
);
}
);
width = 1171;
},
{
layerId = "A52C9687-8F69-441E-A346-B6B4B01C4528";
shapes = (
{
closed = 1;
nodes = (
(727,0,l),
(727,1462,l),
(577,1462,l),
(182,1155,l),
(276,1034,l),
(551,1274,l),
(551,0,l),
(551,0,l)
);
}
);
width = 1171;
},
{
layerId = "74807A0F-D47B-485E-A88B-DED3F6679B72";
shapes = (
{
closed = 1;
nodes = (
(744,0,l),
(744,1462,l),
(697,1462,l),
(298,1171,l),
(331,1128,l),
(691,1403,l),
(691,0,l),
(691,0,l)
);
}
);
width = 1171;
}
);
note = one;
unicode = 49;
},
{
glyphname = two;
lastChange = "2025-05-02 13:15:02 +0000";
layers = (
{
layerId = m01;
shapes = (
{
closed = 1;
nodes = (
(1122,0,l),
(1122,326,l),
(569,326,l),
(675,437,ls),
(954.333,731.667,o),
(1094,947,o),
(1094,1083,cs),
(1094,1349.667,o),
(931.333,1483,o),
(606,1483,cs),
(420.667,1483,o),
(233.667,1405,o),
(45,1249,c),
(262,995,l),
(388.667,1099,o),
(488.333,1151,o),
(561,1151,cs),
(655,1151,o),
(702,1110,o),
(702,1028,cs),
(702,960,o),
(606.667,825.333,o),
(416,624,cs),
(61,249,l),
(61,0,l),
(61,0,l)
);
}
);
width = 1171;
},
{
layerId = "A52C9687-8F69-441E-A346-B6B4B01C4528";
shapes = (
{
closed = 1;
nodes = (
(1065,0,l),
(1065,164,l),
(328,164,l),
(622,473,ls),
(877.333,743.667,o),
(1005,950.667,o),
(1005,1094,cs),
(1005,1353.333,o),
(857.667,1483,o),
(563,1483,cs),
(406.333,1483,o),
(256.667,1425.667,o),
(114,1311,c),
(211,1190,l),
(325.667,1282.667,o),
(443,1329,o),
(563,1329,cs),
(735,1329,o),
(821,1247,o),
(821,1083,cs),
(821,959.667,o),
(714.333,785.667,o),
(501,561,cs),
(98,136,l),
(98,0,l),
(98,0,l)
);
}
);
width = 1171;
},
{
layerId = "74807A0F-D47B-485E-A88B-DED3F6679B72";
shapes = (
{
closed = 1;
nodes = (
(1055,0,l),
(1055,51,l),
(242,51,l),
(670,504,ls),
(881.333,727.333,o),
(987,927.333,o),
(987,1104,cs),
(987,1356.667,o),
(857.333,1483,o),
(598,1483,cs),
(458.667,1483,o),
(330.333,1435.667,o),
(213,1341,c),
(244,1300,l),
(352.667,1388,o),
(470.667,1432,o),
(598,1432,cs),
(820.667,1432,o),
(932,1322.667,o),
(932,1104,cs),
(932,935.333,o),
(831,744.667,o),
(629,532,cs),
(170,47,l),
(170,0,l),
(170,0,l)
);
}
);
width = 1171;
}
);
note = two;
unicode = 50;
},
{
glyphname = three;
lastChange = "2025-05-02 13:15:02 +0000";
layers = (
{
layerId = m01;
shapes = (
{
closed = 1;
nodes = (
(912.333,-20,o),
(1116,126,o),
(1116,418,cs),
(1116,615.333,o),
(993.667,730.667,o),
(749,764,c),
(749,770,l),
(965,807.333,o),
(1073,932.333,o),
(1073,1145,cs),
(1073,1370.333,o),
(911,1483,o),
(587,1483,cs),
(371.667,1483,o),
(199.667,1433.667,o),
(71,1335,c),
(235,1071,l),
(316.333,1133.667,o),
(413.333,1165,o),
(526,1165,cs),
(635.333,1165,o),
(690,1127,o),
(690,1051,cs),
(690,948.333,o),
(589.333,897,o),
(388,897,cs),
(296,897,l),
(296,600,l),
(386,600,ls),
(594,600,o),
(698,547.333,o),
(698,442,cs),
(698,341.333,o),
(614.667,291,o),
(448,291,cs),
(331.333,291,o),
(205,323,o),
(69,387,c),
(69,59,l),
(181,6.333,o),
(326.333,-20,o),
(505,-20,cs)
);
}
);
width = 1171;
},
{
layerId = "A52C9687-8F69-441E-A346-B6B4B01C4528";
shapes = (
{
closed = 1;
nodes = (
(867.667,-20,o),
(1055,125.333,o),
(1055,416,cs),
(1055,615.333,o),
(938.667,730.667,o),
(706,762,c),
(706,770,l),
(908.667,806,o),
(1010,922.667,o),
(1010,1120,cs),
(1010,1362,o),
(859,1483,o),
(557,1483,cs),
(381,1483,o),
(228.667,1432.333,o),
(100,1331,c),
(190,1208,l),
(297.333,1290,o),
(420.333,1331,o),
(559,1331,cs),
(736.333,1331,o),
(825,1256.667,o),
(825,1108,cs),
(825,923.333,o),
(703,831,o),
(459,831,cs),
(315,831,l),
(315,678,l),
(457,678,ls),
(729.667,678,o),
(866,592,o),
(866,420,cs),
(866,227.333,o),
(742.333,131,o),
(495,131,cs),
(360.333,131,o),
(226,163,o),
(92,227,c),
(92,59,l),
(203.333,6.333,o),
(337,-20,o),
(493,-20,cs)
);
}
);
width = 1171;
},
{
layerId = "74807A0F-D47B-485E-A88B-DED3F6679B72";
shapes = (
{
closed = 1;
nodes = (
(870,-20,o),
(1037,119,o),
(1037,397,cs),
(1037,609.667,o),
(918.333,732,o),
(681,764,c),
(681,768,l),
(888.333,804,o),
(992,924,o),
(992,1128,cs),
(992,1364.667,o),
(857.667,1483,o),
(589,1483,cs),
(421.667,1483,o),
(272.667,1432.333,o),
(142,1331,c),
(171,1288,l),
(295,1384,o),
(434.333,1432,o),
(589,1432,cs),
(821,1432,o),
(937,1330.667,o),
(937,1128,cs),
(937,900,o),
(797.667,786,o),
(519,786,cs),
(349,786,l),
(349,735,l),
(519,735,ls),
(827.667,735,o),
(982,622.333,o),
(982,397,cs),
(982,153,o),
(833.333,31,o),
(536,31,cs),
(391.333,31,o),
(254.667,61.667,o),
(126,123,c),
(126,66,l),
(247.333,8.667,o),
(384,-20,o),
(536,-20,cs)
);
}
);
width = 1171;
}
);
note = three;
unicode = 51;
},
{
glyphname = four;
lastChange = "2025-05-02 13:15:02 +0000";
layers = (
{
layerId = m01;
shapes = (
{
closed = 1;
nodes = (
(997,0,l),
(997,283,l),
(1159,283,l),
(1159,578,l),
(997,578,l),
(997,1462,l),
(632,1462,l),
(24,573,l),
(24,283,l),
(608,283,l),
(608,0,l),
(608,0,l)
);
},
{
closed = 1;
nodes = (
(608,963,l),
(608,578,l),
(366,578,l),
(366,578,l)
);
}
);
width = 1171;
},
{
layerId = "A52C9687-8F69-441E-A346-B6B4B01C4528";
shapes = (
{
closed = 1;
nodes = (
(917,0,l),
(917,332,l),
(1130,332,l),
(1130,494,l),
(917,494,l),
(917,1470,l),
(731,1470,l),
(43,485,l),
(43,332,l),
(743,332,l),
(743,0,l),
(743,0,l)
);
},
{
closed = 1;
nodes = (
(743,1268,l),
(743,494,l),
(219,494,l),
(219,494,l)
);
}
);
width = 1171;
},
{
layerId = "74807A0F-D47B-485E-A88B-DED3F6679B72";
shapes = (
{
closed = 1;
nodes = (
(872,0,l),
(872,397,l),
(1147,397,l),
(1147,449,l),
(872,449,l),
(872,1470,l),
(815,1470,l),
(51,434,l),
(51,397,l),
(819,397,l),
(819,0,l),
(819,0,l)
);
},
{
closed = 1;
nodes = (
(819,1405,l),
(819,449,l),
(123,449,l),
(123,449,l)
);
}
);
width = 1171;
}
);
note = four;
unicode = 52;
},
{
glyphname = five;
lastChange = "2025-05-02 13:15:02 +0000";
layers = (
{
layerId = m01;
shapes = (
{
closed = 1;
nodes = (
(898,-20,o),
(1096,149,o),
(1096,487,cs),
(1096,801,o),
(948.333,958,o),
(653,958,cs),
(586.333,958,o),
(529,952,o),
(481,940,c),
(500,1133,l),
(997,1133,l),
(997,1462,l),
(164,1462,l),
(109,690,l),
(254,618,l),
(336.667,641.333,o),
(403.667,653,o),
(455,653,cs),
(615.667,653,o),
(696,593.667,o),
(696,475,cs),
(696,352.333,o),
(620.333,291,o),
(469,291,cs),
(323.667,291,o),
(195.333,321.667,o),
(84,383,c),
(84,59,l),
(182,6.333,o),
(321.333,-20,o),
(502,-20,cs)
);
}
);
width = 1171;
},
{
layerId = "A52C9687-8F69-441E-A346-B6B4B01C4528";
shapes = (
{
closed = 1;
nodes = (
(872.667,-20,o),
(1055,142.333,o),
(1055,467,cs),
(1055,753.667,o),
(891,897,o),
(563,897,cs),
(468.333,897,o),
(393.333,889.333,o),
(338,874,c),
(373,1298,l),
(952,1298,l),
(952,1462,l),
(219,1462,l),
(164,772,l),
(254,715,l),
(328,735,o),
(411.333,745,o),
(504,745,cs),
(748,745,o),
(870,646.333,o),
(870,449,cs),
(870,238.333,o),
(750,133,o),
(510,133,cs),
(370.667,133,o),
(243.667,165,o),
(129,229,c),
(129,59,l),
(223,6.333,o),
(349.333,-20,o),
(508,-20,cs)
);
}
);
width = 1171;
},
{
layerId = "74807A0F-D47B-485E-A88B-DED3F6679B72";
shapes = (
{
closed = 1;
nodes = (
(872,-20,o),
(1044,134.667,o),
(1044,444,cs),
(1044,729.333,o),
(886.333,872,o),
(571,872,cs),
(467.667,872,o),
(366.333,858.333,o),
(267,831,c),
(319,1411,l),
(956,1411,l),
(956,1462,l),
(272,1462,l),
(210,805,l),
(249,774,l),
(362.333,805.333,o),
(469.667,821,o),
(571,821,cs),
(849,821,o),
(988,695.333,o),
(988,444,cs),
(988,168.667,o),
(834.667,31,o),
(528,31,cs),
(399.333,31,o),
(277,63,o),
(161,127,c),
(161,66,l),
(263,8.667,o),
(385.333,-20,o),
(528,-20,cs)
);
}
);
width = 1171;
}
);
note = five;
unicode = 53;
},
{
glyphname = six;
lastChange = "2025-05-02 13:15:02 +0000";
layers = (
{
layerId = m01;
shapes = (
{
closed = 1;
nodes = (
(954,-20,o),
(1126,153.333,o),
(1126,500,cs),
(1126,816.667,o),
(989.333,975,o),
(716,975,cs),
(563.333,975,o),
(420,830,o),
(286,540,c),
(419,479,l),
(479.667,606.333,o),
(542,670,o),
(606,670,cs),
(697.333,670,o),
(743,610.667,o),
(743,492,cs),
(743,359.333,o),
(696,293,o),
(602,293,cs),
(481.333,293,o),
(421,401.333,o),
(421,618,cs),
(421,990,o),
(553,1176,o),
(817,1176,cs),
(920.333,1176,o),
(992.667,1169.667,o),
(1034,1157,c),
(1034,1466,l),
(996.667,1477.333,o),
(927,1483,o),
(825,1483,cs),
(314.333,1483,o),
(59,1194.667,o),
(59,618,cs),
(59,192.667,o),
(242.667,-20,o),
(610,-20,cs)
);
}
);
width = 1171;
},
{
layerId = "A52C9687-8F69-441E-A346-B6B4B01C4528";
shapes = (
{
closed = 1;
nodes = (
(920,-20,o),
(1075,143.667,o),
(1075,471,cs),
(1075,767,o),
(933.667,915,o),
(651,915,cs),
(450.333,915,o),
(295.667,799,o),
(187,567,c),
(281,520,l),
(359,689.333,o),
(470,774,o),
(614,774,cs),
(802,774,o),
(896,673,o),
(896,471,cs),
(896,244.333,o),
(800,131,o),
(608,131,cs),
(397.333,131,o),
(292,295.667,o),
(292,625,cs),
(292,1098.333,o),
(456.667,1335,o),
(786,1335,cs),
(849.333,1335,o),
(908,1327,o),
(962,1311,c),
(962,1464,l),
(917.333,1476.667,o),
(857.333,1483,o),
(782,1483,cs),
(335.333,1483,o),
(112,1197,o),
(112,625,cs),
(112,195,o),
(278,-20,o),
(610,-20,cs)
);
}
);
width = 1171;
},
{
layerId = "74807A0F-D47B-485E-A88B-DED3F6679B72";
shapes = (
{
closed = 1;
nodes = (
(904,-20,o),
(1050,140.333,o),
(1050,461,cs),
(1050,753,o),
(907.333,899,o),
(622,899,cs),
(411.333,899,o),
(252.333,783.667,o),
(145,553,c),
(186,534,l),
(284,743.333,o),
(429.333,848,o),
(622,848,cs),
(870.667,848,o),
(995,719,o),
(995,461,cs),
(995,174.333,o),
(867.333,31,o),
(612,31,cs),
(330.667,31,o),
(190,227.667,o),
(190,621,cs),
(194,1164.333,o),
(381,1436,o),
(751,1436,cs),
(819,1436,o),
(886,1425.667,o),
(952,1405,c),
(952,1460,l),
(896,1478,o),
(829,1487,o),
(751,1487,cs),
(343,1487,o),
(139,1198.333,o),
(139,621,cs),
(139,193.667,o),
(296.667,-20,o),
(612,-20,cs)
);
}
);
width = 1171;
}
);
note = six;
unicode = 54;
},
{
glyphname = seven;
lastChange = "2025-05-02 13:15:02 +0000";
layers = (
{
layerId = m01;
shapes = (
{
closed = 1;
nodes = (
(608,0,l),
(1122,1229,l),
(1122,1462,l),
(67,1462,l),
(67,1135,l),
(700,1135,l),
(198,0,l),
(198,0,l)
);
}
);
width = 1171;
},
{
layerId = "A52C9687-8F69-441E-A346-B6B4B01C4528";
shapes = (
{
closed = 1;
nodes = (
(477,0,l),
(1071,1323,l),
(1071,1462,l),
(90,1462,l),
(90,1298,l),
(878,1298,l),
(278,0,l),
(278,0,l)
);
}
);
width = 1171;
},
{
layerId = "74807A0F-D47B-485E-A88B-DED3F6679B72";
shapes = (
{
closed = 1;
nodes = (
(463,0,l),
(1074,1427,l),
(1074,1462,l),
(148,1462,l),
(148,1411,l),
(1012,1411,l),
(404,0,l),
(404,0,l)
);
}
);
width = 1171;
}
);
note = seven;
unicode = 55;
},
{
glyphname = eight;
lastChange = "2025-05-02 13:15:02 +0000";
layers = (
{
layerId = m01;
shapes = (
{
closed = 1;
nodes = (
(945.667,-20,o),
(1124,116.333,o),
(1124,389,cs),
(1124,613,o),
(1015.167,764.167,o),
(797.5,842.5,cs),
(579.833,920.833,o),
(471,1004,o),
(471,1092,cs),
(471,1162.667,o),
(511.333,1198,o),
(592,1198,cs),
(670.667,1198,o),
(710,1162.667,o),
(710,1092,cs),
(710,1008,o),
(601.167,924.5,o),
(383.5,841.5,cs),
(165.833,758.5,o),
(57,606.333,o),
(57,385,cs),
(57,115,o),
(234.333,-20,o),
(589,-20,cs)
);
},
{
closed = 1;
nodes = (
(474.333,264,o),
(419,309.667,o),
(419,401,cs),
(419,504.333,o),
(529.333,597.833,o),
(750,681.5,cs),
(970.667,765.167,o),
(1081,913.333,o),
(1081,1126,cs),
(1081,1364,o),
(918.667,1483,o),
(594,1483,cs),
(264.667,1483,o),
(100,1364.667,o),
(100,1128,cs),
(100,903.333,o),
(210.333,751.333,o),
(431,672,cs),
(651.667,592.667,o),
(762,499.667,o),
(762,393,cs),
(762,307,o),
(703,264,o),
(585,264,cs)
);
}
);
width = 1171;
},
{
layerId = "A52C9687-8F69-441E-A346-B6B4B01C4528";
shapes = (
{
closed = 1;
nodes = (
(909,-20,o),
(1069,113,o),
(1069,379,cs),
(1069,571,o),
(944.667,711,o),
(696,799,cs),
(447.333,887,o),
(323,996,o),
(323,1126,cs),
(323,1266.667,o),
(409,1337,o),
(581,1337,cs),
(755.667,1337,o),
(843,1266.667,o),
(843,1126,cs),
(843,998.667,o),
(719.167,888.333,o),
(471.5,795,cs),
(223.833,701.667,o),
(100,561,o),
(100,373,cs),
(100,111,o),
(263,-20,o),
(589,-20,cs)
);
},
{
closed = 1;
nodes = (
(379,123,o),
(276,205.667,o),
(276,371,cs),
(276,517.667,o),
(400.333,637.667,o),
(649,731,cs),
(897.667,824.333,o),
(1022,958.333,o),
(1022,1133,cs),
(1022,1366.333,o),
(875.667,1483,o),
(583,1483,cs),
(292.333,1483,o),
(147,1367,o),
(147,1135,cs),
(147,939.667,o),
(271.333,798,o),
(520,710,cs),
(768.667,622,o),
(893,511,o),
(893,377,cs),
(893,207.667,o),
(790.333,123,o),
(585,123,cs)
);
}
);
width = 1171;
},
{
layerId = "74807A0F-D47B-485E-A88B-DED3F6679B72";
shapes = (
{
closed = 1;
nodes = (
(907,-20,o),
(1060,110.333,o),
(1060,371,cs),
(1060,555,o),
(927.167,694.333,o),
(661.5,789,cs),
(395.833,883.667,o),
(263,1002.333,o),
(263,1145,cs),
(263,1336.333,o),
(378.667,1432,o),
(610,1432,cs),
(840.667,1432,o),
(956,1337.667,o),
(956,1149,cs),
(956,1010.333,o),
(823.5,891.333,o),
(558.5,792,cs),
(293.5,692.667,o),
(161,548,o),
(161,358,cs),
(161,106,o),
(307.667,-20,o),
(601,-20,cs)
);
},
{
closed = 1;
nodes = (
(344.333,31,o),
(216,140,o),
(216,358,cs),
(216,526,o),
(348.5,660.333,o),
(613.5,761,cs),
(878.5,861.667,o),
(1011,991,o),
(1011,1149,cs),
(1011,1371.667,o),
(877.333,1483,o),
(610,1483,cs),
(342,1483,o),
(208,1370.333,o),
(208,1145,cs),
(208,979,o),
(340.833,848.833,o),
(606.5,754.5,cs),
(872.167,660.167,o),
(1005,532.333,o),
(1005,371,cs),
(1005,144.333,o),
(870.333,31,o),
(601,31,cs)
);
}
);
width = 1171;
}
);
note = eight;
unicode = 56;
},
{
glyphname = nine;
lastChange = "2025-05-02 13:15:02 +0000";
layers = (
{
layerId = m01;
shapes = (
{
closed = 1;
nodes = (
(864.667,-20,o),
(1120,268.333,o),
(1120,845,cs),
(1120,1270.333,o),
(936.333,1483,o),
(569,1483,cs),
(225,1483,o),
(53,1309.667,o),
(53,963,cs),
(53,646.333,o),
(189.667,488,o),
(463,488,cs),
(615.667,488,o),
(759,633,o),
(893,923,c),
(760,984,l),
(699.333,856.667,o),
(637,793,o),
(573,793,cs),
(481.667,793,o),
(436,852.333,o),
(436,971,cs),
(436,1103.667,o),
(483,1170,o),
(577,1170,cs),
(697.667,1170,o),
(758,1061.667,o),
(758,845,cs),
(758,473,o),
(626,287,o),
(362,287,cs),
(258.667,287,o),
(186.333,293.333,o),
(145,306,c),
(145,-3,l),
(182.333,-14.333,o),
(252,-20,o),
(354,-20,cs)
);
}
);
width = 1171;
},
{
layerId = "A52C9687-8F69-441E-A346-B6B4B01C4528";
shapes = (
{
closed = 1;
nodes = (
(841.667,-20,o),
(1065,266,o),
(1065,838,cs),
(1065,1268,o),
(899,1483,o),
(567,1483,cs),
(257,1483,o),
(102,1319.333,o),
(102,992,cs),
(102,696,o),
(243.333,548,o),
(526,548,cs),
(726.667,548,o),
(881.333,664,o),
(990,896,c),
(896,943,l),
(818,773.667,o),
(707,689,o),
(563,689,cs),
(375,689,o),
(281,790,o),
(281,992,cs),
(281,1218.667,o),
(377,1332,o),
(569,1332,cs),
(779.667,1332,o),
(885,1167.333,o),
(885,838,cs),
(885,364.667,o),
(720.333,128,o),
(391,128,cs),
(327.667,128,o),
(269,136,o),
(215,152,c),
(215,-1,l),
(259.667,-13.667,o),
(319.667,-20,o),
(395,-20,cs)
);
}
);
width = 1171;
},
{
layerId = "74807A0F-D47B-485E-A88B-DED3F6679B72";
shapes = (
{
closed = 1;
nodes = (
(849,-20,o),
(1053,268.667,o),
(1053,846,cs),
(1053,1273.333,o),
(895.333,1487,o),
(580,1487,cs),
(288,1487,o),
(142,1326.667,o),
(142,1006,cs),
(142,714,o),
(284.667,568,o),
(570,568,cs),
(780.667,568,o),
(939.667,683.333,o),
(1047,914,c),
(1006,933,l),
(908,723.667,o),
(762.667,619,o),
(570,619,cs),
(321.333,619,o),
(197,748,o),
(197,1006,cs),
(197,1292.667,o),
(324.667,1436,o),
(580,1436,cs),
(861.333,1436,o),
(1002,1239.333,o),
(1002,846,cs),
(998,302.667,o),
(811,31,o),
(441,31,cs),
(373,31,o),
(306,41.333,o),
(240,62,c),
(240,7,l),
(296,-11,o),
(363,-20,o),
(441,-20,cs)
);
}
);
width = 1171;
}
);
note = nine;
unicode = 57;
},
{
glyphname = colon;
lastChange = "2025-05-02 13:15:02 +0000";
layers = (
{
layerId = m01;
shapes = (
{
closed = 1;
nodes = (
(378.333,764,o),
(474,820,o),
(474,956,cs),
(474,1096,o),
(378.333,1147,o),
(269,1147,cs),
(151.667,1147,o),
(56,1096,o),
(56,956,cs),
(56,820,o),
(151.667,764,o),
(269,764,cs)
);
},
{
closed = 1;
nodes = (
(378.333,-25,o),
(474,32.667,o),
(474,166,cs),
(474,307.333,o),
(378.333,358,o),
(269,358,cs),
(151.667,358,o),
(56,307.333,o),
(56,166,cs),
(56,32.667,o),
(151.667,-25,o),
(269,-25,cs)
);
}
);
width = 548;
},
{
layerId = "A52C9687-8F69-441E-A346-B6B4B01C4528";
shapes = (
{
closed = 1;
nodes = (
(340,848,o),
(401,888.333,o),
(401,987,cs),
(401,1091,o),
(340,1126,o),
(272,1126,cs),
(204,1126,o),
(147,1091,o),
(147,987,cs),
(147,888.333,o),
(204,848,o),
(272,848,cs)
);
},
{
closed = 1;
nodes = (
(340,-29,o),
(401,12.333,o),
(401,111,cs),
(401,211,o),
(340,248,o),
(272,248,cs),
(204,248,o),
(147,211,o),
(147,111,cs),
(147,12.333,o),
(204,-29,o),
(272,-29,cs)
);
}
);
userData = {
assembly = "NPUSHB[ ]	/* 28 values pushed */
0 1 1 0 97 0 0 0 40 77 0 2 2 3 97 0 3 3 38 3 78 36 36 36 34 4 8 26
CALL[ ]	/* CallFunction */";
};
width = 548;
},
{
layerId = "74807A0F-D47B-485E-A88B-DED3F6679B72";
shapes = (
{
closed = 1;
nodes = (
(284.333,963,o),
(290,990,o),
(290,1026,cs),
(290,1059.333,o),
(284.333,1090,o),
(235,1090,cs),
(193.667,1090,o),
(184,1059.333,o),
(184,1026,cs),
(184,990,o),
(193.667,963,o),
(235,963,cs)
);
},
{
closed = 1;
nodes = (
(284.333,-16,o),
(290,11,o),
(290,47,cs),
(290,80.333,o),
(284.333,111,o),
(235,111,cs),
(193.667,111,o),
(184,80.333,o),
(184,47,cs),
(184,11,o),
(193.667,-16,o),
(235,-16,cs)
);
}
);
width = 548;
}
);
note = colon;
unicode = 58;
},
{
glyphname = semicolon;
lastChange = "2025-05-02 13:15:02 +0000";
layers = (
{
layerId = m01;
shapes = (
{
closed = 1;
nodes = (
(316,-285,l),
(358.667,-183.667,o),
(466.667,178.667,o),
(492,276,c),
(477,299,l),
(135,299,l),
(124.333,189.667,o),
(63.667,-162.333,o),
(37,-285,c)
);
},
{
closed = 1;
nodes = (
(392.333,764,o),
(490,820,o),
(490,956,cs),
(490,1096,o),
(392.333,1147,o),
(283,1147,cs),
(165.667,1147,o),
(72,1096,o),
(72,956,cs),
(72,820,o),
(165.667,764,o),
(283,764,cs)
);
}
);
width = 548;
},
{
layerId = "A52C9687-8F69-441E-A346-B6B4B01C4528";
shapes = (
{
closed = 1;
nodes = (
(198,-264,l),
(263.333,-120,o),
(339.333,69.667,o),
(374,215,c),
(360,238,l),
(167,238,l),
(153.667,142,o),
(87,-162.667,o),
(63,-264,c)
);
},
{
closed = 1;
nodes = (
(338.667,848,o),
(397,888.333,o),
(397,987,cs),
(397,1091,o),
(338.667,1126,o),
(268,1126,cs),
(200,1126,o),
(143,1091,o),
(143,987,cs),
(143,888.333,o),
(200,848,o),
(268,848,cs)
);
}
);
width = 548;
},
{
layerId = "74807A0F-D47B-485E-A88B-DED3F6679B72";
shapes = (
{
closed = 1;
nodes = (
(142,-264,l),
(199.333,-122.667,o),
(245.667,59.667,o),
(275,213,c),
(269,238,l),
(212,238,l),
(189.333,82,o),
(157,-65.333,o),
(97,-264,c)
);
},
{
closed = 1;
nodes = (
(293.333,963,o),
(300,990,o),
(300,1026,cs),
(300,1059.333,o),
(293.333,1090,o),
(244,1090,cs),
(204,1090,o),
(193,1059.333,o),
(193,1026,cs),
(193,990,o),
(204,963,o),
(244,963,cs)
);
}
);
width = 548;
}
);
note = semicolon;
unicode = 59;
},
{
glyphname = less;
lastChange = "2025-05-02 13:15:02 +0000";
layers = (
{
layerId = m01;
shapes = (
{
closed = 1;
nodes = (
(1104,473,l),
(483,725,l),
(1104,1008,l),
(1104,1305,l),
(92,799,l),
(92,627,l),
(1104,178,l),
(1104,178,l)
);
}
);
width = 1171;
},
{
layerId = "A52C9687-8F69-441E-A346-B6B4B01C4528";
shapes = (
{
closed = 1;
nodes = (
(1067,397,l),
(295,721,l),
(1067,1085,l),
(1067,1245,l),
(102,764,l),
(102,662,l),
(1067,238,l),
(1067,238,l)
);
}
);
userData = {
assembly = "PUSHB[ ]	/* 4 values pushed */
5 2 1 50
CALL[ ]	/* CallFunction */";
};
width = 1171;
},
{
layerId = "74807A0F-D47B-485E-A88B-DED3F6679B72";
shapes = (
{
closed = 1;
nodes = (
(1072,336,l),
(206,741,l),
(1072,1147,l),
(1072,1200,l),
(134,760,l),
(134,723,l),
(1072,283,l),
(1072,283,l)
);
}
);
width = 1171;
}
);
note = less;
unicode = 60;
},
{
glyphname = equal;
lastChange = "2025-05-02 13:15:02 +0000";
layers = (
{
layerId = m01;
shapes = (
{
closed = 1;
nodes = (
(1098,358,l),
(1098,629,l),
(82,629,l),
(82,358,l),
(82,358,l)
);
},
{
closed = 1;
nodes = (
(1098,815,l),
(1098,1083,l),
(82,1083,l),
(82,815,l),
(82,815,l)
);
}
);
width = 1171;
},
{
layerId = "A52C9687-8F69-441E-A346-B6B4B01C4528";
shapes = (
{
closed = 1;
nodes = (
(1052,444,l),
(1052,590,l),
(114,590,l),
(114,444,l),
(114,444,l)
);
},
{
closed = 1;
nodes = (
(1052,852,l),
(1052,997,l),
(114,997,l),
(114,852,l),
(114,852,l)
);
}
);
userData = {
assembly = "NPUSHB[ ]	/* 45 values pushed */
4 1 1 0 0 3 1 0 103 5 1 3 2 2 3 87 5 1 3 3 2 95 0 2 3 2 79 4 4 0 0 4 7 4 7 6 5 0 3 0 3 17 6 8 23
CALL[ ]	/* CallFunction */";
};
width = 1171;
},
{
layerId = "74807A0F-D47B-485E-A88B-DED3F6679B72";
shapes = (
{
closed = 1;
nodes = (
(1054,489,l),
(1054,539,l),
(112,539,l),
(112,489,l),
(112,489,l)
);
},
{
closed = 1;
nodes = (
(1054,907,l),
(1054,956,l),
(112,956,l),
(112,907,l),
(112,907,l)
);
}
);
width = 1171;
}
);
note = equal;
unicode = 61;
},
{
glyphname = greater;
lastChange = "2025-05-02 13:15:02 +0000";
layers = (
{
layerId = m01;
shapes = (
{
closed = 1;
nodes = (
(1094,627,l),
(1094,799,l),
(82,1305,l),
(82,1008,l),
(703,725,l),
(82,473,l),
(82,178,l),
(82,178,l)
);
}
);
width = 1171;
},
{
layerId = "A52C9687-8F69-441E-A346-B6B4B01C4528";
shapes = (
{
closed = 1;
nodes = (
(1067,662,l),
(1067,764,l),
(102,1245,l),
(102,1085,l),
(874,719,l),
(102,397,l),
(102,238,l),
(102,238,l)
);
}
);
userData = {
assembly = "PUSHB[ ]	/* 4 values pushed */
5 1 1 50
CALL[ ]	/* CallFunction */";
};
width = 1171;
},
{
layerId = "74807A0F-D47B-485E-A88B-DED3F6679B72";
shapes = (
{
closed = 1;
nodes = (
(1052,723,l),
(1052,760,l),
(114,1200,l),
(114,1147,l),
(980,741,l),
(114,336,l),
(114,283,l),
(114,283,l)
);
}
);
width = 1171;
}
);
note = greater;
unicode = 62;
},
{
glyphname = question;
lastChange = "2025-05-02 13:15:02 +0000";
layers = (
{
layerId = m01;
shapes = (
{
closed = 1;
nodes = (
(526,516,l),
(526,567,ls),
(526,611.667,o),
(572,669.667,o),
(664,741,cs),
(802,851.667,o),
(871,977.333,o),
(871,1118,cs),
(871,1361.333,o),
(732,1483,o),
(454,1483,cs),
(337.333,1483,o),
(186,1435.667,o),
(0,1341,c),
(121,1069,l),
(251,1140.333,o),
(354,1176,o),
(430,1176,cs),
(510,1176,o),
(550,1145.667,o),
(550,1085,cs),
(550,1030.333,o),
(505.667,968.333,o),
(417,899,cs),
(311,812.333,o),
(258,713.333,o),
(258,602,cs),
(258,516,l),
(258,516,l)
);
},
{
closed = 1;
nodes = (
(502.667,-25,o),
(585,32.667,o),
(585,166,cs),
(585,307.333,o),
(502.667,358,o),
(404,358,cs),
(302.667,358,o),
(220,307.333,o),
(220,166,cs),
(220,32.667,o),
(302.667,-25,o),
(404,-25,cs)
);
}
);
width = 888;
},
{
layerId = "A52C9687-8F69-441E-A346-B6B4B01C4528";
shapes = (
{
closed = 1;
nodes = (
(430,412,l),
(430,446,ls),
(430,561.333,o),
(484.333,657,o),
(593,733,cs),
(754.333,843.667,o),
(835,974,o),
(835,1124,cs),
(835,1363.333,o),
(699,1483,o),
(427,1483,cs),
(321,1483,o),
(186.667,1449.333,o),
(24,1382,c),
(87,1239,l),
(225.667,1296.333,o),
(335,1325,o),
(415,1325,cs),
(580.333,1325,o),
(663,1256.667,o),
(663,1120,cs),
(663,1010.667,o),
(594.667,909,o),
(458,815,cs),
(343.333,735.667,o),
(286,619.667,o),
(286,467,cs),
(286,412,l),
(286,412,l)
);
},
{
closed = 1;
nodes = (
(434,-29,o),
(491,12.333,o),
(491,111,cs),
(491,211,o),
(434,248,o),
(366,248,cs),
(292.667,248,o),
(239,211,o),
(239,111,cs),
(239,12.333,o),
(292.667,-29,o),
(366,-29,cs)
);
}
);
width = 888;
},
{
layerId = "74807A0F-D47B-485E-A88B-DED3F6679B72";
shapes = (
{
closed = 1;
nodes = (
(365,356,l),
(365,381,ls),
(365,536.333,o),
(415,648.333,o),
(515,717,cs),
(695,841.667,o),
(785,981,o),
(785,1135,cs),
(785,1367,o),
(658,1483,o),
(404,1483,cs),
(309.333,1483,o),
(207,1460.333,o),
(97,1415,c),
(117,1362,l),
(229,1408.667,o),
(324.667,1432,o),
(404,1432,cs),
(621.333,1432,o),
(730,1333,o),
(730,1135,cs),
(730,996.333,o),
(649.333,871.333,o),
(488,760,cs),
(372,680,o),
(314,553.667,o),
(314,381,cs),
(314,356,l),
(314,356,l)
);
},
{
closed = 1;
nodes = (
(392.333,-16,o),
(398,11,o),
(398,47,cs),
(398,80.333,o),
(392.333,111,o),
(343,111,cs),
(301.667,111,o),
(292,80.333,o),
(292,47,cs),
(292,11,o),
(301.667,-16,o),
(343,-16,cs)
);
}
);
width = 888;
}
);
note = question;
unicode = 63;
},
{
glyphname = at;
lastChange = "2025-05-02 13:15:02 +0000";
layers = (
{
layerId = m01;
shapes = (
{
closed = 1;
nodes = (
(1090,-154,o),
(1256.667,-122.333,o),
(1412,-59,c),
(1412,170,l),
(1258,106,o),
(1086.667,74,o),
(898,74,cs),
(534.667,74,o),
(353,251.333,o),
(353,606,cs),
(353,1040,o),
(559.333,1257,o),
(972,1257,cs),
(1317.333,1257,o),
(1490,1090.667,o),
(1490,758,cs),
(1490,553.333,o),
(1451,451,o),
(1373,451,cs),
(1337.667,451,o),
(1322,511,o),
(1326,631,cs),
(1347,1053,l),
(1236.333,1093.667,o),
(1117.333,1114,o),
(990,1114,cs),
(648.667,1114,o),
(478,955.667,o),
(478,639,cs),
(478,368.333,o),
(604.333,233,o),
(857,233,cs),
(993,233,o),
(1109.667,362.333,o),
(1207,621,c),
(1075,696,l),
(1011.667,532.667,o),
(950.667,451,o),
(892,451,cs),
(803.333,451,o),
(759,514.333,o),
(759,641,cs),
(759,810.333,o),
(837.333,895,o),
(994,895,cs),
(1027.333,895,o),
(1050,893,o),
(1062,889,c),
(1052,653,ls),
(1038.667,373,o),
(1146.333,233,o),
(1375,233,cs),
(1627.667,233,o),
(1754,407.333,o),
(1754,756,cs),
(1754,1239.333,o),
(1492,1481,o),
(968,1481,cs),
(376.667,1481,o),
(81,1190.667,o),
(81,610,cs),
(81,100.667,o),
(358,-154,o),
(912,-154,cs)
);
}
);
width = 1841;
},
{
layerId = "A52C9687-8F69-441E-A346-B6B4B01C4528";
shapes = (
{
closed = 1;
nodes = (
(1041.333,-182,o),
(1188,-154,o),
(1326,-98,c),
(1326,41,l),
(1182.667,-17.667,o),
(1036,-47,o),
(886,-47,cs),
(472,-47,o),
(265,162,o),
(265,580,cs),
(265,1078,o),
(505.333,1327,o),
(986,1327,cs),
(1380.667,1327,o),
(1578,1129,o),
(1578,733,cs),
(1578,477.667,o),
(1512,350,o),
(1380,350,cs),
(1288,350,o),
(1246.333,433.333,o),
(1255,600,cs),
(1275,1016,l),
(1183.667,1048.667,o),
(1079.333,1065,o),
(962,1065,cs),
(672.667,1065,o),
(528,911.333,o),
(528,604,cs),
(528,350,o),
(636.333,223,o),
(853,223,cs),
(999,223,o),
(1116,338.333,o),
(1204,569,c),
(1112,616,l),
(1046,438.667,o),
(968.667,350,o),
(880,350,cs),
(751.333,350,o),
(687,433.333,o),
(687,600,cs),
(687,824,o),
(779.333,936,o),
(964,936,cs),
(1026,936,o),
(1076.333,929,o),
(1115,915,c),
(1100,609,ls),
(1086.667,351.667,o),
(1175.667,223,o),
(1367,223,cs),
(1603.667,223,o),
(1722,392.333,o),
(1722,731,cs),
(1722,1218.333,o),
(1476.667,1462,o),
(986,1462,cs),
(407.333,1462,o),
(118,1165.667,o),
(118,573,cs),
(118,69.667,o),
(374,-182,o),
(886,-182,cs)
);
}
);
width = 1841;
},
{
layerId = "74807A0F-D47B-485E-A88B-DED3F6679B72";
shapes = (
{
closed = 1;
nodes = (
(1028.333,-205,o),
(1166.333,-179,o),
(1291,-127,c),
(1291,-70,l),
(1150.333,-126,o),
(1012.333,-154,o),
(877,-154,cs),
(419.667,-154,o),
(191,91.333,o),
(191,582,cs),
(191,1124,o),
(456,1395,o),
(986,1395,cs),
(1439.333,1395,o),
(1666,1169.667,o),
(1666,719,cs),
(1666,419.667,o),
(1578,270,o),
(1402,270,cs),
(1280.667,270,o),
(1226,396,o),
(1238,648,cs),
(1254,995,l),
(1180,1022.333,o),
(1092.667,1036,o),
(992,1036,cs),
(702.667,1036,o),
(558,884.667,o),
(558,582,cs),
(558,340,o),
(662.333,219,o),
(871,219,cs),
(1044.333,219,o),
(1166.333,312.667,o),
(1237,500,c),
(1190,516,l),
(1127.333,352,o),
(1021,270,o),
(871,270,cs),
(699,270,o),
(613,374,o),
(613,582,cs),
(613,850.667,o),
(739.333,985,o),
(992,985,cs),
(1071.333,985,o),
(1141,974.667,o),
(1201,954,c),
(1185,647,ls),
(1170.333,361.667,o),
(1242.667,219,o),
(1402,219,cs),
(1614.667,219,o),
(1721,385.667,o),
(1721,719,cs),
(1721,1203.667,o),
(1476,1446,o),
(986,1446,cs),
(419.333,1446,o),
(136,1158,o),
(136,582,cs),
(136,57.333,o),
(383,-205,o),
(877,-205,cs)
);
}
);
width = 1841;
}
);
note = at;
unicode = 64;
},
{
glyphname = A;
lastChange = "2025-05-02 13:15:02 +0000";
layers = (
{
layerId = m01;
shapes = (
{
closed = 1;
nodes = (
(379,0,l),
(570,838,ls),
(578,869.333,o),
(604.333,999,o),
(649,1227,c),
(697.667,993.667,o),
(725.333,864,o),
(732,838,cs),
(922,0,l),
(1299,0,l),
(877,1468,l),
(417,1468,l),
(0,0,l),
(0,0,l)
);
},
{
closed = 1;
nodes = (
(936,274,l),
(936,598,l),
(371,598,l),
(371,274,l),
(371,274,l)
);
}
);
width = 1308;
},
{
layerId = "A52C9687-8F69-441E-A346-B6B4B01C4528";
shapes = (
{
closed = 1;
nodes = (
(186,0,l),
(588,1059,ls),
(596,1082.333,o),
(617,1155.333,o),
(651,1278,c),
(693.667,1142.667,o),
(717,1069.667,o),
(721,1059,cs),
(1116,0,l),
(1307,0,l),
(737,1468,l),
(571,1468,l),
(0,0,l),
(0,0,l)
);
},
{
closed = 1;
nodes = (
(981,453,l),
(981,616,l),
(332,616,l),
(332,453,l),
(332,453,l)
);
}
);
width = 1308;
},
{
layerId = "74807A0F-D47B-485E-A88B-DED3F6679B72";
shapes = (
{
closed = 1;
nodes = (
(117,0,l),
(592,1214,ls),
(628,1306,o),
(650.667,1367,o),
(660,1397,c),
(674,1358.333,o),
(696,1298.333,o),
(726,1217,cs),
(1184,0,l),
(1242,0,l),
(689,1466,l),
(638,1466,l),
(60,0,l),
(60,0,l)
);
},
{
closed = 1;
nodes = (
(991,555,l),
(991,606,l),
(317,606,l),
(317,555,l),
(317,555,l)
);
}
);
width = 1308;
}
);
note = A;
unicode = 65;
},
{
glyphname = B;
lastChange = "2025-05-02 13:15:02 +0000";
layers = (
{
layerId = m01;
shapes = (
{
closed = 1;
nodes = (
(680,0,ls),
(1068.667,0,o),
(1263,142.667,o),
(1263,428,cs),
(1263,627.333,o),
(1177,740,o),
(1005,766,c),
(1005,776,l),
(1158.333,804,o),
(1235,911.333,o),
(1235,1098,cs),
(1235,1340.667,o),
(1040.667,1462,o),
(652,1462,cs),
(137,1462,l),
(137,0,l),
(137,0,l)
);
},
{
closed = 1;
nodes = (
(532,612,l),
(680,612,ls),
(797.333,612,o),
(856,561.667,o),
(856,461,cs),
(856,357,o),
(797.333,305,o),
(680,305,cs),
(532,305,l),
(532,305,l)
);
},
{
closed = 1;
nodes = (
(532,1163,l),
(652,1163,ls),
(770,1163,o),
(829,1122,o),
(829,1040,cs),
(829,947.333,o),
(770,901,o),
(652,901,cs),
(532,901,l),
(532,901,l)
);
}
);
width = 1331;
},
{
layerId = "A52C9687-8F69-441E-A346-B6B4B01C4528";
shapes = (
{
closed = 1;
nodes = (
(653,0,ls),
(1031,0,o),
(1220,138.667,o),
(1220,416,cs),
(1220,617.333,o),
(1110.667,734,o),
(892,766,c),
(892,776,l),
(1078,809.333,o),
(1171,917.333,o),
(1171,1100,cs),
(1171,1341.333,o),
(987.333,1462,o),
(620,1462,cs),
(198,1462,l),
(198,0,l),
(198,0,l)
);
},
{
closed = 1;
nodes = (
(382,686,l),
(653,686,ls),
(899.667,686,o),
(1023,600.667,o),
(1023,430,cs),
(1023,247.333,o),
(899.667,156,o),
(653,156,cs),
(382,156,l),
(382,156,l)
);
},
{
closed = 1;
nodes = (
(382,1305,l),
(620,1305,ls),
(860,1305,o),
(980,1229.667,o),
(980,1079,cs),
(980,919.667,o),
(871,840,o),
(653,840,cs),
(382,840,l),
(382,840,l)
);
}
);
width = 1331;
},
{
layerId = "74807A0F-D47B-485E-A88B-DED3F6679B72";
shapes = (
{
closed = 1;
nodes = (
(650,0,ls),
(996.667,0,o),
(1170,138.667,o),
(1170,416,cs),
(1170,618,o),
(1061.333,735.333,o),
(844,768,c),
(844,772,l),
(1036.667,807.333,o),
(1133,920,o),
(1133,1110,cs),
(1133,1344.667,o),
(972,1462,o),
(650,1462,cs),
(240,1462,l),
(240,0,l),
(240,0,l)
);
},
{
closed = 1;
nodes = (
(293,743,l),
(650,743,ls),
(959.333,743,o),
(1114,633.333,o),
(1114,414,cs),
(1114,172,o),
(959.333,51,o),
(650,51,cs),
(293,51,l),
(293,51,l)
);
},
{
closed = 1;
nodes = (
(293,1411,l),
(650,1411,ls),
(935.333,1411,o),
(1078,1310,o),
(1078,1108,cs),
(1078,899.333,o),
(935.333,795,o),
(650,795,cs),
(293,795,l),
(293,795,l)
);
}
);
width = 1331;
}
);
note = B;
unicode = 66;
},
{
glyphname = C;
lastChange = "2025-05-02 13:15:02 +0000";
layers = (
{
layerId = m01;
shapes = (
{
closed = 1;
nodes = (
(906,-20,o),
(1044,7,o),
(1182,61,c),
(1182,395,l),
(1032.667,333.667,o),
(909,303,o),
(811,303,cs),
(597,303,o),
(490,443.667,o),
(490,725,cs),
(490,1014.333,o),
(589.667,1159,o),
(789,1159,cs),
(883.667,1159,o),
(995.333,1129,o),
(1124,1069,c),
(1245,1380,l),
(1095.667,1448.667,o),
(945,1483,o),
(793,1483,cs),
(320.333,1483,o),
(84,1231,o),
(84,727,cs),
(84,229,o),
(312,-20,o),
(768,-20,cs)
);
}
);
width = 1294;
},
{
layerId = "A52C9687-8F69-441E-A346-B6B4B01C4528";
shapes = (
{
closed = 1;
nodes = (
(926.667,-20,o),
(1052.333,-0.333,o),
(1173,39,c),
(1173,199,l),
(1052.333,160.333,o),
(935.333,141,o),
(822,141,cs),
(486.667,141,o),
(319,337.667,o),
(319,731,cs),
(319,1124.333,o),
(487.333,1321,o),
(824,1321,cs),
(930,1321,o),
(1040.667,1294.333,o),
(1156,1241,c),
(1230,1397,l),
(1104,1454.333,o),
(969.333,1483,o),
(826,1483,cs),
(358,1483,o),
(124,1233,o),
(124,733,cs),
(124,231,o),
(348,-20,o),
(796,-20,cs)
);
}
);
width = 1294;
},
{
layerId = "74807A0F-D47B-485E-A88B-DED3F6679B72";
shapes = (
{
closed = 1;
nodes = (
(937.667,-20,o),
(1063,1,o),
(1167,43,c),
(1167,90,l),
(1068.333,50.667,o),
(943,31,o),
(791,31,cs),
(386.333,31,o),
(184,266.333,o),
(184,737,cs),
(184,1200.333,o),
(399,1432,o),
(829,1432,cs),
(951.667,1432,o),
(1066.333,1406.667,o),
(1173,1356,c),
(1194,1407,l),
(1083.333,1457.667,o),
(961.667,1483,o),
(829,1483,cs),
(362.333,1483,o),
(129,1234.333,o),
(129,737,cs),
(129,232.333,o),
(349.667,-20,o),
(791,-20,cs)
);
}
);
width = 1294;
}
);
note = C;
unicode = 67;
},
{
glyphname = D;
lastChange = "2025-05-02 13:15:02 +0000";
layers = (
{
layerId = m01;
shapes = (
{
closed = 1;
nodes = (
(655,0,ls),
(1143.667,0,o),
(1388,243.667,o),
(1388,731,cs),
(1388,1218.333,o),
(1143.667,1462,o),
(655,1462,cs),
(147,1462,l),
(147,0,l),
(147,0,l)
);
},
{
closed = 1;
nodes = (
(542,1143,l),
(657,1143,ls),
(871,1143,o),
(978,1006.667,o),
(978,734,cs),
(978,460.667,o),
(870.333,324,o),
(655,324,cs),
(542,324,l),
(542,324,l)
);
}
);
width = 1495;
},
{
layerId = "A52C9687-8F69-441E-A346-B6B4B01C4528";
shapes = (
{
closed = 1;
nodes = (
(640,0,ls),
(1126,0,o),
(1369,243.667,o),
(1369,731,cs),
(1369,1218.333,o),
(1126,1462,o),
(640,1462,cs),
(198,1462,l),
(198,0,l),
(198,0,l)
);
},
{
closed = 1;
nodes = (
(382,1305,l),
(640,1305,ls),
(996.667,1305,o),
(1175,1114,o),
(1175,732,cs),
(1175,349.333,o),
(996.667,158,o),
(640,158,cs),
(382,158,l),
(382,158,l)
);
}
);
width = 1495;
},
{
layerId = "74807A0F-D47B-485E-A88B-DED3F6679B72";
shapes = (
{
closed = 1;
nodes = (
(590,0,ls),
(1073.333,0,o),
(1315,243.667,o),
(1315,731,cs),
(1315,1218.333,o),
(1073.333,1462,o),
(590,1462,cs),
(240,1462,l),
(240,0,l),
(240,0,l)
);
},
{
closed = 1;
nodes = (
(293,1411,l),
(590,1411,ls),
(1036.667,1411,o),
(1260,1184.333,o),
(1260,731,cs),
(1260,277.667,o),
(1036.667,51,o),
(590,51,cs),
(293,51,l),
(293,51,l)
);
}
);
width = 1495;
}
);
note = D;
unicode = 68;
},
{
glyphname = E;
lastChange = "2025-05-02 13:15:02 +0000";
layers = (
{
layerId = m01;
shapes = (
{
closed = 1;
nodes = (
(1025,0,l),
(1025,322,l),
(552,322,l),
(552,598,l),
(991,598,l),
(991,915,l),
(552,915,l),
(552,1145,l),
(1025,1145,l),
(1025,1462,l),
(157,1462,l),
(157,0,l),
(157,0,l)
);
}
);
width = 1138;
},
{
layerId = "A52C9687-8F69-441E-A346-B6B4B01C4528";
shapes = (
{
closed = 1;
nodes = (
(1015,0,l),
(1015,162,l),
(382,162,l),
(382,684,l),
(978,684,l),
(978,844,l),
(382,844,l),
(382,1300,l),
(1015,1300,l),
(1015,1462,l),
(198,1462,l),
(198,0,l),
(198,0,l)
);
}
);
width = 1138;
},
{
layerId = "74807A0F-D47B-485E-A88B-DED3F6679B72";
shapes = (
{
closed = 1;
nodes = (
(998,0,l),
(998,51,l),
(263,51,l),
(263,745,l),
(958,745,l),
(958,797,l),
(263,797,l),
(263,1411,l),
(998,1411,l),
(998,1462,l),
(210,1462,l),
(210,0,l),
(210,0,l)
);
}
);
width = 1138;
}
);
note = E;
unicode = 69;
},
{
glyphname = F;
lastChange = "2025-05-02 13:15:02 +0000";
layers = (
{
layerId = m01;
shapes = (
{
closed = 1;
nodes = (
(546,0,l),
(546,549,l),
(984,549,l),
(984,866,l),
(546,866,l),
(546,1145,l),
(1021,1145,l),
(1021,1462,l),
(157,1462,l),
(157,0,l),
(157,0,l)
);
}
);
width = 1062;
},
{
layerId = "A52C9687-8F69-441E-A346-B6B4B01C4528";
shapes = (
{
closed = 1;
nodes = (
(382,0,l),
(382,621,l),
(976,621,l),
(976,782,l),
(382,782,l),
(382,1300,l),
(1015,1300,l),
(1015,1462,l),
(198,1462,l),
(198,0,l),
(198,0,l)
);
}
);
width = 1062;
},
{
layerId = "74807A0F-D47B-485E-A88B-DED3F6679B72";
shapes = (
{
closed = 1;
nodes = (
(263,0,l),
(263,674,l),
(962,674,l),
(962,725,l),
(263,725,l),
(263,1411,l),
(1001,1411,l),
(1001,1462,l),
(210,1462,l),
(210,0,l),
(210,0,l)
);
}
);
width = 1062;
}
);
note = F;
unicode = 70;
},
{
glyphname = G;
lastChange = "2025-05-02 13:15:02 +0000";
layers = (
{
layerId = m01;
shapes = (
{
closed = 1;
nodes = (
(1063.667,-20,o),
(1252,9.333,o),
(1376,68,c),
(1376,856,l),
(745,856,l),
(745,551,l),
(1005,551,l),
(1005,322,l),
(980.333,310.667,o),
(926.333,305,o),
(843,305,cs),
(622.333,305,o),
(512,445,o),
(512,725,cs),
(512,1014.333,o),
(632.667,1159,o),
(874,1159,cs),
(998,1159,o),
(1113.333,1133,o),
(1220,1081,c),
(1345,1391,l),
(1217.667,1452.333,o),
(1060,1483,o),
(872,1483,cs),
(360,1483,o),
(104,1233.667,o),
(104,735,cs),
(104,231.667,o),
(339.667,-20,o),
(811,-20,cs)
);
}
);
width = 1490;
},
{
layerId = "A52C9687-8F69-441E-A346-B6B4B01C4528";
shapes = (
{
closed = 1;
nodes = (
(1060,-20,o),
(1231.333,5,o),
(1338,55,c),
(1338,772,l),
(833,772,l),
(833,608,l),
(1154,608,l),
(1154,174,l),
(1105.333,150.667,o),
(1009.667,139,o),
(867,139,cs),
(500.333,139,o),
(317,336.333,o),
(317,731,cs),
(317,1124.333,o),
(502,1321,o),
(872,1321,cs),
(1008,1321,o),
(1133.333,1293,o),
(1248,1237,c),
(1318,1397,l),
(1200.667,1454.333,o),
(1055.333,1483,o),
(882,1483,cs),
(376.667,1483,o),
(124,1232.333,o),
(124,731,cs),
(124,230.333,o),
(357.333,-20,o),
(824,-20,cs)
);
}
);
width = 1490;
},
{
layerId = "74807A0F-D47B-485E-A88B-DED3F6679B72";
shapes = (
{
closed = 1;
nodes = (
(1065.333,-20,o),
(1217,11.333,o),
(1349,74,c),
(1349,717,l),
(792,717,l),
(792,666,l),
(1295,666,l),
(1295,102,l),
(1196.333,54.667,o),
(1064,31,o),
(898,31,cs),
(448.667,31,o),
(224,263.667,o),
(224,729,cs),
(224,1200.333,o),
(451.333,1436,o),
(906,1436,cs),
(1052,1436,o),
(1186,1406,o),
(1308,1346,c),
(1332,1397,l),
(1209.333,1457,o),
(1068,1487,o),
(908,1487,cs),
(415.333,1487,o),
(169,1233.667,o),
(169,727,cs),
(169,229,o),
(410.667,-20,o),
(894,-20,cs)
);
}
);
width = 1490;
}
);
note = G;
unicode = 71;
},
{
glyphname = H;
lastChange = "2025-05-02 13:15:02 +0000";
layers = (
{
layerId = m01;
shapes = (
{
closed = 1;
nodes = (
(534,0,l),
(534,596,l),
(993,596,l),
(993,0,l),
(1390,0,l),
(1390,1462,l),
(993,1462,l),
(993,920,l),
(534,920,l),
(534,1462,l),
(137,1462,l),
(137,0,l),
(137,0,l)
);
}
);
width = 1517;
},
{
layerId = "A52C9687-8F69-441E-A346-B6B4B01C4528";
shapes = (
{
closed = 1;
nodes = (
(382,0,l),
(382,682,l),
(1132,682,l),
(1132,0,l),
(1316,0,l),
(1316,1462,l),
(1132,1462,l),
(1132,844,l),
(382,844,l),
(382,1462,l),
(198,1462,l),
(198,0,l),
(198,0,l)
);
}
);
width = 1517;
},
{
layerId = "74807A0F-D47B-485E-A88B-DED3F6679B72";
shapes = (
{
closed = 1;
nodes = (
(293,0,l),
(293,743,l),
(1211,743,l),
(1211,0,l),
(1264,0,l),
(1264,1462,l),
(1211,1462,l),
(1211,795,l),
(293,795,l),
(293,1462,l),
(240,1462,l),
(240,0,l),
(240,0,l)
);
}
);
width = 1517;
}
);
note = H;
unicode = 72;
},
{
glyphname = I;
lastChange = "2025-05-02 13:15:02 +0000";
layers = (
{
layerId = m01;
shapes = (
{
closed = 1;
nodes = (
(671,0,l),
(671,225,l),
(518,295,l),
(518,1169,l),
(671,1237,l),
(671,1462,l),
(29,1462,l),
(29,1237,l),
(182,1169,l),
(182,295,l),
(29,225,l),
(29,0,l),
(29,0,l)
);
}
);
width = 694;
},
{
layerId = "A52C9687-8F69-441E-A346-B6B4B01C4528";
shapes = (
{
closed = 1;
nodes = (
(609,0,l),
(609,106,l),
(437,145,l),
(437,1315,l),
(609,1356,l),
(609,1462,l),
(81,1462,l),
(81,1356,l),
(253,1315,l),
(253,145,l),
(81,106,l),
(81,0,l),
(81,0,l)
);
}
);
width = 694;
},
{
layerId = "74807A0F-D47B-485E-A88B-DED3F6679B72";
shapes = (
{
closed = 1;
nodes = (
(516,0,l),
(516,41,l),
(377,47,l),
(377,1413,l),
(516,1421,l),
(516,1462,l),
(184,1462,l),
(184,1421,l),
(323,1413,l),
(323,47,l),
(184,41,l),
(184,0,l),
(184,0,l)
);
}
);
width = 694;
}
);
note = I;
unicode = 73;
},
{
glyphname = J;
lastChange = "2025-05-02 13:15:02 +0000";
layers = (
{
layerId = m01;
shapes = (
{
closed = 1;
nodes = (
(330.667,-459,o),
(504,-258.333,o),
(504,143,cs),
(504,1462,l),
(107,1462,l),
(107,109,ls),
(107,-65,o),
(46,-152,o),
(-76,-152,cs),
(-125.333,-152,o),
(-173.667,-145,o),
(-221,-131,c),
(-221,-438,l),
(-171,-452,o),
(-102.667,-459,o),
(-16,-459,cs)
);
}
);
width = 559;
},
{
layerId = "A52C9687-8F69-441E-A346-B6B4B01C4528";
shapes = (
{
closed = 1;
nodes = (
(246.333,-389,o),
(373,-251.667,o),
(373,23,cs),
(373,1462,l),
(189,1462,l),
(189,8,ls),
(189,-148.667,o),
(122,-227,o),
(-12,-227,cs),
(-66,-227,o),
(-115,-220.333,o),
(-159,-207,c),
(-159,-362,l),
(-99,-380,o),
(-48.333,-389,o),
(-7,-389,cs)
);
}
);
width = 559;
},
{
layerId = "74807A0F-D47B-485E-A88B-DED3F6679B72";
shapes = (
{
closed = 1;
nodes = (
(238,-356,o),
(341,-236,o),
(341,4,cs),
(341,1462,l),
(288,1462,l),
(288,10,ls),
(288,-198.667,o),
(202.667,-303,o),
(32,-303,cs),
(-10.667,-303,o),
(-64.667,-293.333,o),
(-130,-274,c),
(-130,-332,l),
(-76,-348,o),
(-22,-356,o),
(32,-356,cs)
);
}
);
width = 559;
}
);
note = J;
unicode = 74;
},
{
glyphname = K;
lastChange = "2025-05-02 13:15:02 +0000";
layers = (
{
layerId = m01;
shapes = (
{
closed = 1;
nodes = (
(508,0,l),
(508,489,l),
(611,559,l),
(867,0,l),
(1261,0,l),
(861,807,l),
(1268,1462,l),
(886,1462,l),
(615,1014,ls),
(596.333,985.333,o),
(560.667,923,o),
(508,827,c),
(508,1462,l),
(157,1462,l),
(157,0,l),
(157,0,l)
);
}
);
width = 1267;
},
{
layerId = "A52C9687-8F69-441E-A346-B6B4B01C4528";
shapes = (
{
closed = 1;
nodes = (
(382,0,l),
(382,567,l),
(532,698,l),
(1050,0,l),
(1267,0,l),
(665,825,l),
(1245,1462,l),
(1029,1462,l),
(634,1020,ls),
(592,973.333,o),
(508,880.333,o),
(382,741,c),
(382,1462,l),
(198,1462,l),
(198,0,l),
(198,0,l)
);
}
);
width = 1267;
},
{
layerId = "74807A0F-D47B-485E-A88B-DED3F6679B72";
shapes = (
{
closed = 1;
nodes = (
(283,0,l),
(283,600,l),
(498,815,l),
(1092,0,l),
(1162,0,l),
(539,854,l),
(1150,1462,l),
(1072,1462,l),
(386,770,ls),
(368,750.667,o),
(333.667,715.333,o),
(283,664,c),
(283,1462,l),
(230,1462,l),
(230,0,l),
(230,0,l)
);
}
);
width = 1267;
}
);
note = K;
unicode = 75;
},
{
glyphname = L;
lastChange = "2025-05-02 13:15:02 +0000";
layers = (
{
layerId = m01;
shapes = (
{
closed = 1;
nodes = (
(1055,0,l),
(1055,319,l),
(542,319,l),
(542,1462,l),
(157,1462,l),
(157,0,l),
(157,0,l)
);
}
);
width = 1073;
},
{
layerId = "A52C9687-8F69-441E-A346-B6B4B01C4528";
shapes = (
{
closed = 1;
nodes = (
(1021,0,l),
(1021,164,l),
(382,164,l),
(382,1462,l),
(198,1462,l),
(198,0,l),
(198,0,l)
);
}
);
width = 1073;
},
{
layerId = "74807A0F-D47B-485E-A88B-DED3F6679B72";
shapes = (
{
closed = 1;
nodes = (
(994,0,l),
(994,51,l),
(263,51,l),
(263,1462,l),
(210,1462,l),
(210,0,l),
(210,0,l)
);
}
);
width = 1073;
}
);
note = L;
unicode = 76;
},
{
glyphname = M;
lastChange = "2025-05-02 13:15:02 +0000";
layers = (
{
layerId = m01;
shapes = (
{
closed = 1;
nodes = (
(457,0,l),
(457,635,ls),
(457,684.333,o),
(450.333,823.667,o),
(437,1053,c),
(445,1053,l),
(744,0,l),
(1121,0,l),
(1416,1051,l),
(1424,1051,l),
(1414.667,823,o),
(1410,686.333,o),
(1410,641,cs),
(1410,0,l),
(1772,0,l),
(1772,1462,l),
(1246,1462,l),
(947,424,l),
(938,424,l),
(633,1462,l),
(107,1462,l),
(107,0,l),
(107,0,l)
);
}
);
width = 1857;
},
{
layerId = "A52C9687-8F69-441E-A346-B6B4B01C4528";
shapes = (
{
closed = 1;
nodes = (
(368,0,l),
(368,887,ls),
(368,965,o),
(363.333,1096.667,o),
(354,1282,c),
(362,1282,l),
(843,0,l),
(995,0,l),
(1482,1280,l),
(1490,1280,l),
(1480.667,1097.333,o),
(1476,970.333,o),
(1476,899,cs),
(1476,0,l),
(1658,0,l),
(1658,1462,l),
(1388,1462,l),
(929,264,l),
(921,264,l),
(470,1462,l),
(198,1462,l),
(198,0,l),
(198,0,l)
);
}
);
width = 1857;
},
{
layerId = "74807A0F-D47B-485E-A88B-DED3F6679B72";
shapes = (
{
closed = 1;
nodes = (
(343,0,l),
(343,1221,ls),
(343,1251,o),
(342.333,1307.667,o),
(341,1391,c),
(345,1391,l),
(915,0,l),
(956,0,l),
(1525,1389,l),
(1529,1389,l),
(1527.667,1305.667,o),
(1527,1253.667,o),
(1527,1233,cs),
(1527,0,l),
(1580,0,l),
(1580,1462,l),
(1498,1462,l),
(939,98,l),
(933,98,l),
(376,1462,l),
(290,1462,l),
(290,0,l),
(290,0,l)
);
}
);
width = 1857;
}
);
note = M;
unicode = 77;
},
{
glyphname = N;
lastChange = "2025-05-02 13:15:02 +0000";
layers = (
{
layerId = m01;
shapes = (
{
closed = 1;
nodes = (
(447,0,l),
(447,659,ls),
(447,696.333,o),
(441,820,o),
(429,1030,c),
(437,1030,l),
(971,0,l),
(1490,0,l),
(1490,1462,l),
(1137,1462,l),
(1137,801,ls),
(1137,767,o),
(1142,648.667,o),
(1152,446,c),
(1146,446,l),
(613,1462,l),
(97,1462,l),
(97,0,l),
(97,0,l)
);
}
);
width = 1556;
},
{
layerId = "A52C9687-8F69-441E-A346-B6B4B01C4528";
shapes = (
{
closed = 1;
nodes = (
(368,0,l),
(368,817,ls),
(368,892.333,o),
(362.667,1024.667,o),
(352,1214,c),
(360,1214,l),
(1142,0,l),
(1357,0,l),
(1357,1462,l),
(1185,1462,l),
(1185,637,ls),
(1185,591.667,o),
(1189.667,463.333,o),
(1199,252,c),
(1191,252,l),
(411,1462,l),
(198,1462,l),
(198,0,l),
(198,0,l)
);
}
);
width = 1556;
},
{
layerId = "74807A0F-D47B-485E-A88B-DED3F6679B72";
shapes = (
{
closed = 1;
nodes = (
(323,0,l),
(323,1028,ls),
(323,1082.667,o),
(322.333,1187,o),
(321,1341,c),
(325,1341,l),
(1237,0,l),
(1276,0,l),
(1276,1462,l),
(1222,1462,l),
(1222,432,ls),
(1222,384,o),
(1222.667,281.667,o),
(1224,125,c),
(1220,125,l),
(311,1462,l),
(270,1462,l),
(270,0,l),
(270,0,l)
);
}
);
width = 1556;
}
);
note = N;
unicode = 78;
},
{
glyphname = O;
lastChange = "2025-05-02 13:15:02 +0000";
layers = (
{
layerId = m01;
shapes = (
{
closed = 1;
nodes = (
(1278.333,-20,o),
(1515,231,o),
(1515,733,cs),
(1515,1234.333,o),
(1278.333,1485,o),
(805,1485,cs),
(331,1485,o),
(94,1234.333,o),
(94,733,cs),
(94,231,o),
(331,-20,o),
(805,-20,cs)
);
},
{
closed = 1;
nodes = (
(608.333,307,o),
(510,449,o),
(510,733,cs),
(510,1017,o),
(608.333,1159,o),
(805,1159,cs),
(1001.667,1159,o),
(1100,1017,o),
(1100,733,cs),
(1100,449,o),
(1001.667,307,o),
(805,307,cs)
);
}
);
width = 1599;
},
{
layerId = "A52C9687-8F69-441E-A346-B6B4B01C4528";
shapes = (
{
closed = 1;
nodes = (
(1249,-20,o),
(1474,231,o),
(1474,733,cs),
(1474,1234.333,o),
(1249,1485,o),
(799,1485,cs),
(349,1485,o),
(124,1234.333,o),
(124,733,cs),
(124,231,o),
(349,-20,o),
(799,-20,cs)
);
},
{
closed = 1;
nodes = (
(479,141,o),
(319,338.333,o),
(319,733,cs),
(319,1127.667,o),
(479,1325,o),
(799,1325,cs),
(1119,1325,o),
(1279,1127.667,o),
(1279,733,cs),
(1279,338.333,o),
(1119,141,o),
(799,141,cs)
);
}
);
width = 1599;
},
{
layerId = "74807A0F-D47B-485E-A88B-DED3F6679B72";
shapes = (
{
closed = 1;
nodes = (
(1229,-20,o),
(1443,231,o),
(1443,733,cs),
(1443,1234.333,o),
(1229,1485,o),
(801,1485,cs),
(373,1485,o),
(159,1234.333,o),
(159,733,cs),
(159,231,o),
(373,-20,o),
(801,-20,cs)
);
},
{
closed = 1;
nodes = (
(409.667,31,o),
(214,265,o),
(214,733,cs),
(214,1200.333,o),
(409.667,1434,o),
(801,1434,cs),
(1192.333,1434,o),
(1388,1200.333,o),
(1388,733,cs),
(1388,265,o),
(1192.333,31,o),
(801,31,cs)
);
}
);
width = 1599;
}
);
note = O;
unicode = 79;
},
{
glyphname = P;
lastChange = "2025-05-02 13:15:02 +0000";
layers = (
{
layerId = m01;
shapes = (
{
closed = 1;
nodes = (
(532,0,l),
(532,485,l),
(640,485,ls),
(1012,485,o),
(1198,648,o),
(1198,974,cs),
(1198,1299.333,o),
(1012,1462,o),
(640,1462,cs),
(137,1462,l),
(137,0,l),
(137,0,l)
);
},
{
closed = 1;
nodes = (
(532,1143,l),
(640,1143,ls),
(748.667,1143,o),
(803,1087,o),
(803,975,cs),
(803,863,o),
(748.667,807,o),
(640,807,cs),
(532,807,l),
(532,807,l)
);
}
);
width = 1239;
},
{
layerId = "A52C9687-8F69-441E-A346-B6B4B01C4528";
shapes = (
{
closed = 1;
nodes = (
(382,0,l),
(382,569,l),
(570,569,ls),
(946,569,o),
(1134,718,o),
(1134,1016,cs),
(1134,1313.333,o),
(946,1462,o),
(570,1462,cs),
(198,1462,l),
(198,0,l),
(198,0,l)
);
},
{
closed = 1;
nodes = (
(382,1305,l),
(570,1305,ls),
(818.667,1305,o),
(943,1208.667,o),
(943,1016,cs),
(943,823.333,o),
(818.667,727,o),
(570,727,cs),
(382,727,l),
(382,727,l)
);
}
);
width = 1239;
},
{
layerId = "74807A0F-D47B-485E-A88B-DED3F6679B72";
shapes = (
{
closed = 1;
nodes = (
(293,0,l),
(293,625,l),
(580,625,ls),
(917.333,625,o),
(1086,764.667,o),
(1086,1044,cs),
(1086,1322.667,o),
(917.333,1462,o),
(580,1462,cs),
(240,1462,l),
(240,0,l),
(240,0,l)
);
},
{
closed = 1;
nodes = (
(293,1411,l),
(580,1411,ls),
(880.667,1411,o),
(1031,1288.667,o),
(1031,1044,cs),
(1031,798.667,o),
(880.667,676,o),
(580,676,cs),
(293,676,l),
(293,676,l)
);
}
);
width = 1239;
}
);
note = P;
unicode = 80;
},
{
glyphname = Q;
lastChange = "2025-05-02 13:15:02 +0000";
layers = (
{
layerId = m01;
shapes = (
{
closed = 1;
nodes = (
(1278.333,-20,o),
(1515,231,o),
(1515,733,cs),
(1515,1234.333,o),
(1278.333,1485,o),
(805,1485,cs),
(331,1485,o),
(94,1234.333,o),
(94,733,cs),
(94,231,o),
(331,-20,o),
(805,-20,cs)
);
},
{
closed = 1;
nodes = (
(1556,-348,l),
(1150,123,l),
(769,40,l),
(1065,-348,l),
(1065,-348,l)
);
},
{
closed = 1;
nodes = (
(608.333,307,o),
(510,449,o),
(510,733,cs),
(510,1017,o),
(608.333,1159,o),
(805,1159,cs),
(1001.667,1159,o),
(1100,1017,o),
(1100,733,cs),
(1100,449,o),
(1001.667,307,o),
(805,307,cs)
);
}
);
width = 1599;
},
{
layerId = "A52C9687-8F69-441E-A346-B6B4B01C4528";
shapes = (
{
closed = 1;
nodes = (
(1249,-20,o),
(1474,231,o),
(1474,733,cs),
(1474,1234.333,o),
(1249,1485,o),
(799,1485,cs),
(349,1485,o),
(124,1234.333,o),
(124,733,cs),
(124,231,o),
(349,-20,o),
(799,-20,cs)
);
},
{
closed = 1;
nodes = (
(1398,-348,l),
(1018,57,l),
(821,23,l),
(1134,-348,l),
(1134,-348,l)
);
},
{
closed = 1;
nodes = (
(479,141,o),
(319,338.333,o),
(319,733,cs),
(319,1127.667,o),
(479,1325,o),
(799,1325,cs),
(1119,1325,o),
(1279,1127.667,o),
(1279,733,cs),
(1279,338.333,o),
(1119,141,o),
(799,141,cs)
);
}
);
width = 1599;
},
{
layerId = "74807A0F-D47B-485E-A88B-DED3F6679B72";
shapes = (
{
closed = 1;
nodes = (
(1239,-20,o),
(1453,231,o),
(1453,733,cs),
(1453,1234.333,o),
(1239,1485,o),
(811,1485,cs),
(383,1485,o),
(169,1234.333,o),
(169,733,cs),
(169,231,o),
(383,-20,o),
(811,-20,cs)
);
},
{
closed = 1;
nodes = (
(1238,-348,l),
(933,7,l),
(872,-1,l),
(1164,-348,l),
(1164,-348,l)
);
},
{
closed = 1;
nodes = (
(419.667,31,o),
(224,265,o),
(224,733,cs),
(224,1200.333,o),
(419.667,1434,o),
(811,1434,cs),
(1202.333,1434,o),
(1398,1200.333,o),
(1398,733,cs),
(1398,265,o),
(1202.333,31,o),
(811,31,cs)
);
}
);
width = 1599;
}
);
note = Q;
unicode = 81;
},
{
glyphname = R;
lastChange = "2025-05-02 13:15:02 +0000";
layers = (
{
layerId = m01;
shapes = (
{
closed = 1;
nodes = (
(510,0,l),
(510,485,l),
(607,485,ls),
(939,485,o),
(1105,648,o),
(1105,974,cs),
(1105,1299.333,o),
(939,1462,o),
(607,1462,cs),
(157,1462,l),
(157,0,l),
(157,0,l)
);
},
{
closed = 1;
nodes = (
(1277,0,l),
(896,637,l),
(600,532,l),
(877,0,l),
(877,0,l)
);
},
{
closed = 1;
nodes = (
(510,1143,l),
(607,1143,ls),
(703.667,1143,o),
(752,1087,o),
(752,975,cs),
(752,863,o),
(703.667,807,o),
(607,807,cs),
(510,807,l),
(510,807,l)
);
}
);
width = 1273;
},
{
layerId = "A52C9687-8F69-441E-A346-B6B4B01C4528";
shapes = (
{
closed = 1;
nodes = (
(382,0,l),
(382,569,l),
(570,569,ls),
(946,569,o),
(1134,718,o),
(1134,1016,cs),
(1134,1313.333,o),
(946,1462,o),
(570,1462,cs),
(198,1462,l),
(198,0,l),
(198,0,l)
);
},
{
closed = 1;
nodes = (
(1242,0,l),
(841,655,l),
(673,604,l),
(1027,0,l),
(1027,0,l)
);
},
{
closed = 1;
nodes = (
(382,1305,l),
(570,1305,ls),
(818.667,1305,o),
(943,1208.667,o),
(943,1016,cs),
(943,823.333,o),
(818.667,727,o),
(570,727,cs),
(382,727,l),
(382,727,l)
);
}
);
width = 1273;
},
{
layerId = "74807A0F-D47B-485E-A88B-DED3F6679B72";
shapes = (
{
closed = 1;
nodes = (
(283,0,l),
(283,625,l),
(570,625,ls),
(907.333,625,o),
(1076,764.667,o),
(1076,1044,cs),
(1076,1322.667,o),
(907.333,1462,o),
(570,1462,cs),
(230,1462,l),
(230,0,l),
(230,0,l)
);
},
{
closed = 1;
nodes = (
(1148,0,l),
(739,680,l),
(682,665,l),
(1080,0,l),
(1080,0,l)
);
},
{
closed = 1;
nodes = (
(283,1411,l),
(570,1411,ls),
(870.667,1411,o),
(1021,1288.667,o),
(1021,1044,cs),
(1021,798.667,o),
(870.667,676,o),
(570,676,cs),
(283,676,l),
(283,676,l)
);
}
);
width = 1273;
}
);
note = R;
unicode = 82;
},
{
glyphname = S;
lastChange = "2025-05-02 13:15:02 +0000";
layers = (
{
layerId = m01;
shapes = (
{
closed = 1;
nodes = (
(893,-20,o),
(1084,134.667,o),
(1084,444,cs),
(1084,659.333,o),
(972,802,o),
(748,872,cs),
(556.667,934.667,o),
(461,1001.667,o),
(461,1073,cs),
(461,1135.667,o),
(510.333,1167,o),
(609,1167,cs),
(701,1167,o),
(819,1135.667,o),
(963,1073,c),
(1084,1378,l),
(922.667,1448,o),
(768.333,1483,o),
(621,1483,cs),
(253.667,1483,o),
(70,1340.333,o),
(70,1055,cs),
(70,829.667,o),
(188.333,678.667,o),
(425,602,cs),
(601,546,o),
(689,482,o),
(689,410,cs),
(689,337.333,o),
(632.333,301,o),
(519,301,cs),
(464.333,301,o),
(311.333,342,o),
(60,424,c),
(60,72,l),
(252,10.667,o),
(402.333,-20,o),
(511,-20,cs)
);
}
);
width = 1124;
},
{
layerId = "A52C9687-8F69-441E-A346-B6B4B01C4528";
shapes = (
{
closed = 1;
nodes = (
(853.667,-20,o),
(1028,117,o),
(1028,391,cs),
(1028,587.667,o),
(894.667,728.333,o),
(628,813,cs),
(415.333,880.333,o),
(309,978.667,o),
(309,1108,cs),
(309,1250,o),
(401,1321,o),
(585,1321,cs),
(697.667,1321,o),
(814.333,1295,o),
(935,1243,c),
(993,1401,l),
(863.667,1455.667,o),
(729,1483,o),
(589,1483,cs),
(277.667,1483,o),
(122,1358.667,o),
(122,1110,cs),
(122,900,o),
(247.667,755.333,o),
(499,676,cs),
(728.333,602.667,o),
(843,502.333,o),
(843,375,cs),
(843,217.667,o),
(733.333,139,o),
(514,139,cs),
(422.667,139,o),
(286,167.667,o),
(104,225,c),
(104,49,l),
(254,3,o),
(387.667,-20,o),
(505,-20,cs)
);
}
);
width = 1124;
},
{
layerId = "74807A0F-D47B-485E-A88B-DED3F6679B72";
shapes = (
{
closed = 1;
nodes = (
(847.667,-20,o),
(1011,109.667,o),
(1011,369,cs),
(1011,543.667,o),
(866.333,676.667,o),
(577,768,cs),
(323,848,o),
(196,964.667,o),
(196,1118,cs),
(196,1327.333,o),
(331,1432,o),
(601,1432,cs),
(723,1432,o),
(839.667,1408,o),
(951,1360,c),
(974,1407,l),
(856.667,1457.667,o),
(733.667,1483,o),
(605,1483,cs),
(295,1483,o),
(140,1360,o),
(140,1114,cs),
(140,937.333,o),
(276,806.333,o),
(548,721,cs),
(819.333,635,o),
(955,518.333,o),
(955,371,cs),
(955,144.333,o),
(811.667,31,o),
(525,31,cs),
(401.667,31,o),
(268,53.333,o),
(124,98,c),
(124,39,l),
(250,-0.333,o),
(382.333,-20,o),
(521,-20,cs)
);
}
);
width = 1124;
}
);
note = S;
unicode = 83;
},
{
glyphname = T;
lastChange = "2025-05-02 13:15:02 +0000";
layers = (
{
layerId = m01;
shapes = (
{
closed = 1;
nodes = (
(773,0,l),
(773,1139,l),
(1129,1139,l),
(1129,1462,l),
(21,1462,l),
(21,1139,l),
(377,1139,l),
(377,0,l),
(377,0,l)
);
}
);
width = 1138;
},
{
layerId = "A52C9687-8F69-441E-A346-B6B4B01C4528";
shapes = (
{
closed = 1;
nodes = (
(661,0,l),
(661,1300,l),
(1116,1300,l),
(1116,1462,l),
(20,1462,l),
(20,1300,l),
(477,1300,l),
(477,0,l),
(477,0,l)
);
}
);
userData = {
assembly = "NPUSHB[ ]	/* 24 values pushed */
2 1 0 0 3 95 0 3 3 31 77 0 1 1 32 1 78 17 17 17 16 4 8 26
CALL[ ]	/* CallFunction */";
};
width = 1138;
},
{
layerId = "74807A0F-D47B-485E-A88B-DED3F6679B72";
shapes = (
{
closed = 1;
nodes = (
(603,0,l),
(603,1411,l),
(1090,1411,l),
(1090,1462,l),
(64,1462,l),
(64,1411,l),
(549,1411,l),
(549,0,l),
(549,0,l)
);
}
);
width = 1138;
}
);
note = T;
unicode = 84;
},
{
glyphname = U;
lastChange = "2025-05-02 13:15:02 +0000";
layers = (
{
layerId = m01;
shapes = (
{
closed = 1;
nodes = (
(1171.667,-20,o),
(1380,177.667,o),
(1380,573,cs),
(1380,1462,l),
(985,1462,l),
(985,573,ls),
(985,397,o),
(908.667,309,o),
(756,309,cs),
(602.667,309,o),
(526,397,o),
(526,573,cs),
(526,1462,l),
(129,1462,l),
(129,573,ls),
(129,177.667,o),
(337.667,-20,o),
(755,-20,cs)
);
}
);
width = 1497;
},
{
layerId = "A52C9687-8F69-441E-A346-B6B4B01C4528";
shapes = (
{
closed = 1;
nodes = (
(1122.667,-20,o),
(1310,160,o),
(1310,520,cs),
(1310,1462,l),
(1128,1462,l),
(1128,520,ls),
(1128,266,o),
(1001.333,139,o),
(748,139,cs),
(494.667,139,o),
(368,266,o),
(368,520,cs),
(368,1462,l),
(184,1462,l),
(184,520,ls),
(184,160,o),
(372,-20,o),
(748,-20,cs)
);
}
);
width = 1497;
},
{
layerId = "74807A0F-D47B-485E-A88B-DED3F6679B72";
shapes = (
{
closed = 1;
nodes = (
(1106.667,-20,o),
(1285,160,o),
(1285,520,cs),
(1285,1462,l),
(1232,1462,l),
(1232,520,ls),
(1232,194,o),
(1071.333,31,o),
(750,31,cs),
(428,31,o),
(267,194,o),
(267,520,cs),
(267,1462,l),
(214,1462,l),
(214,520,ls),
(214,160,o),
(392.667,-20,o),
(750,-20,cs)
);
}
);
width = 1497;
}
);
note = U;
unicode = 85;
},
{
glyphname = V;
lastChange = "2025-05-02 13:15:02 +0000";
layers = (
{
layerId = m01;
shapes = (
{
closed = 1;
nodes = (
(811,0,l),
(1224,1462,l),
(843,1462,l),
(668,717,ls),
(661.333,689.667,o),
(642.667,576.333,o),
(612,377,c),
(578.667,579,o),
(559.333,693.667,o),
(554,721,cs),
(382,1462,l),
(0,1462,l),
(411,0,l),
(411,0,l)
);
}
);
width = 1228;
},
{
layerId = "A52C9687-8F69-441E-A346-B6B4B01C4528";
shapes = (
{
closed = 1;
nodes = (
(707,0,l),
(1229,1462,l),
(1034,1462,l),
(707,528,ls),
(685,466.667,o),
(654,359,o),
(614,205,c),
(574.667,357.667,o),
(544,464,o),
(522,524,cs),
(193,1462,l),
(0,1462,l),
(522,0,l),
(522,0,l)
);
}
);
width = 1228;
},
{
layerId = "74807A0F-D47B-485E-A88B-DED3F6679B72";
shapes = (
{
closed = 1;
nodes = (
(642,0,l),
(1193,1462,l),
(1136,1462,l),
(695,293,ls),
(677.667,246.333,o),
(652,174,o),
(618,76,c),
(579.333,180.667,o),
(553.333,253,o),
(540,293,c),
(97,1462,l),
(40,1462,l),
(591,0,l),
(591,0,l)
);
}
);
width = 1228;
}
);
note = V;
unicode = 86;
},
{
glyphname = W;
lastChange = "2025-05-02 13:15:02 +0000";
layers = (
{
layerId = m01;
shapes = (
{
closed = 1;
nodes = (
(762,0,l),
(891,637,ls),
(904.333,706.333,o),
(924,825.667,o),
(950,995,c),
(976,825.667,o),
(995.333,706.333,o),
(1008,637,cs),
(1134,0,l),
(1558,0,l),
(1885,1462,l),
(1540,1462,l),
(1393,727,ls),
(1388.333,702.333,o),
(1366.667,574,o),
(1328,342,c),
(1286.667,597.333,o),
(1253.667,786.333,o),
(1229,909,cs),
(1116,1462,l),
(783,1462,l),
(666,909,ls),
(641.333,786.333,o),
(608.333,597.333,o),
(567,342,c),
(526.333,582,o),
(504.333,711,o),
(501,729,cs),
(356,1462,l),
(10,1462,l),
(339,0,l),
(339,0,l)
);
}
);
width = 1904;
},
{
layerId = "A52C9687-8F69-441E-A346-B6B4B01C4528";
shapes = (
{
closed = 1;
nodes = (
(597,0,l),
(874,952,ls),
(892,1015.333,o),
(915.333,1113.667,o),
(944,1247,c),
(980.667,1093,o),
(1005,996.667,o),
(1017,958,cs),
(1302,0,l),
(1488,0,l),
(1877,1462,l),
(1685,1462,l),
(1460,571,ls),
(1443.333,507,o),
(1419.333,390.333,o),
(1388,221,c),
(1354,393,o),
(1327.333,510.333,o),
(1308,573,cs),
(1040,1462,l),
(849,1462,l),
(591,580,ls),
(573.667,519.333,o),
(547.667,399.667,o),
(513,221,c),
(483,390.333,o),
(460,506.333,o),
(444,569,cs),
(217,1462,l),
(24,1462,l),
(411,0,l),
(411,0,l)
);
}
);
width = 1904;
},
{
layerId = "74807A0F-D47B-485E-A88B-DED3F6679B72";
shapes = (
{
closed = 1;
nodes = (
(596,0,l),
(929,1237,ls),
(936.333,1260.333,o),
(947.333,1308.667,o),
(962,1382,c),
(985.333,1293.333,o),
(1002.333,1230,o),
(1013,1192,cs),
(1343,0,l),
(1392,0,l),
(1798,1462,l),
(1742,1462,l),
(1427,344,ls),
(1411.667,290.667,o),
(1392,208.667,o),
(1368,98,c),
(1340.667,208.667,o),
(1319.333,290.667,o),
(1304,344,cs),
(991,1462,l),
(940,1462,l),
(634,350,ls),
(619.333,299.333,o),
(598.333,218,o),
(571,106,c),
(541,216.667,o),
(519,297.333,o),
(505,348,cs),
(202,1462,l),
(147,1462,l),
(546,0,l),
(546,0,l)
);
}
);
width = 1904;
}
);
note = W;
unicode = 87;
},
{
glyphname = X;
lastChange = "2025-05-02 13:15:02 +0000";
layers = (
{
layerId = m01;
shapes = (
{
closed = 1;
nodes = (
(1196,0,l),
(369,1462,l),
(8,1462,l),
(820,0,l),
(820,0,l)
);
},
{
closed = 1;
nodes = (
(377,0,l),
(1196,1462,l),
(823,1462,l),
(8,0,l),
(8,0,l)
);
}
);
width = 1200;
},
{
layerId = "A52C9687-8F69-441E-A346-B6B4B01C4528";
shapes = (
{
closed = 1;
nodes = (
(1192,0,l),
(244,1462,l),
(39,1462,l),
(983,0,l),
(983,0,l)
);
},
{
closed = 1;
nodes = (
(203,0,l),
(1157,1462,l),
(962,1462,l),
(8,0,l),
(8,0,l)
);
}
);
width = 1200;
},
{
layerId = "74807A0F-D47B-485E-A88B-DED3F6679B72";
shapes = (
{
closed = 1;
nodes = (
(1099,0,l),
(159,1462,l),
(95,1462,l),
(1035,0,l),
(1035,0,l)
);
},
{
closed = 1;
nodes = (
(158,0,l),
(1113,1462,l),
(1049,1462,l),
(95,0,l),
(95,0,l)
);
}
);
width = 1200;
}
);
note = X;
unicode = 88;
},
{
glyphname = Y;
lastChange = "2025-05-02 13:15:02 +0000";
layers = (
{
layerId = m01;
shapes = (
{
closed = 1;
nodes = (
(754,0,l),
(754,571,l),
(1167,1462,l),
(800,1462,l),
(584,920,l),
(369,1462,l),
(0,1462,l),
(413,559,l),
(413,0,l),
(413,0,l)
);
}
);
width = 1159;
},
{
layerId = "A52C9687-8F69-441E-A346-B6B4B01C4528";
shapes = (
{
closed = 1;
nodes = (
(672,0,l),
(672,567,l),
(1159,1462,l),
(961,1462,l),
(580,743,l),
(201,1462,l),
(0,1462,l),
(487,559,l),
(487,0,l),
(487,0,l)
);
}
);
width = 1159;
},
{
layerId = "74807A0F-D47B-485E-A88B-DED3F6679B72";
shapes = (
{
closed = 1;
nodes = (
(607,0,l),
(607,563,l),
(1094,1462,l),
(1033,1462,l),
(578,616,l),
(121,1462,l),
(60,1462,l),
(554,555,l),
(554,0,l),
(554,0,l)
);
}
);
width = 1159;
}
);
note = Y;
unicode = 89;
},
{
glyphname = Z;
lastChange = "2025-05-02 13:15:02 +0000";
layers = (
{
layerId = m01;
shapes = (
{
closed = 1;
nodes = (
(1160,0,l),
(1160,319,l),
(510,319,l),
(1143,1219,l),
(1143,1462,l),
(35,1462,l),
(35,1143,l),
(654,1143,l),
(21,244,l),
(21,0,l),
(21,0,l)
);
}
);
width = 1171;
},
{
layerId = "A52C9687-8F69-441E-A346-B6B4B01C4528";
shapes = (
{
closed = 1;
nodes = (
(1091,0,l),
(1091,164,l),
(300,164,l),
(1070,1323,l),
(1070,1462,l),
(102,1462,l),
(102,1298,l),
(847,1298,l),
(77,139,l),
(77,0,l),
(77,0,l)
);
}
);
width = 1171;
},
{
layerId = "74807A0F-D47B-485E-A88B-DED3F6679B72";
shapes = (
{
closed = 1;
nodes = (
(1101,0,l),
(1101,51,l),
(149,51,l),
(1077,1425,l),
(1077,1462,l),
(130,1462,l),
(130,1411,l),
(1001,1411,l),
(73,37,l),
(73,0,l),
(73,0,l)
);
}
);
width = 1171;
}
);
note = Z;
unicode = 90;
},
{
glyphname = bracketleft;
lastChange = "2025-05-02 13:15:02 +0000";
layers = (
{
layerId = m01;
shapes = (
{
closed = 1;
nodes = (
(616,-344,l),
(616,-90,l),
(433,-90,l),
(433,1249,l),
(616,1249,l),
(616,1503,l),
(116,1503,l),
(116,-344,l),
(116,-344,l)
);
}
);
width = 673;
},
{
layerId = "A52C9687-8F69-441E-A346-B6B4B01C4528";
shapes = (
{
closed = 1;
nodes = (
(622,-324,l),
(622,-176,l),
(339,-176,l),
(339,1315,l),
(622,1315,l),
(622,1462,l),
(163,1462,l),
(163,-324,l),
(163,-324,l)
);
}
);
width = 673;
},
{
layerId = "74807A0F-D47B-485E-A88B-DED3F6679B72";
shapes = (
{
closed = 1;
nodes = (
(590,-324,l),
(590,-272,l),
(231,-272,l),
(231,1411,l),
(590,1411,l),
(590,1462,l),
(180,1462,l),
(180,-324,l),
(180,-324,l)
);
}
);
width = 673;
}
);
note = bracketleft;
unicode = 91;
},
{
glyphname = backslash;
lastChange = "2025-05-02 13:15:02 +0000";
layers = (
{
layerId = m01;
shapes = (
{
closed = 1;
nodes = (
(765,-20,l),
(301,1483,l),
(6,1483,l),
(470,-20,l),
(470,-20,l)
);
}
);
width = 761;
},
{
layerId = "A52C9687-8F69-441E-A346-B6B4B01C4528";
shapes = (
{
closed = 1;
nodes = (
(743,0,l),
(196,1462,l),
(20,1462,l),
(565,0,l),
(565,0,l)
);
}
);
width = 761;
},
{
layerId = "74807A0F-D47B-485E-A88B-DED3F6679B72";
shapes = (
{
closed = 1;
nodes = (
(682,0,l),
(133,1462,l),
(76,1462,l),
(625,0,l),
(625,0,l)
);
}
);
width = 761;
}
);
note = backslash;
unicode = 92;
},
{
glyphname = bracketright;
lastChange = "2025-05-02 13:15:02 +0000";
layers = (
{
layerId = m01;
shapes = (
{
closed = 1;
nodes = (
(547,-344,l),
(547,1503,l),
(47,1503,l),
(47,1249,l),
(229,1249,l),
(229,-90,l),
(47,-90,l),
(47,-344,l),
(47,-344,l)
);
}
);
width = 673;
},
{
layerId = "A52C9687-8F69-441E-A346-B6B4B01C4528";
shapes = (
{
closed = 1;
nodes = (
(510,-324,l),
(510,1462,l),
(51,1462,l),
(51,1315,l),
(334,1315,l),
(334,-176,l),
(51,-176,l),
(51,-324,l),
(51,-324,l)
);
}
);
width = 673;
},
{
layerId = "74807A0F-D47B-485E-A88B-DED3F6679B72";
shapes = (
{
closed = 1;
nodes = (
(461,-324,l),
(461,1462,l),
(51,1462,l),
(51,1411,l),
(409,1411,l),
(409,-272,l),
(51,-272,l),
(51,-324,l),
(51,-324,l)
);
}
);
width = 673;
}
);
note = bracketright;
unicode = 93;
},
{
glyphname = asciicircum;
lastChange = "2025-05-02 13:15:02 +0000";
layers = (
{
layerId = m01;
shapes = (
{
closed = 1;
nodes = (
(321,502,l),
(569,1079,l),
(857,502,l),
(1152,502,l),
(644,1468,l),
(474,1468,l),
(34,502,l),
(34,502,l)
);
}
);
width = 1171;
},
{
layerId = "A52C9687-8F69-441E-A346-B6B4B01C4528";
shapes = (
{
closed = 1;
nodes = (
(237,547,l),
(564,1282,l),
(933,547,l),
(1093,547,l),
(614,1473,l),
(511,1473,l),
(77,547,l),
(77,547,l)
);
}
);
width = 1171;
},
{
layerId = "74807A0F-D47B-485E-A88B-DED3F6679B72";
shapes = (
{
closed = 1;
nodes = (
(163,569,l),
(608,1405,l),
(1024,569,l),
(1083,569,l),
(634,1473,l),
(587,1473,l),
(104,569,l),
(104,569,l)
);
}
);
width = 1171;
}
);
note = asciicircum;
unicode = 94;
},
{
glyphname = underscore;
lastChange = "2025-05-02 13:15:02 +0000";
layers = (
{
layerId = m01;
shapes = (
{
closed = 1;
nodes = (
(908,-379,l),
(908,-133,l),
(-4,-133,l),
(-4,-379,l),
(-4,-379,l)
);
}
);
width = 909;
},
{
layerId = "A52C9687-8F69-441E-A346-B6B4B01C4528";
shapes = (
{
closed = 1;
nodes = (
(914,-315,l),
(914,-184,l),
(-4,-184,l),
(-4,-315,l),
(-4,-315,l)
);
}
);
userData = {
assembly = "PUSHB[ ]	/* 2 values pushed */
6 100
WCVTP[ ]	/* WriteCVTInPixels */
NPUSHB[ ]	/* 21 values pushed */
0 0 1 1 0 87 0 0 0 1 95 0 1 0 1 79 17 16 2 8 24
CALL[ ]	/* CallFunction */
PUSHB[ ]	/* 2 values pushed */
6 0
WCVTP[ ]	/* WriteCVTInPixels */";
};
width = 909;
},
{
layerId = "74807A0F-D47B-485E-A88B-DED3F6679B72";
shapes = (
{
closed = 1;
nodes = (
(865,-238,l),
(865,-186,l),
(56,-186,l),
(56,-238,l),
(56,-238,l)
);
}
);
width = 909;
}
);
note = underscore;
unicode = 95;
},
{
glyphname = grave;
lastChange = "2025-05-02 13:15:02 +0000";
layers = (
{
layerId = m01;
shapes = (
{
closed = 1;
nodes = (
(570,1241,l),
(570,1270,l),
(515.379,1347.729,o),
(432.588,1455.554,o),
(362,1569,c),
(21,1569,l),
(21,1548,l),
(59.667,1510.667,o),
(320,1277,o),
(364,1241,c)
);
}
);
width = 575;
},
{
layerId = "A52C9687-8F69-441E-A346-B6B4B01C4528";
shapes = (
{
closed = 1;
nodes = (
(493,1241,l),
(493,1266,l),
(418.262,1355.203,o),
(340.032,1482.85,o),
(296,1569,c),
(81,1569,l),
(81,1548,l),
(114.333,1498.667,o),
(309.333,1290.333,o),
(372,1241,c)
);
}
);
width = 575;
},
{
layerId = "74807A0F-D47B-485E-A88B-DED3F6679B72";
shapes = (
{
closed = 1;
nodes = (
(467,1241,l),
(467,1253,l),
(382.535,1326.683,o),
(235.634,1485.776,o),
(182,1569,c),
(121,1569,l),
(121,1554,l),
(191.667,1462,o),
(314.667,1331.667,o),
(424,1241,c)
);
}
);
width = 575;
}
);
note = grave;
unicode = 96;
},
{
glyphname = a;
lastChange = "2025-05-02 13:15:02 +0000";
layers = (
{
layerId = m01;
shapes = (
{
closed = 1;
nodes = (
(270,793,l),
(395.333,849,o),
(500.667,877,o),
(586,877,cs),
(678.667,877,o),
(725,832.333,o),
(725,743,cs),
(725,721,l),
(535,711,ls),
(207,691,o),
(43,569.333,o),
(43,346,cs),
(43,102,o),
(157.667,-20,o),
(387,-20,cs),
(587,-20,o),
(740.667,105.667,o),
(848,357,c),
(745,429,l),
(694.333,313.667,o),
(630.333,256,o),
(553,256,cs),
(477.667,256,o),
(440,293.667,o),
(440,369,cs),
(440,449.667,o),
(505,494,o),
(635,502,cs),
(725,506,l),
(725,233,l),
(844,0,l),
(1114,0,l),
(1114,743,ls),
(1114,1016.333,o),
(961.667,1153,o),
(657,1153,cs),
(475,1153,o),
(308.667,1119,o),
(158,1051,c)
);
}
);
width = 1148;
},
{
layerId = "A52C9687-8F69-441E-A346-B6B4B01C4528";
shapes = (
{
closed = 1;
nodes = (
(270,887,l),
(392,943,o),
(495,971,o),
(579,971,cs),
(731,971,o),
(807,896.667,o),
(807,748,cs),
(807,662,l),
(620,653,ls),
(269.333,632.333,o),
(94,516.333,o),
(94,305,cs),
(94,88.333,o),
(209.333,-20,o),
(440,-20,cs),
(632,-20,o),
(784.667,107.667,o),
(898,363,c),
(828,401,l),
(747.333,217,o),
(631.667,125,o),
(481,125,cs),
(347,125,o),
(280,184.333,o),
(280,303,cs),
(280,439.667,o),
(401,515,o),
(643,529,cs),
(807,537,l),
(807,206,l),
(852,0,l),
(983,0,l),
(983,748,ls),
(983,993.333,o),
(852,1116,o),
(590,1116,cs),
(478.667,1116,o),
(353.667,1084.667,o),
(215,1022,c)
);
}
);
width = 1148;
},
{
layerId = "74807A0F-D47B-485E-A88B-DED3F6679B72";
shapes = (
{
closed = 1;
nodes = (
(277,967,l),
(400.333,1021.667,o),
(508,1049,o),
(600,1049,cs),
(788.667,1049,o),
(883,938.333,o),
(883,717,cs),
(883,614,l),
(672,602,ls),
(329.333,582,o),
(158,469.333,o),
(158,264,cs),
(158,74.667,o),
(267.333,-20,o),
(486,-20,cs),
(678.667,-20,o),
(826.667,97,o),
(930,331,c),
(892,354,l),
(796,138.667,o),
(660.667,31,o),
(486,31,cs),
(305.333,31,o),
(215,108.667,o),
(215,264,cs),
(215,438.667,o),
(368.667,535,o),
(676,553,cs),
(883,563,l),
(883,251,l),
(891,0,l),
(936,0,l),
(936,717,ls),
(936,972.333,o),
(824,1100,o),
(600,1100,cs),
(490,1100,o),
(376,1073.333,o),
(258,1020,c)
);
}
);
width = 1148;
}
);
note = a;
unicode = 97;
},
{
glyphname = b;
lastChange = "2025-05-02 13:15:02 +0000";
layers = (
{
layerId = m01;
shapes = (
{
closed = 1;
nodes = (
(1071,-20,o),
(1209,175.667,o),
(1209,567,cs),
(1209,957.667,o),
(1071,1153,o),
(795,1153,cs),
(615.667,1153,o),
(450.667,1014,o),
(300,736,c),
(453,625,l),
(525.667,767,o),
(597.333,838,o),
(668,838,cs),
(763.333,838,o),
(811,747.667,o),
(811,567,cs),
(811,385.667,o),
(763.333,295,o),
(668,295,cs),
(597.333,295,o),
(525.667,366,o),
(453,508,c),
(300,397,l),
(450.667,119,o),
(615.667,-20,o),
(795,-20,cs)
);
},
{
closed = 1;
nodes = (
(420,0,l),
(506,154,l),
(506,1556,l),
(115,1556,l),
(115,0,l),
(115,0,l)
);
}
);
width = 1259;
},
{
layerId = "A52C9687-8F69-441E-A346-B6B4B01C4528";
shapes = (
{
closed = 1;
nodes = (
(1002.667,-20,o),
(1147,169.667,o),
(1147,549,cs),
(1147,928.333,o),
(1002.667,1118,o),
(714,1118,cs),
(544.667,1118,o),
(386,1002.667,o),
(238,772,c),
(331,708,l),
(445.667,882,o),
(564.667,969,o),
(688,969,cs),
(869.333,969,o),
(960,829,o),
(960,549,cs),
(960,269,o),
(869.333,129,o),
(688,129,cs),
(564.667,129,o),
(445.667,216,o),
(331,390,c),
(238,326,l),
(386,95.333,o),
(544.667,-20,o),
(714,-20,cs)
);
},
{
closed = 1;
nodes = (
(303,0,l),
(354,189,l),
(354,1556,l),
(174,1556,l),
(174,0,l),
(174,0,l)
);
}
);
width = 1259;
},
{
layerId = "74807A0F-D47B-485E-A88B-DED3F6679B72";
shapes = (
{
closed = 1;
nodes = (
(950,-20,o),
(1103,167.333,o),
(1103,542,cs),
(1103,916.667,o),
(950,1104,o),
(644,1104,cs),
(484,1104,o),
(341,1005.333,o),
(215,808,c),
(255,777,l),
(378.333,961,o),
(508,1053,o),
(644,1053,cs),
(913.333,1053,o),
(1048,882.667,o),
(1048,542,cs),
(1048,201.333,o),
(913.333,31,o),
(644,31,cs),
(508,31,o),
(378.333,123,o),
(255,307,c),
(215,276,l),
(341,78.667,o),
(484,-20,o),
(644,-20,cs)
);
},
{
closed = 1;
nodes = (
(257,0,l),
(265,213,l),
(265,1556,l),
(212,1556,l),
(212,0,l),
(212,0,l)
);
}
);
width = 1259;
}
);
note = b;
unicode = 98;
},
{
glyphname = c;
lastChange = "2025-05-02 13:15:02 +0000";
layers = (
{
layerId = m01;
shapes = (
{
closed = 1;
nodes = (
(677,-20,o),
(791.333,13.333,o),
(944,80,c),
(944,391,l),
(794,324.333,o),
(690,291,o),
(632,291,cs),
(505.333,291,o),
(442,381.667,o),
(442,563,cs),
(442,751.667,o),
(504.667,846,o),
(630,846,cs),
(690,846,o),
(770.667,823.333,o),
(872,778,c),
(981,1067,l),
(853,1124.333,o),
(736,1153,o),
(630,1153,cs),
(254,1153,o),
(66,955.667,o),
(66,561,cs),
(66,173.667,o),
(244.333,-20,o),
(601,-20,cs)
);
}
);
width = 983;
},
{
layerId = "A52C9687-8F69-441E-A346-B6B4B01C4528";
shapes = (
{
closed = 1;
nodes = (
(710,-20,o),
(804,-0.333,o),
(896,39,c),
(896,199,l),
(793.333,156.333,o),
(698.667,135,o),
(612,135,cs),
(402.667,135,o),
(298,271.667,o),
(298,545,cs),
(298,822.333,o),
(406,961,o),
(622,961,cs),
(700,961,o),
(779.333,943.667,o),
(860,909,c),
(915,1059,l),
(823,1098.333,o),
(726.667,1118,o),
(626,1118,cs),
(283.333,1118,o),
(112,926.333,o),
(112,543,cs),
(112,167.667,o),
(279.333,-20,o),
(614,-20,cs)
);
}
);
width = 983;
},
{
layerId = "74807A0F-D47B-485E-A88B-DED3F6679B72";
shapes = (
{
closed = 1;
nodes = (
(718.667,-20,o),
(811.333,-2.333,o),
(896,33,c),
(896,84,l),
(811.333,48.667,o),
(718.667,31,o),
(618,31,cs),
(322.667,31,o),
(175,199,o),
(175,535,cs),
(175,879,o),
(334,1051,o),
(652,1051,cs),
(734,1051,o),
(814.667,1034.333,o),
(894,1001,c),
(904,1053,l),
(826,1085.667,o),
(742,1102,o),
(652,1102,cs),
(297.333,1102,o),
(120,913,o),
(120,535,cs),
(120,165,o),
(286,-20,o),
(618,-20,cs)
);
}
);
width = 983;
}
);
note = c;
unicode = 99;
},
{
glyphname = d;
lastChange = "2025-05-02 13:15:02 +0000";
layers = (
{
layerId = m01;
shapes = (
{
closed = 1;
nodes = (
(671.333,-20,o),
(836.333,119,o),
(987,397,c),
(834,508,l),
(761.333,366,o),
(689.667,295,o),
(619,295,cs),
(523.667,295,o),
(476,385.667,o),
(476,567,cs),
(476,747.667,o),
(523.667,838,o),
(619,838,cs),
(689.667,838,o),
(761.333,767,o),
(834,625,c),
(987,736,l),
(836.333,1014,o),
(671.333,1153,o),
(492,1153,cs),
(216,1153,o),
(78,957.667,o),
(78,567,cs),
(78,175.667,o),
(216,-20,o),
(492,-20,cs)
);
},
{
closed = 1;
nodes = (
(1172,0,l),
(1172,1556,l),
(781,1556,l),
(781,154,l),
(867,0,l),
(867,0,l)
);
}
);
width = 1259;
},
{
layerId = "A52C9687-8F69-441E-A346-B6B4B01C4528";
shapes = (
{
closed = 1;
nodes = (
(714.333,-20,o),
(873,95.333,o),
(1021,326,c),
(928,390,l),
(813.333,216,o),
(694.333,129,o),
(571,129,cs),
(389.667,129,o),
(299,269,o),
(299,549,cs),
(299,829,o),
(389.667,969,o),
(571,969,cs),
(694.333,969,o),
(813.333,882,o),
(928,708,c),
(1021,772,l),
(873,1002.667,o),
(714.333,1118,o),
(545,1118,cs),
(256.333,1118,o),
(112,928.333,o),
(112,549,cs),
(112,169.667,o),
(256.333,-20,o),
(545,-20,cs)
);
},
{
closed = 1;
nodes = (
(1085,0,l),
(1085,1556,l),
(905,1556,l),
(905,189,l),
(956,0,l),
(956,0,l)
);
}
);
width = 1259;
},
{
layerId = "74807A0F-D47B-485E-A88B-DED3F6679B72";
shapes = (
{
closed = 1;
nodes = (
(819,-20,o),
(962,78.667,o),
(1088,276,c),
(1048,307,l),
(924.667,123,o),
(795,31,o),
(659,31,cs),
(389.667,31,o),
(255,201.333,o),
(255,542,cs),
(255,882.667,o),
(389.667,1053,o),
(659,1053,cs),
(795,1053,o),
(924.667,961,o),
(1048,777,c),
(1088,808,l),
(962,1005.333,o),
(819,1104,o),
(659,1104,cs),
(353,1104,o),
(200,916.667,o),
(200,542,cs),
(200,167.333,o),
(353,-20,o),
(659,-20,cs)
);
},
{
closed = 1;
nodes = (
(1091,0,l),
(1091,1556,l),
(1038,1556,l),
(1038,213,l),
(1046,0,l),
(1046,0,l)
);
}
);
width = 1259;
}
);
note = d;
unicode = 100;
},
{
glyphname = e;
lastChange = "2025-05-02 13:15:02 +0000";
layers = (
{
layerId = m01;
shapes = (
{
closed = 1;
nodes = (
(794.667,-20,o),
(931.333,7.667,o),
(1052,63,c),
(1052,344,l),
(928.667,286.667,o),
(807,258,o),
(687,258,cs),
(527.667,258,o),
(448,363,o),
(448,573,cs),
(448,782.333,o),
(503,887,o),
(613,887,cs),
(723,887,o),
(778.667,827,o),
(780,707,c),
(288,707,l),
(288,461,l),
(1123,461,l),
(1123,635,ls),
(1123,980.333,o),
(950.667,1153,o),
(606,1153,cs),
(246,1153,o),
(66,957.667,o),
(66,567,cs),
(66,175.667,o),
(258,-20,o),
(642,-20,cs)
);
}
);
width = 1155;
},
{
layerId = "A52C9687-8F69-441E-A346-B6B4B01C4528";
shapes = (
{
closed = 1;
nodes = (
(776.667,-20,o),
(897,3.667,o),
(1001,51,c),
(1001,209,l),
(889,158.333,o),
(771.667,133,o),
(649,133,cs),
(416.333,133,o),
(300,272.667,o),
(300,552,cs),
(300,831.333,o),
(393,971,o),
(579,971,cs),
(766.333,971,o),
(860.667,866.333,o),
(862,657,c),
(223,657,l),
(223,514,l),
(1050,514,l),
(1050,623,ls),
(1050,953,o),
(893.667,1118,o),
(581,1118,cs),
(268.333,1118,o),
(112,928.333,o),
(112,549,cs),
(112,169.667,o),
(288,-20,o),
(640,-20,cs)
);
}
);
width = 1155;
},
{
layerId = "74807A0F-D47B-485E-A88B-DED3F6679B72";
shapes = (
{
closed = 1;
nodes = (
(768.333,-20,o),
(879.667,2.333,o),
(979,47,c),
(979,102,l),
(873,54.667,o),
(761.667,31,o),
(645,31,cs),
(358.333,31,o),
(215,201,o),
(215,541,cs),
(215,881,o),
(340,1051,o),
(590,1051,cs),
(840,1051,o),
(965,899.333,o),
(965,596,c),
(191,596,l),
(191,545,l),
(1020,545,l),
(1020,596,ls),
(1020,933.333,o),
(876.667,1102,o),
(590,1102,cs),
(303.333,1102,o),
(160,915,o),
(160,541,cs),
(160,167,o),
(321.667,-20,o),
(645,-20,cs)
);
}
);
width = 1155;
}
);
note = e;
unicode = 101;
},
{
glyphname = f;
lastChange = "2025-05-02 13:15:02 +0000";
layers = (
{
layerId = m01;
shapes = (
{
closed = 1;
nodes = (
(496,0,l),
(496,840,l),
(698,840,l),
(698,1133,l),
(496,1133,l),
(496,1163,ls),
(496,1241,o),
(520,1280,o),
(568,1280,cs),
(602,1280,o),
(641.333,1273.333,o),
(686,1260,c),
(756,1513,l),
(644,1549,o),
(558,1567,o),
(498,1567,cs),
(284,1567,o),
(177,1427,o),
(177,1147,cs),
(177,1128,l),
(45,1032,l),
(45,840,l),
(170,840,l),
(170,0,l),
(170,0,l)
);
}
);
width = 704;
},
{
layerId = "A52C9687-8F69-441E-A346-B6B4B01C4528";
shapes = (
{
closed = 1;
nodes = (
(403,0,l),
(403,958,l),
(679,958,l),
(679,1098,l),
(403,1098,l),
(403,1169,ls),
(403,1335.667,o),
(462.333,1419,o),
(581,1419,cs),
(615.667,1419,o),
(670.333,1409,o),
(745,1389,c),
(792,1530,l),
(695.333,1554.667,o),
(624.333,1567,o),
(579,1567,cs),
(341.667,1567,o),
(223,1433.667,o),
(223,1167,cs),
(223,1104,l),
(30,1042,l),
(30,958,l),
(223,958,l),
(223,0,l),
(223,0,l)
);
}
);
width = 704;
},
{
layerId = "74807A0F-D47B-485E-A88B-DED3F6679B72";
shapes = (
{
closed = 1;
nodes = (
(324,0,l),
(324,1030,l),
(568,1030,l),
(568,1081,l),
(324,1081,l),
(324,1235,ls),
(324,1422.333,o),
(404.667,1516,o),
(566,1516,cs),
(604,1516,o),
(657.333,1507,o),
(726,1489,c),
(734,1542,l),
(669.333,1558.667,o),
(613.333,1567,o),
(566,1567,cs),
(369.333,1567,o),
(271,1456.333,o),
(271,1235,cs),
(271,1081,l),
(62,1075,l),
(62,1030,l),
(271,1030,l),
(271,0,l),
(271,0,l)
);
}
);
width = 704;
}
);
note = f;
unicode = 102;
},
{
glyphname = g;
lastChange = "2025-05-02 13:15:02 +0000";
layers = (
{
layerId = m01;
shapes = (
{
closed = 1;
nodes = (
(980.667,-492,o),
(1182,-328.667,o),
(1182,-2,cs),
(1182,1133,l),
(844,1133,l),
(791,891,l),
(791,2,ls),
(791,-123.333,o),
(712.333,-186,o),
(555,-186,cs),
(419.667,-186,o),
(279.667,-157.333,o),
(135,-100,c),
(135,-426,l),
(244.333,-470,o),
(392,-492,o),
(578,-492,cs)
);
},
{
closed = 1;
nodes = (
(681.333,-20,o),
(846.333,119,o),
(997,397,c),
(844,508,l),
(771.333,366,o),
(699.667,295,o),
(629,295,cs),
(533.667,295,o),
(486,385.667,o),
(486,567,cs),
(486,747.667,o),
(533.667,838,o),
(629,838,cs),
(699.667,838,o),
(771.333,767,o),
(844,625,c),
(997,736,l),
(846.333,1014,o),
(681.333,1153,o),
(502,1153,cs),
(226,1153,o),
(88,957.667,o),
(88,567,cs),
(88,175.667,o),
(226,-20,o),
(502,-20,cs)
);
}
);
width = 1259;
},
{
layerId = "A52C9687-8F69-441E-A346-B6B4B01C4528";
shapes = (
{
closed = 1;
nodes = (
(921,-492,o),
(1085,-334,o),
(1085,-18,cs),
(1085,1098,l),
(941,1098,l),
(907,891,l),
(907,-18,ls),
(907,-234,o),
(806,-342,o),
(604,-342,cs),
(474.667,-342,o),
(339.333,-313.333,o),
(198,-256,c),
(198,-422,l),
(310,-468.667,o),
(441.667,-492,o),
(593,-492,cs)
);
},
{
closed = 1;
nodes = (
(714.333,-20,o),
(873,95.333,o),
(1021,326,c),
(928,390,l),
(813.333,216,o),
(694.333,129,o),
(571,129,cs),
(389.667,129,o),
(299,269,o),
(299,549,cs),
(299,829,o),
(389.667,969,o),
(571,969,cs),
(694.333,969,o),
(813.333,882,o),
(928,708,c),
(1021,772,l),
(873,1002.667,o),
(714.333,1118,o),
(545,1118,cs),
(256.333,1118,o),
(112,928.333,o),
(112,549,cs),
(112,169.667,o),
(256.333,-20,o),
(545,-20,cs)
);
}
);
width = 1259;
},
{
layerId = "74807A0F-D47B-485E-A88B-DED3F6679B72";
shapes = (
{
closed = 1;
nodes = (
(937.333,-492,o),
(1087,-345,o),
(1087,-51,cs),
(1087,1081,l),
(1042,1081,l),
(1034,895,l),
(1034,-51,ls),
(1034,-310.333,o),
(902,-440,o),
(638,-440,cs),
(524.667,-440,o),
(397.667,-411.333,o),
(257,-354,c),
(257,-416,l),
(381,-466.667,o),
(508,-492,o),
(638,-492,cs)
);
},
{
closed = 1;
nodes = (
(819,-20,o),
(961,78.667,o),
(1085,276,c),
(1048,307,l),
(924.667,123,o),
(795,31,o),
(659,31,cs),
(389.667,31,o),
(255,201.333,o),
(255,542,cs),
(255,882.667,o),
(389.667,1053,o),
(659,1053,cs),
(795,1053,o),
(924.667,961,o),
(1048,777,c),
(1085,808,l),
(961,1005.333,o),
(819,1104,o),
(659,1104,cs),
(353,1104,o),
(200,916.667,o),
(200,542,cs),
(200,167.333,o),
(353,-20,o),
(659,-20,cs)
);
}
);
width = 1259;
}
);
note = g;
unicode = 103;
},
{
glyphname = h;
lastChange = "2025-05-02 13:15:02 +0000";
layers = (
{
layerId = m01;
shapes = (
{
closed = 1;
nodes = (
(1201,0,l),
(1201,737,ls),
(1201,1014.333,o),
(1074,1153,o),
(820,1153,cs),
(653.333,1153,o),
(487.333,995.667,o),
(322,681,c),
(453,613,l),
(532.333,768.333,o),
(605.667,846,o),
(673,846,cs),
(763,846,o),
(808,770,o),
(808,618,cs),
(808,0,l),
(808,0,l)
);
},
{
closed = 1;
nodes = (
(486,0,l),
(486,1556,l),
(95,1556,l),
(95,0,l),
(95,0,l)
);
}
);
width = 1265;
},
{
layerId = "A52C9687-8F69-441E-A346-B6B4B01C4528";
shapes = (
{
closed = 1;
nodes = (
(1100,0,l),
(1100,715,ls),
(1100,982.333,o),
(969.333,1116,o),
(708,1116,cs),
(530.667,1116,o),
(376.667,991.667,o),
(246,743,c),
(336,705,l),
(429.333,879.667,o),
(542.667,967,o),
(676,967,cs),
(840,967,o),
(922,878.667,o),
(922,702,cs),
(922,0,l),
(922,0,l)
);
},
{
closed = 1;
nodes = (
(354,0,l),
(354,1556,l),
(174,1556,l),
(174,0,l),
(174,0,l)
);
}
);
width = 1265;
},
{
layerId = "74807A0F-D47B-485E-A88B-DED3F6679B72";
shapes = (
{
closed = 1;
nodes = (
(1061,0,l),
(1061,709,ls),
(1061,971,o),
(938.333,1102,o),
(693,1102,cs),
(513.667,1102,o),
(365.667,990,o),
(249,766,c),
(292,740,l),
(401.333,947.333,o),
(535,1051,o),
(693,1051,cs),
(903,1051,o),
(1008,936.333,o),
(1008,707,cs),
(1008,0,l),
(1008,0,l)
);
},
{
closed = 1;
nodes = (
(297,0,l),
(297,1556,l),
(244,1556,l),
(244,0,l),
(244,0,l)
);
}
);
width = 1265;
}
);
note = h;
unicode = 104;
},
{
glyphname = i;
lastChange = "2025-05-02 13:15:02 +0000";
layers = (
{
layerId = m01;
shapes = (
{
closed = 1;
nodes = (
(457,0,l),
(457,1133,l),
(66,1133,l),
(66,0,l),
(66,0,l)
);
},
{
closed = 1;
nodes = (
(375,1243,o),
(472,1281.667,o),
(472,1415,cs),
(472,1555,o),
(375,1589,o),
(263,1589,cs),
(148.333,1589,o),
(56,1555,o),
(56,1415,cs),
(56,1281.667,o),
(148.333,1243,o),
(263,1243,cs)
);
}
);
width = 528;
},
{
layerId = "A52C9687-8F69-441E-A346-B6B4B01C4528";
shapes = (
{
closed = 1;
nodes = (
(354,0,l),
(354,1098,l),
(173,1098,l),
(173,0,l),
(173,0,l)
);
},
{
closed = 1;
nodes = (
(319.667,1280,o),
(370,1315,o),
(370,1395,cs),
(370,1473.667,o),
(319.667,1509,o),
(265,1509,cs),
(205,1509,o),
(159,1473.667,o),
(159,1395,cs),
(159,1315,o),
(205,1280,o),
(265,1280,cs)
);
}
);
width = 528;
},
{
layerId = "74807A0F-D47B-485E-A88B-DED3F6679B72";
shapes = (
{
closed = 1;
nodes = (
(277,0,l),
(277,1081,l),
(224,1081,l),
(224,0,l),
(224,0,l)
);
},
{
closed = 1;
nodes = (
(299.333,1350,o),
(305,1377,o),
(305,1413,cs),
(305,1446.333,o),
(299.333,1477,o),
(250,1477,cs),
(208.667,1477,o),
(199,1446.333,o),
(199,1413,cs),
(199,1377,o),
(208.667,1350,o),
(250,1350,cs)
);
}
);
width = 528;
}
);
note = i;
unicode = 105;
},
{
glyphname = j;
lastChange = "2025-05-02 13:15:02 +0000";
layers = (
{
layerId = m01;
shapes = (
{
closed = 1;
nodes = (
(327,-492,o),
(467,-358.667,o),
(467,-92,cs),
(467,1133,l),
(76,1133,l),
(76,-10,ls),
(76,-123.333,o),
(36.333,-180,o),
(-43,-180,cs),
(-78.333,-180,o),
(-118.667,-174,o),
(-164,-162,c),
(-164,-467,l),
(-101.333,-483.667,o),
(-31,-492,o),
(47,-492,cs)
);
},
{
closed = 1;
nodes = (
(384,1243,o),
(481,1281.667,o),
(481,1415,cs),
(481,1555,o),
(384,1589,o),
(272,1589,cs),
(157.333,1589,o),
(65,1555,o),
(65,1415,cs),
(65,1281.667,o),
(157.333,1243,o),
(272,1243,cs)
);
}
);
width = 528;
},
{
layerId = "A52C9687-8F69-441E-A346-B6B4B01C4528";
shapes = (
{
closed = 1;
nodes = (
(252,-492,o),
(355,-382.667,o),
(355,-164,cs),
(355,1098,l),
(175,1098,l),
(175,-170,ls),
(175,-284.667,o),
(124.333,-342,o),
(23,-342,cs),
(-16.333,-342,o),
(-61.333,-335.333,o),
(-112,-322,c),
(-112,-467,l),
(-49.333,-483.667,o),
(3.333,-492,o),
(46,-492,cs)
);
},
{
closed = 1;
nodes = (
(321.667,1280,o),
(371,1315,o),
(371,1395,cs),
(371,1473.667,o),
(321.667,1509,o),
(267,1509,cs),
(207,1509,o),
(160,1473.667,o),
(160,1395,cs),
(160,1315,o),
(207,1280,o),
(267,1280,cs)
);
}
);
width = 528;
},
{
layerId = "74807A0F-D47B-485E-A88B-DED3F6679B72";
shapes = (
{
closed = 1;
nodes = (
(226.333,-492,o),
(298,-410,o),
(298,-246,cs),
(298,1081,l),
(245,1081,l),
(245,-238,ls),
(245,-372.667,o),
(191,-440,o),
(83,-440,cs),
(55.667,-440,o),
(14,-432.667,o),
(-42,-418,c),
(-42,-471,l),
(12.667,-485,o),
(54.333,-492,o),
(83,-492,cs)
);
},
{
closed = 1;
nodes = (
(320.333,1350,o),
(327,1377,o),
(327,1413,cs),
(327,1446.333,o),
(320.333,1477,o),
(271,1477,cs),
(231,1477,o),
(220,1446.333,o),
(220,1413,cs),
(220,1377,o),
(231,1350,o),
(271,1350,cs)
);
}
);
width = 528;
}
);
note = j;
unicode = 106;
},
{
glyphname = k;
lastChange = "2025-05-02 13:15:02 +0000";
layers = (
{
layerId = m01;
shapes = (
{
closed = 1;
nodes = (
(405,0,l),
(405,309,l),
(514,406,l),
(729,0,l),
(1114,0,l),
(754,651,l),
(1093,1133,l),
(717,1133,l),
(405,657,l),
(405,1556,l),
(65,1556,l),
(65,0,l),
(65,0,l)
);
}
);
width = 1112;
},
{
layerId = "A52C9687-8F69-441E-A346-B6B4B01C4528";
shapes = (
{
closed = 1;
nodes = (
(352,0,l),
(352,403,l),
(477,512,l),
(858,0,l),
(1075,0,l),
(600,629,l),
(1044,1098,l),
(833,1098,l),
(352,565,l),
(352,1556,l),
(174,1556,l),
(174,0,l),
(174,0,l)
);
}
);
width = 1112;
},
{
layerId = "74807A0F-D47B-485E-A88B-DED3F6679B72";
shapes = (
{
closed = 1;
nodes = (
(297,0,l),
(297,352,l),
(502,580,l),
(936,0,l),
(1000,0,l),
(539,616,l),
(959,1081,l),
(889,1081,l),
(297,418,l),
(297,1556,l),
(244,1556,l),
(244,0,l),
(244,0,l)
);
}
);
width = 1112;
}
);
note = k;
unicode = 107;
},
{
glyphname = l;
lastChange = "2025-05-02 13:15:02 +0000";
layers = (
{
layerId = m01;
shapes = (
{
closed = 1;
nodes = (
(466,0,l),
(466,1556,l),
(75,1556,l),
(75,0,l),
(75,0,l)
);
}
);
width = 528;
},
{
layerId = "A52C9687-8F69-441E-A346-B6B4B01C4528";
shapes = (
{
closed = 1;
nodes = (
(354,0,l),
(354,1556,l),
(174,1556,l),
(174,0,l),
(174,0,l)
);
}
);
width = 528;
},
{
layerId = "74807A0F-D47B-485E-A88B-DED3F6679B72";
shapes = (
{
closed = 1;
nodes = (
(299,0,l),
(299,1556,l),
(246,1556,l),
(246,0,l),
(246,0,l)
);
}
);
width = 528;
}
);
note = l;
unicode = 108;
},
{
glyphname = m;
lastChange = "2025-05-02 13:15:02 +0000";
layers = (
{
layerId = m01;
shapes = (
{
closed = 1;
nodes = (
(1857,0,l),
(1857,737,ls),
(1857,1014.333,o),
(1730,1153,o),
(1476,1153,cs),
(1309.333,1153,o),
(1143.333,995.667,o),
(978,681,c),
(1109,613,l),
(1188.333,768.333,o),
(1261.667,846,o),
(1329,846,cs),
(1419,846,o),
(1464,770,o),
(1464,618,cs),
(1464,0,l),
(1464,0,l)
);
},
{
closed = 1;
nodes = (
(466,0,l),
(466,953,l),
(370,1133,l),
(75,1133,l),
(75,0,l),
(75,0,l)
);
},
{
closed = 1;
nodes = (
(1160,0,l),
(1160,737,ls),
(1160,1014.333,o),
(1033,1153,o),
(779,1153,cs),
(612.333,1153,o),
(446.333,995.667,o),
(281,681,c),
(412,613,l),
(491.333,768.333,o),
(564.667,846,o),
(632,846,cs),
(722,846,o),
(767,770,o),
(767,618,cs),
(767,0,l),
(767,0,l)
);
}
);
width = 1914;
},
{
layerId = "A52C9687-8F69-441E-A346-B6B4B01C4528";
shapes = (
{
closed = 1;
nodes = (
(1749,0,l),
(1749,715,ls),
(1749,982.333,o),
(1618.333,1116,o),
(1357,1116,cs),
(1179.667,1116,o),
(1025.667,991.667,o),
(895,743,c),
(985,705,l),
(1078.333,879.667,o),
(1191.667,967,o),
(1325,967,cs),
(1489,967,o),
(1571,878.667,o),
(1571,702,cs),
(1571,0,l),
(1571,0,l)
);
},
{
closed = 1;
nodes = (
(354,0,l),
(354,948,l),
(319,1098,l),
(174,1098,l),
(174,0,l),
(174,0,l)
);
},
{
closed = 1;
nodes = (
(1051,0,l),
(1051,715,ls),
(1051,982.333,o),
(920.333,1116,o),
(659,1116,cs),
(481.667,1116,o),
(327.667,991.667,o),
(197,743,c),
(287,705,l),
(380.333,879.667,o),
(493.667,967,o),
(627,967,cs),
(791,967,o),
(873,878.667,o),
(873,702,cs),
(873,0,l),
(873,0,l)
);
}
);
width = 1914;
},
{
layerId = "74807A0F-D47B-485E-A88B-DED3F6679B72";
shapes = (
{
closed = 1;
nodes = (
(1657,0,l),
(1657,709,ls),
(1657,971,o),
(1544.333,1102,o),
(1319,1102,cs),
(1153,1102,o),
(1028.333,990,o),
(945,766,c),
(978,750,l),
(1054,950.667,o),
(1167.667,1051,o),
(1319,1051,cs),
(1509,1051,o),
(1604,936.333,o),
(1604,707,cs),
(1604,0,l),
(1604,0,l)
);
},
{
closed = 1;
nodes = (
(317,0,l),
(319,885,l),
(307,1081,l),
(264,1081,l),
(264,0,l),
(264,0,l)
);
},
{
closed = 1;
nodes = (
(987,0,l),
(987,709,ls),
(987,971,o),
(874.333,1102,o),
(649,1102,cs),
(483,1102,o),
(358.333,990,o),
(275,766,c),
(308,750,l),
(384,950.667,o),
(497.667,1051,o),
(649,1051,cs),
(839,1051,o),
(934,936.333,o),
(934,707,cs),
(934,0,l),
(934,0,l)
);
}
);
width = 1914;
}
);
note = m;
unicode = 109;
},
{
glyphname = n;
lastChange = "2025-05-02 13:15:02 +0000";
layers = (
{
layerId = m01;
shapes = (
{
closed = 1;
nodes = (
(1201,0,l),
(1201,737,ls),
(1201,1014.333,o),
(1074,1153,o),
(820,1153,cs),
(653.333,1153,o),
(487.333,995.667,o),
(322,681,c),
(453,613,l),
(532.333,768.333,o),
(605.667,846,o),
(673,846,cs),
(763,846,o),
(808,770,o),
(808,618,cs),
(808,0,l),
(808,0,l)
);
},
{
closed = 1;
nodes = (
(486,0,l),
(486,953,l),
(390,1133,l),
(95,1133,l),
(95,0,l),
(95,0,l)
);
}
);
width = 1265;
},
{
layerId = "A52C9687-8F69-441E-A346-B6B4B01C4528";
shapes = (
{
closed = 1;
nodes = (
(1100,0,l),
(1100,715,ls),
(1100,982.333,o),
(969.333,1116,o),
(708,1116,cs),
(530.667,1116,o),
(376.667,991.667,o),
(246,743,c),
(336,705,l),
(429.333,879.667,o),
(542.667,967,o),
(676,967,cs),
(840,967,o),
(922,878.667,o),
(922,702,cs),
(922,0,l),
(922,0,l)
);
},
{
closed = 1;
nodes = (
(354,0,l),
(354,918,l),
(319,1098,l),
(174,1098,l),
(174,0,l),
(174,0,l)
);
}
);
width = 1265;
},
{
layerId = "74807A0F-D47B-485E-A88B-DED3F6679B72";
shapes = (
{
closed = 1;
nodes = (
(1051,0,l),
(1051,709,ls),
(1051,971,o),
(928.333,1102,o),
(683,1102,cs),
(503.667,1102,o),
(355.667,990,o),
(239,766,c),
(282,740,l),
(391.333,947.333,o),
(525,1051,o),
(683,1051,cs),
(893,1051,o),
(998,936.333,o),
(998,707,cs),
(998,0,l),
(998,0,l)
);
},
{
closed = 1;
nodes = (
(287,0,l),
(287,854,l),
(277,1081,l),
(234,1081,l),
(234,0,l),
(234,0,l)
);
}
);
width = 1265;
}
);
note = n;
unicode = 110;
},
{
glyphname = o;
lastChange = "2025-05-02 13:15:02 +0000";
layers = (
{
layerId = m01;
shapes = (
{
closed = 1;
nodes = (
(997.667,-20,o),
(1186,175.667,o),
(1186,567,cs),
(1186,957.667,o),
(997.667,1153,o),
(621,1153,cs),
(244.333,1153,o),
(56,957.667,o),
(56,567,cs),
(56,175.667,o),
(244.333,-20,o),
(621,-20,cs)
);
},
{
closed = 1;
nodes = (
(509,270,o),
(453,368.667,o),
(453,566,cs),
(453,763.333,o),
(509,862,o),
(621,862,cs),
(733,862,o),
(789,763.333,o),
(789,566,cs),
(789,368.667,o),
(733,270,o),
(621,270,cs)
);
}
);
width = 1239;
},
{
layerId = "A52C9687-8F69-441E-A346-B6B4B01C4528";
shapes = (
{
closed = 1;
nodes = (
(958.667,-20,o),
(1128,169.667,o),
(1128,549,cs),
(1128,928.333,o),
(958.667,1118,o),
(620,1118,cs),
(281.333,1118,o),
(112,928.333,o),
(112,549,cs),
(112,169.667,o),
(281.333,-20,o),
(620,-20,cs)
);
},
{
closed = 1;
nodes = (
(405.333,129,o),
(298,268.667,o),
(298,548,cs),
(298,827.333,o),
(405.333,967,o),
(620,967,cs),
(834,967,o),
(941,827.333,o),
(941,548,cs),
(941,268.667,o),
(834,129,o),
(620,129,cs)
);
}
);
width = 1239;
},
{
layerId = "74807A0F-D47B-485E-A88B-DED3F6679B72";
shapes = (
{
closed = 1;
nodes = (
(918.333,-20,o),
(1074,167,o),
(1074,541,cs),
(1074,915,o),
(918.333,1102,o),
(607,1102,cs),
(295.667,1102,o),
(140,915,o),
(140,541,cs),
(140,167,o),
(295.667,-20,o),
(607,-20,cs)
);
},
{
closed = 1;
nodes = (
(332.333,31,o),
(195,201,o),
(195,541,cs),
(195,881,o),
(332.333,1051,o),
(607,1051,cs),
(881.667,1051,o),
(1019,881,o),
(1019,541,cs),
(1019,201,o),
(881.667,31,o),
(607,31,cs)
);
}
);
width = 1239;
}
);
note = o;
unicode = 111;
},
{
glyphname = p;
lastChange = "2025-05-02 13:15:02 +0000";
layers = (
{
layerId = m01;
shapes = (
{
closed = 1;
nodes = (
(1064,-20,o),
(1202,175.333,o),
(1202,566,cs),
(1202,957.333,o),
(1064,1153,o),
(788,1153,cs),
(608.667,1153,o),
(443.667,1014,o),
(293,736,c),
(446,625,l),
(518.667,767,o),
(590.333,838,o),
(661,838,cs),
(756.333,838,o),
(804,747.333,o),
(804,566,cs),
(804,385.333,o),
(756.333,295,o),
(661,295,cs),
(590.333,295,o),
(518.667,366,o),
(446,508,c),
(293,397,l),
(443.667,119,o),
(608.667,-20,o),
(788,-20,cs)
);
},
{
closed = 1;
nodes = (
(499,-423,l),
(499,979,l),
(413,1133,l),
(108,1133,l),
(108,-423,l),
(108,-423,l)
);
}
);
width = 1259;
},
{
layerId = "A52C9687-8F69-441E-A346-B6B4B01C4528";
shapes = (
{
closed = 1;
nodes = (
(1000.667,-20,o),
(1145,169.667,o),
(1145,549,cs),
(1145,928.333,o),
(1000.667,1118,o),
(712,1118,cs),
(542.667,1118,o),
(384,1002.667,o),
(236,772,c),
(329,708,l),
(443.667,882,o),
(562.667,969,o),
(686,969,cs),
(867.333,969,o),
(958,829,o),
(958,549,cs),
(958,269,o),
(867.333,129,o),
(686,129,cs),
(562.667,129,o),
(443.667,216,o),
(329,390,c),
(236,326,l),
(384,95.333,o),
(542.667,-20,o),
(712,-20,cs)
);
},
{
closed = 1;
nodes = (
(352,-458,l),
(352,909,l),
(301,1098,l),
(172,1098,l),
(172,-458,l),
(172,-458,l)
);
}
);
width = 1259;
},
{
layerId = "74807A0F-D47B-485E-A88B-DED3F6679B72";
shapes = (
{
closed = 1;
nodes = (
(958,-22,o),
(1111,165.333,o),
(1111,540,cs),
(1111,914.667,o),
(958,1102,o),
(652,1102,cs),
(492,1102,o),
(349,1003.333,o),
(223,806,c),
(263,775,l),
(386.333,959,o),
(516,1051,o),
(652,1051,cs),
(921.333,1051,o),
(1056,880.667,o),
(1056,540,cs),
(1056,199.333,o),
(921.333,29,o),
(652,29,cs),
(516,29,o),
(386.333,121,o),
(263,305,c),
(223,274,l),
(349,76.667,o),
(492,-22,o),
(652,-22,cs)
);
},
{
closed = 1;
nodes = (
(273,-474,l),
(273,869,l),
(265,1082,l),
(220,1082,l),
(220,-474,l),
(220,-474,l)
);
}
);
width = 1259;
}
);
note = p;
unicode = 112;
},
{
glyphname = q;
lastChange = "2025-05-02 13:15:02 +0000";
layers = (
{
layerId = m01;
shapes = (
{
closed = 1;
nodes = (
(671.333,-20,o),
(836.333,119,o),
(987,397,c),
(834,508,l),
(761.333,366,o),
(689.667,295,o),
(619,295,cs),
(523.667,295,o),
(476,385.333,o),
(476,566,cs),
(476,747.333,o),
(523.667,838,o),
(619,838,cs),
(689.667,838,o),
(761.333,767,o),
(834,625,c),
(987,736,l),
(836.333,1014,o),
(671.333,1153,o),
(492,1153,cs),
(216,1153,o),
(78,957.333,o),
(78,566,cs),
(78,175.333,o),
(216,-20,o),
(492,-20,cs)
);
},
{
closed = 1;
nodes = (
(1172,-423,l),
(1172,1133,l),
(867,1133,l),
(781,979,l),
(781,-423,l),
(781,-423,l)
);
}
);
width = 1259;
},
{
layerId = "A52C9687-8F69-441E-A346-B6B4B01C4528";
shapes = (
{
closed = 1;
nodes = (
(714.333,-20,o),
(873,95.333,o),
(1021,326,c),
(928,390,l),
(813.333,216,o),
(694.333,129,o),
(571,129,cs),
(389.667,129,o),
(299,269,o),
(299,549,cs),
(299,829,o),
(389.667,969,o),
(571,969,cs),
(694.333,969,o),
(813.333,882,o),
(928,708,c),
(1021,772,l),
(873,1002.667,o),
(714.333,1118,o),
(545,1118,cs),
(256.333,1118,o),
(112,928.333,o),
(112,549,cs),
(112,169.667,o),
(256.333,-20,o),
(545,-20,cs)
);
},
{
closed = 1;
nodes = (
(1085,-458,l),
(1085,1098,l),
(956,1098,l),
(905,909,l),
(905,-458,l),
(905,-458,l)
);
}
);
width = 1259;
},
{
layerId = "74807A0F-D47B-485E-A88B-DED3F6679B72";
shapes = (
{
closed = 1;
nodes = (
(809,-22,o),
(952,76.667,o),
(1078,274,c),
(1038,305,l),
(914.667,121,o),
(785,29,o),
(649,29,cs),
(379.667,29,o),
(245,199.333,o),
(245,540,cs),
(245,880.667,o),
(379.667,1051,o),
(649,1051,cs),
(785,1051,o),
(914.667,959,o),
(1038,775,c),
(1078,806,l),
(952,1003.333,o),
(809,1102,o),
(649,1102,cs),
(343,1102,o),
(190,914.667,o),
(190,540,cs),
(190,165.333,o),
(343,-22,o),
(649,-22,cs)
);
},
{
closed = 1;
nodes = (
(1081,-474,l),
(1081,1082,l),
(1036,1082,l),
(1028,869,l),
(1028,-474,l),
(1028,-474,l)
);
}
);
width = 1259;
}
);
note = q;
unicode = 113;
},
{
glyphname = r;
lastChange = "2025-05-02 13:15:02 +0000";
layers = (
{
layerId = m01;
shapes = (
{
closed = 1;
nodes = (
(493.667,727,o),
(580,784,o),
(678,784,cs),
(730,784,o),
(771.333,779.667,o),
(802,771,c),
(835,1137,l),
(799.667,1147.667,o),
(762.667,1153,o),
(724,1153,cs),
(594,1153,o),
(451.667,995.667,o),
(297,681,c),
(419,613,l),
(419,613,l)
);
},
{
closed = 1;
nodes = (
(450,0,l),
(450,953,l),
(361,1133,l),
(85,1133,l),
(85,0,l),
(85,0,l)
);
}
);
width = 845;
},
{
layerId = "A52C9687-8F69-441E-A346-B6B4B01C4528";
shapes = (
{
closed = 1;
nodes = (
(429.333,871.667,o),
(542,954,o),
(674,954,cs),
(718,954,o),
(757.333,949.333,o),
(792,940,c),
(815,1106,l),
(783.667,1114,o),
(740.667,1118,o),
(686,1118,cs),
(523.333,1118,o),
(376.667,993.667,o),
(246,745,c),
(336,707,l),
(336,707,l)
);
},
{
closed = 1;
nodes = (
(354,0,l),
(354,918,l),
(319,1098,l),
(174,1098,l),
(174,0,l),
(174,0,l)
);
}
);
width = 845;
},
{
layerId = "74807A0F-D47B-485E-A88B-DED3F6679B72";
shapes = (
{
closed = 1;
nodes = (
(338,943.333,o),
(450.333,1047,o),
(579,1047,cs),
(629,1047,o),
(680.333,1040,o),
(733,1026,c),
(745,1075,l),
(688.333,1090.333,o),
(633,1098,o),
(579,1098,cs),
(429,1098,o),
(305.667,986,o),
(209,762,c),
(242,736,l),
(242,736,l)
);
},
{
closed = 1;
nodes = (
(247,0,l),
(247,854,l),
(237,1081,l),
(194,1081,l),
(194,0,l),
(194,0,l)
);
}
);
width = 845;
}
);
note = r;
unicode = 114;
},
{
glyphname = s;
lastChange = "2025-05-02 13:15:02 +0000";
layers = (
{
layerId = m01;
shapes = (
{
closed = 1;
nodes = (
(787.333,-20,o),
(947,102.667,o),
(947,348,cs),
(947,527.333,o),
(850,647.667,o),
(656,709,cs),
(504.667,756.333,o),
(429,800.667,o),
(429,842,cs),
(429,873.333,o),
(461,889,o),
(525,889,cs),
(598.333,889,o),
(700.667,861,o),
(832,805,c),
(939,1057,l),
(784.333,1121,o),
(645.667,1153,o),
(523,1153,cs),
(211.667,1153,o),
(56,1041.667,o),
(56,819,cs),
(56,643.667,o),
(149.667,526.333,o),
(337,467,cs),
(497.667,416.333,o),
(578,368,o),
(578,322,cs),
(578,283.333,o),
(535.667,264,o),
(451,264,cs),
(326.333,264,o),
(195.333,294.667,o),
(58,356,c),
(58,43,l),
(157.333,1,o),
(294,-20,o),
(468,-20,cs)
);
}
);
width = 980;
},
{
layerId = "A52C9687-8F69-441E-A346-B6B4B01C4528";
shapes = (
{
closed = 1;
nodes = (
(742,-20,o),
(888,87.667,o),
(888,303,cs),
(888,451,o),
(778.333,559.667,o),
(559,629,cs),
(370.333,688.333,o),
(276,758,o),
(276,838,cs),
(276,926.667,o),
(351.667,971,o),
(503,971,cs),
(589.667,971,o),
(690,947.667,o),
(804,901,c),
(866,1044,l),
(746,1093.333,o),
(629.333,1118,o),
(516,1118,cs),
(241.333,1118,o),
(104,1021,o),
(104,827,cs),
(104,680.333,o),
(217.333,571.333,o),
(444,500,cs),
(624,443.333,o),
(714,372.333,o),
(714,287,cs),
(714,179,o),
(627.333,125,o),
(454,125,cs),
(355.333,125,o),
(239.333,154.333,o),
(106,213,c),
(106,49,l),
(210,3,o),
(324.667,-20,o),
(450,-20,cs)
);
}
);
width = 980;
},
{
layerId = "74807A0F-D47B-485E-A88B-DED3F6679B72";
shapes = (
{
closed = 1;
nodes = (
(755.667,-20,o),
(891,78,o),
(891,274,cs),
(891,404.667,o),
(769.333,508.667,o),
(526,586,cs),
(321.333,650,o),
(219,732.667,o),
(219,834,cs),
(219,978.667,o),
(325,1051,o),
(537,1051,cs),
(641.667,1051,o),
(743.333,1030.333,o),
(842,989,c),
(864,1040,l),
(766,1081.333,o),
(657,1102,o),
(537,1102,cs),
(288.333,1102,o),
(164,1012.667,o),
(164,834,cs),
(164,708.667,o),
(278.667,609.667,o),
(508,537,cs),
(726.667,467.667,o),
(836,380,o),
(836,274,cs),
(836,112,o),
(719,31,o),
(485,31,cs),
(369,31,o),
(250.333,57.667,o),
(129,111,c),
(129,49,l),
(233.667,3,o),
(352.333,-20,o),
(485,-20,cs)
);
}
);
width = 980;
}
);
note = s;
unicode = 115;
},
{
glyphname = t;
lastChange = "2025-05-02 13:15:02 +0000";
layers = (
{
layerId = m01;
shapes = (
{
closed = 1;
nodes = (
(530.333,-20,o),
(624.333,1,o),
(747,43,c),
(747,328,l),
(669,302,o),
(613.333,289,o),
(580,289,cs),
(516.667,289,o),
(485,325.667,o),
(485,399,cs),
(485,840,l),
(733,840,l),
(733,1133,l),
(485,1133,l),
(485,1360,l),
(257,1360,l),
(168,1122,l),
(13,999,l),
(13,840,l),
(135,840,l),
(135,373,ls),
(135,111,o),
(245,-20,o),
(465,-20,cs)
);
}
);
width = 739;
},
{
layerId = "A52C9687-8F69-441E-A346-B6B4B01C4528";
shapes = (
{
closed = 1;
nodes = (
(561.667,-20,o),
(623.333,-9.333,o),
(694,12,c),
(694,150,l),
(640.667,134.667,o),
(589.333,127,o),
(540,127,cs),
(425.333,127,o),
(368,192.667,o),
(368,324,cs),
(368,958,l),
(685,958,l),
(685,1098,l),
(368,1098,l),
(368,1350,l),
(261,1350,l),
(190,1116,l),
(32,1044,l),
(32,958,l),
(188,958,l),
(188,319,ls),
(188,93,o),
(295,-20,o),
(509,-20,cs)
);
}
);
width = 739;
},
{
layerId = "74807A0F-D47B-485E-A88B-DED3F6679B72";
shapes = (
{
closed = 1;
nodes = (
(552.667,-20,o),
(606.333,-11.333,o),
(665,6,c),
(665,57,l),
(605.667,39.667,o),
(552,31,o),
(504,31,cs),
(374,31,o),
(309,118.333,o),
(309,293,cs),
(309,1030,l),
(661,1030,l),
(661,1081,l),
(309,1081,l),
(309,1350,l),
(266,1350,l),
(254,1081,l),
(90,1075,l),
(90,1030,l),
(256,1030,l),
(256,287,ls),
(256,82.333,o),
(338.667,-20,o),
(504,-20,cs)
);
}
);
width = 739;
}
);
note = t;
unicode = 116;
},
{
glyphname = u;
lastChange = "2025-05-02 13:15:02 +0000";
layers = (
{
layerId = m01;
shapes = (
{
closed = 1;
nodes = (
(632.667,-20,o),
(798.667,137.333,o),
(964,452,c),
(833,520,l),
(753.667,364.667,o),
(680.333,287,o),
(613,287,cs),
(523,287,o),
(478,363,o),
(478,515,cs),
(478,1133,l),
(85,1133,l),
(85,396,ls),
(85,118.667,o),
(212,-20,o),
(466,-20,cs)
);
},
{
closed = 1;
nodes = (
(1191,0,l),
(1191,1133,l),
(800,1133,l),
(800,180,l),
(896,0,l),
(896,0,l)
);
}
);
width = 1265;
},
{
layerId = "A52C9687-8F69-441E-A346-B6B4B01C4528";
shapes = (
{
closed = 1;
nodes = (
(743.333,-20,o),
(897.333,104.333,o),
(1028,353,c),
(938,391,l),
(844.667,216.333,o),
(731.333,129,o),
(598,129,cs),
(434,129,o),
(352,217.333,o),
(352,394,cs),
(352,1096,l),
(174,1096,l),
(174,381,ls),
(174,113.667,o),
(304.667,-20,o),
(566,-20,cs)
);
},
{
closed = 1;
nodes = (
(1100,-2,l),
(1100,1096,l),
(920,1096,l),
(920,178,l),
(955,-2,l),
(955,-2,l)
);
}
);
width = 1265;
},
{
layerId = "74807A0F-D47B-485E-A88B-DED3F6679B72";
shapes = (
{
closed = 1;
nodes = (
(774.333,-20,o),
(922.333,92,o),
(1039,316,c),
(996,342,l),
(886.667,134.667,o),
(753,31,o),
(595,31,cs),
(385,31,o),
(280,145.667,o),
(280,375,cs),
(280,1082,l),
(227,1082,l),
(227,373,ls),
(227,111,o),
(349.667,-20,o),
(595,-20,cs)
);
},
{
closed = 1;
nodes = (
(1044,1,l),
(1044,1082,l),
(991,1082,l),
(991,228,l),
(1001,1,l),
(1001,1,l)
);
}
);
width = 1265;
}
);
note = u;
unicode = 117;
},
{
glyphname = v;
lastChange = "2025-05-02 13:15:02 +0000";
layers = (
{
layerId = m01;
shapes = (
{
closed = 1;
nodes = (
(680,0,l),
(1039,1133,l),
(701,1133,l),
(534,461,ls),
(532,449.667,o),
(527,412,o),
(519,348,c),
(513,348,l),
(504.333,419.333,o),
(499.333,457.667,o),
(498,463,cs),
(339,1133,l),
(0,1133,l),
(359,0,l),
(359,0,l)
);
}
);
width = 1040;
},
{
layerId = "A52C9687-8F69-441E-A346-B6B4B01C4528";
shapes = (
{
closed = 1;
nodes = (
(623,0,l),
(1040,1098,l),
(848,1098,l),
(614,451,ls),
(603.333,421,o),
(572.667,324,o),
(522,160,c),
(514,160,l),
(466,324,o),
(436.667,421,o),
(426,451,cs),
(193,1098,l),
(0,1098,l),
(416,0,l),
(416,0,l)
);
}
);
width = 1040;
},
{
layerId = "74807A0F-D47B-485E-A88B-DED3F6679B72";
shapes = (
{
closed = 1;
nodes = (
(543,0,l),
(961,1081,l),
(905,1081,l),
(598,283,ls),
(580.667,239,o),
(555.333,169.333,o),
(522,74,c),
(518,74,l),
(485.333,169.333,o),
(460,239,o),
(442,283,cs),
(135,1081,l),
(80,1081,l),
(498,0,l),
(498,0,l)
);
}
);
width = 1040;
}
);
note = v;
unicode = 118;
},
{
glyphname = w;
lastChange = "2025-05-02 13:15:02 +0000";
layers = (
{
layerId = m01;
shapes = (
{
closed = 1;
nodes = (
(648,0,l),
(749,481,ls),
(755.667,521,o),
(774.667,638.667,o),
(806,834,c),
(811,834,l),
(838.333,642.667,o),
(856,530,o),
(864,496,cs),
(967,0,l),
(1335,0,l),
(1609,1133,l),
(1278,1133,l),
(1189,698,ls),
(1183,669.333,o),
(1168,545.333,o),
(1144,326,c),
(1139,326,l),
(1110.333,529.333,o),
(1093.667,644,o),
(1089,670,cs),
(1004,1133,l),
(624,1133,l),
(532,676,ls),
(530,666.667,o),
(514,550,o),
(484,326,c),
(478,326,l),
(454,542.667,o),
(439,666.667,o),
(433,698,cs),
(352,1133,l),
(14,1133,l),
(286,0,l),
(286,0,l)
);
}
);
width = 1609;
},
{
layerId = "A52C9687-8F69-441E-A346-B6B4B01C4528";
shapes = (
{
closed = 1;
nodes = (
(528,2,l),
(724,618,ls),
(743.333,676,o),
(768,773.667,o),
(798,911,c),
(806,911,l),
(839.333,773.667,o),
(864.667,677,o),
(882,621,cs),
(1071,2,l),
(1282,2,l),
(1587,1100,l),
(1402,1100,l),
(1249,514,ls),
(1232.333,451.333,o),
(1207.667,342.667,o),
(1175,188,c),
(1167,188,l),
(1131.667,336,o),
(1107,433.667,o),
(1093,481,cs),
(905,1100,l),
(708,1100,l),
(514,481,ls),
(504,451,o),
(479.333,352.667,o),
(440,186,c),
(432,186,l),
(398.667,346,o),
(374.667,455.333,o),
(360,514,cs),
(208,1100,l),
(22,1100,l),
(323,2,l),
(323,2,l)
);
}
);
width = 1609;
},
{
layerId = "74807A0F-D47B-485E-A88B-DED3F6679B72";
shapes = (
{
closed = 1;
nodes = (
(480,-2,l),
(745,795,ls),
(765,855,o),
(784.667,919,o),
(804,987,c),
(808,987,l),
(836.667,894.333,o),
(856.333,830.333,o),
(867,795,cs),
(1126,-2,l),
(1171,-2,l),
(1459,1079,l),
(1406,1079,l),
(1203,319,ls),
(1188.333,260.333,o),
(1170,182,o),
(1148,84,c),
(1144,84,l),
(1128.667,142.667,o),
(1105.333,222,o),
(1074,322,cs),
(831,1079,l),
(788,1079,l),
(532,319,ls),
(511.333,256.333,o),
(488,178,o),
(462,84,c),
(458,84,l),
(434.667,178,o),
(414,256.333,o),
(396,319,cs),
(181,1079,l),
(122,1079,l),
(435,-2,l),
(435,-2,l)
);
}
);
width = 1609;
}
);
note = w;
unicode = 119;
},
{
glyphname = x;
lastChange = "2025-05-02 13:15:02 +0000";
layers = (
{
layerId = m01;
shapes = (
{
closed = 1;
nodes = (
(387,0,l),
(549,267,l),
(710,0,l),
(1087,0,l),
(738,578,l),
(1074,1133,l),
(698,1133,l),
(550,889,l),
(403,1133,l),
(25,1133,l),
(361,578,l),
(10,0,l),
(10,0,l)
);
}
);
width = 1083;
},
{
layerId = "A52C9687-8F69-441E-A346-B6B4B01C4528";
shapes = (
{
closed = 1;
nodes = (
(239,0,l),
(540,420,l),
(841,0,l),
(1046,0,l),
(642,563,l),
(1025,1098,l),
(822,1098,l),
(541,705,l),
(259,1098,l),
(54,1098,l),
(438,562,l),
(36,0,l),
(36,0,l)
);
}
);
width = 1083;
},
{
layerId = "74807A0F-D47B-485E-A88B-DED3F6679B72";
shapes = (
{
closed = 1;
nodes = (
(176,0,l),
(544,510,l),
(914,0,l),
(979,0,l),
(577,556,l),
(955,1081,l),
(889,1081,l),
(544,601,l),
(197,1081,l),
(129,1081,l),
(511,555,l),
(113,0,l),
(113,0,l)
);
}
);
width = 1083;
}
);
note = x;
unicode = 120;
},
{
glyphname = y;
lastChange = "2025-05-02 13:15:02 +0000";
layers = (
{
layerId = m01;
shapes = (
{
closed = 1;
nodes = (
(424.667,-492,o),
(572.667,-352,o),
(664,-72,cs),
(1048,1133,l),
(713,1133,l),
(353,-38,ls),
(322.333,-132.667,o),
(267,-180,o),
(187,-180,cs),
(138.333,-180,o),
(104.333,-176,o),
(85,-168,c),
(85,-475,l),
(111.667,-486.333,o),
(156.667,-492,o),
(220,-492,cs)
);
},
{
closed = 1;
nodes = (
(652,67,l),
(344,1133,l),
(-2,1133,l),
(393,-47,l),
(393,-47,l)
);
}
);
width = 1044;
},
{
layerId = "A52C9687-8F69-441E-A346-B6B4B01C4528";
shapes = (
{
closed = 1;
nodes = (
(347.333,-492,o),
(480.333,-378.667,o),
(571,-152,cs),
(1044,1098,l),
(850,1098,l),
(387,-127,l),
(328.333,-271.667,o),
(247,-344,o),
(143,-344,cs),
(83.667,-344,o),
(43.333,-340,o),
(22,-332,c),
(22,-475,l),
(54.667,-486.333,o),
(104.667,-492,o),
(172,-492,cs)
);
},
{
closed = 1;
nodes = (
(606,9,l),
(195,1098,l),
(2,1098,l),
(451,-55,l),
(451,-55,l)
);
}
);
width = 1044;
},
{
layerId = "74807A0F-D47B-485E-A88B-DED3F6679B72";
shapes = (
{
closed = 1;
nodes = (
(303.667,-498,o),
(394.333,-410.667,o),
(461,-236,cs),
(971,1081,l),
(916,1081,l),
(418,-209,ls),
(357.333,-367,o),
(281,-446,o),
(189,-446,cs),
(153.667,-446,o),
(116.667,-438.667,o),
(78,-424,c),
(78,-477,l),
(114.667,-491,o),
(151.667,-498,o),
(189,-498,cs)
);
},
{
closed = 1;
nodes = (
(553,20,l),
(146,1081,l),
(90,1081,l),
(504,5,l),
(504,5,l)
);
}
);
width = 1044;
}
);
note = y;
unicode = 121;
},
{
glyphname = z;
lastChange = "2025-05-02 13:15:02 +0000";
layers = (
{
layerId = m01;
shapes = (
{
closed = 1;
nodes = (
(957,0,l),
(957,299,l),
(486,299,l),
(934,891,l),
(934,1133,l),
(46,1133,l),
(46,834,l),
(488,834,l),
(19,223,l),
(19,0,l),
(19,0,l)
);
}
);
width = 962;
},
{
layerId = "A52C9687-8F69-441E-A346-B6B4B01C4528";
shapes = (
{
closed = 1;
nodes = (
(882,0,l),
(882,139,l),
(286,139,l),
(867,963,l),
(867,1098,l),
(114,1098,l),
(114,958,l),
(669,958,l),
(79,119,l),
(79,0,l),
(79,0,l)
);
}
);
width = 962;
},
{
layerId = "74807A0F-D47B-485E-A88B-DED3F6679B72";
shapes = (
{
closed = 1;
nodes = (
(863,0,l),
(863,51,l),
(177,51,l),
(869,1051,l),
(869,1081,l),
(158,1081,l),
(158,1030,l),
(791,1030,l),
(103,35,l),
(103,0,l),
(103,0,l)
);
}
);
width = 962;
}
);
note = z;
unicode = 122;
},
{
glyphname = braceleft;
lastChange = "2025-05-02 13:15:02 +0000";
layers = (
{
layerId = m01;
shapes = (
{
closed = 1;
nodes = (
(760,-66,l),
(638.667,-66,o),
(579,-29.667,o),
(579,41,cs),
(579,317,ls),
(579,473,o),
(498,539,o),
(350,563,c),
(350,575,l),
(496.667,595,o),
(579,660.333,o),
(579,827,cs),
(579,1098,ls),
(579,1168.667,o),
(638.667,1204,o),
(760,1204,c),
(760,1483,l),
(433.333,1483,o),
(270,1369.667,o),
(270,1143,cs),
(270,889,ls),
(270,775.667,o),
(191,719,o),
(35,719,c),
(35,418,l),
(191,418,o),
(270,361.333,o),
(270,248,cs),
(270,0,ls),
(270,-229.333,o),
(433.333,-344,o),
(760,-344,c)
);
}
);
width = 778;
},
{
layerId = "A52C9687-8F69-441E-A346-B6B4B01C4528";
shapes = (
{
closed = 1;
nodes = (
(720,-176,l),
(578.667,-170.667,o),
(493,-117.333,o),
(493,16,cs),
(493,313,ls),
(493,454.333,o),
(418.333,537.667,o),
(269,563,c),
(269,575,l),
(418.333,601.667,o),
(493,685,o),
(493,825,cs),
(493,1124,ls),
(493,1258.667,o),
(574.667,1312.333,o),
(720,1315,c),
(720,1462,l),
(469.333,1459.333,o),
(314,1354.333,o),
(314,1137,cs),
(314,838,ls),
(314,698,o),
(225,645,o),
(65,645,c),
(65,496,l),
(225,493.333,o),
(314,442.333,o),
(314,305,cs),
(314,0,ls),
(314,-218.667,o),
(480,-324,o),
(720,-324,c)
);
}
);
width = 778;
},
{
layerId = "74807A0F-D47B-485E-A88B-DED3F6679B72";
shapes = (
{
closed = 1;
nodes = (
(684,-272,l),
(490.667,-272,o),
(404,-199.667,o),
(404,-41,cs),
(404,311,ls),
(404,451,o),
(362,545.667,o),
(242,567,c),
(242,571,l),
(362,593.667,o),
(404,688.333,o),
(404,827,cs),
(404,1174,ls),
(404,1339.333,o),
(490.667,1411,o),
(684,1411,c),
(684,1462,l),
(460,1462,o),
(348,1363.333,o),
(348,1186,cs),
(348,836,ls),
(348,661.333,o),
(287,594,o),
(123,594,c),
(123,545,l),
(287,545,o),
(348,472.333,o),
(348,303,cs),
(348,-47,ls),
(348,-224.333,o),
(460,-324,o),
(684,-324,c)
);
}
);
width = 778;
}
);
note = braceleft;
unicode = 123;
},
{
glyphname = bar;
lastChange = "2025-05-02 13:15:02 +0000";
layers = (
{
layerId = m01;
shapes = (
{
closed = 1;
nodes = (
(715,-446,l),
(715,1556,l),
(447,1556,l),
(447,-446,l),
(447,-446,l)
);
}
);
width = 1128;
},
{
layerId = "A52C9687-8F69-441E-A346-B6B4B01C4528";
shapes = (
{
closed = 1;
nodes = (
(639,-494,l),
(639,1556,l),
(489,1556,l),
(489,-494,l),
(489,-494,l)
);
}
);
userData = {
assembly = "MPPEM[ ]	/* MeasurePixelPerEm */
PUSHB[ ]	/* 1 value pushed */
41
LT[ ]	/* LessThan */
IF[ ]	/* If */
NPUSHB[ ]	/* 11 values pushed */
0 1 1 33 77 0 0 0 36 0 78
ELSE[ ]	/* Else */
NPUSHB[ ]	/* 11 values pushed */
0 1 0 1 133 0 0 0 36 0 78
EIF[ ]	/* EndIf */
PUSHB[ ]	/* 5 values pushed */
17 16 2 8 24
CALL[ ]	/* CallFunction */";
};
width = 1128;
},
{
layerId = "74807A0F-D47B-485E-A88B-DED3F6679B72";
shapes = (
{
closed = 1;
nodes = (
(619,-514,l),
(619,1563,l),
(568,1563,l),
(568,-514,l),
(568,-514,l)
);
}
);
width = 1128;
}
);
note = bar;
unicode = 124;
},
{
glyphname = braceright;
lastChange = "2025-05-02 13:15:02 +0000";
layers = (
{
layerId = m01;
shapes = (
{
closed = 1;
nodes = (
(361.667,-344,o),
(525,-229.333,o),
(525,0,cs),
(525,248,ls),
(525,361.333,o),
(604,418,o),
(760,418,c),
(760,719,l),
(604,719,o),
(525,775.667,o),
(525,889,cs),
(525,1143,ls),
(525,1369.667,o),
(361.667,1483,o),
(35,1483,c),
(35,1204,l),
(156.333,1204,o),
(216,1168.667,o),
(216,1098,cs),
(216,827,ls),
(216,660.333,o),
(298.333,595,o),
(445,575,c),
(445,563,l),
(297,539,o),
(216,473,o),
(216,317,cs),
(216,41,ls),
(216,-29.667,o),
(156.333,-66,o),
(35,-66,c),
(35,-344,l),
(35,-344,l)
);
}
);
width = 778;
},
{
layerId = "A52C9687-8F69-441E-A346-B6B4B01C4528";
shapes = (
{
closed = 1;
nodes = (
(305,-324,o),
(471,-218.667,o),
(471,0,cs),
(471,305,ls),
(471,442.333,o),
(560,493.333,o),
(720,496,c),
(720,645,l),
(560,645,o),
(471,698,o),
(471,838,cs),
(471,1137,ls),
(471,1354.333,o),
(315.667,1459.333,o),
(65,1462,c),
(65,1315,l),
(210.333,1312.333,o),
(292,1258.667,o),
(292,1124,cs),
(292,825,ls),
(292,685,o),
(366.667,601.667,o),
(516,575,c),
(516,563,l),
(366.667,537.667,o),
(292,454.333,o),
(292,313,cs),
(292,16,ls),
(292,-117.333,o),
(206.333,-170.667,o),
(65,-176,c),
(65,-324,l),
(65,-324,l)
);
}
);
width = 778;
},
{
layerId = "74807A0F-D47B-485E-A88B-DED3F6679B72";
shapes = (
{
closed = 1;
nodes = (
(327,-324,o),
(439,-224.333,o),
(439,-47,cs),
(439,303,ls),
(439,472.333,o),
(500,545,o),
(664,545,c),
(664,594,l),
(500,594,o),
(439,661.333,o),
(439,836,cs),
(439,1186,ls),
(439,1363.333,o),
(327,1462,o),
(103,1462,c),
(103,1411,l),
(296.333,1411,o),
(384,1339.333,o),
(384,1174,cs),
(384,827,ls),
(384,688.333,o),
(425,593.667,o),
(545,571,c),
(545,567,l),
(425,545.667,o),
(384,451,o),
(384,311,cs),
(384,-41,ls),
(384,-199.667,o),
(296.333,-272,o),
(103,-272,c),
(103,-324,l),
(103,-324,l)
);
}
);
width = 778;
}
);
note = braceright;
unicode = 125;
},
{
glyphname = asciitilde;
lastChange = "2025-05-02 13:15:02 +0000";
layers = (
{
layerId = m01;
shapes = (
{
closed = 1;
nodes = (
(1106,918,l),
(1027.333,837.333,o),
(950,797,o),
(874,797,cs),
(788,797,o),
(709,815.333,o),
(637,852,cs),
(549.667,894,o),
(456,915,o),
(356,915,cs),
(254.667,915,o),
(166.667,879,o),
(92,807,c),
(92,526,l),
(174,606.667,o),
(251.667,647,o),
(325,647,cs),
(410.333,647,o),
(489,628.667,o),
(561,592,cs),
(648.333,549.333,o),
(742,528,o),
(842,528,cs),
(948,528,o),
(1036,564.333,o),
(1106,637,c)
);
}
);
width = 1171;
},
{
layerId = "A52C9687-8F69-441E-A346-B6B4B01C4528";
shapes = (
{
closed = 1;
nodes = (
(1067,856,l),
(989,775.333,o),
(910.333,735,o),
(831,735,cs),
(763.667,735,o),
(692.667,753.667,o),
(618,791,cs),
(530,834.333,o),
(440,856,o),
(348,856,cs),
(253.333,856,o),
(171.333,820,o),
(102,748,c),
(102,588,l),
(182.667,668.667,o),
(260.333,709,o),
(335,709,cs),
(401.667,709,o),
(473.667,690.333,o),
(551,653,cs),
(637.667,609.667,o),
(727.667,588,o),
(821,588,cs),
(917.667,588,o),
(999.667,624.667,o),
(1067,698,c)
);
}
);
width = 1171;
},
{
layerId = "74807A0F-D47B-485E-A88B-DED3F6679B72";
shapes = (
{
closed = 1;
nodes = (
(1062,793,l),
(990.667,719,o),
(913,682,o),
(829,682,cs),
(771,682,o),
(699,703,o),
(613,745,cs),
(522.333,790.333,o),
(439.333,813,o),
(364,813,cs),
(270,813,o),
(190,780.333,o),
(124,715,c),
(124,651,l),
(199.333,726.333,o),
(279.333,764,o),
(364,764,cs),
(426.667,764,o),
(501,742.667,o),
(587,700,cs),
(679,655.333,o),
(759.667,633,o),
(829,633,cs),
(920.333,633,o),
(998,666.333,o),
(1062,733,c)
);
}
);
width = 1171;
}
);
note = asciitilde;
unicode = 126;
},
{
glyphname = guillemotleft;
lastChange = "2025-05-02 13:15:02 +0000";
layers = (
{
layerId = m01;
shapes = (
{
closed = 1;
nodes = (
(1039,227,l),
(815,575,l),
(1039,922,l),
(809,1071,l),
(492,588,l),
(492,561,l),
(809,80,l),
(809,80,l)
);
},
{
closed = 1;
nodes = (
(570,227,l),
(347,575,l),
(570,922,l),
(340,1071,l),
(23,588,l),
(23,561,l),
(340,80,l),
(340,80,l)
);
}
);
width = 1042;
},
{
layerId = "A52C9687-8F69-441E-A346-B6B4B01C4528";
shapes = (
{
closed = 1;
nodes = (
(962,190,l),
(675,541,l),
(962,891,l),
(835,965,l),
(487,553,l),
(487,526,l),
(835,115,l),
(835,115,l)
);
},
{
closed = 1;
nodes = (
(554,190,l),
(267,541,l),
(554,891,l),
(425,965,l),
(81,553,l),
(81,526,l),
(425,115,l),
(425,115,l)
);
}
);
userData = {
assembly = "PUSHB[ ]	/* 6 values pushed */
10 7 3 0 2 50
CALL[ ]	/* CallFunction */";
};
width = 1042;
},
{
layerId = "74807A0F-D47B-485E-A88B-DED3F6679B72";
shapes = (
{
closed = 1;
nodes = (
(863,201,l),
(583,571,l),
(863,942,l),
(830,967,l),
(519,584,l),
(519,557,l),
(830,178,l),
(830,178,l)
);
},
{
closed = 1;
nodes = (
(517,201,l),
(236,571,l),
(517,942,l),
(484,967,l),
(173,584,l),
(173,557,l),
(484,178,l),
(484,178,l)
);
}
);
width = 1042;
}
);
note = guillemotleft;
unicode = 171;
},
{
glyphname = guillemotright;
lastChange = "2025-05-02 13:15:02 +0000";
layers = (
{
layerId = m01;
shapes = (
{
closed = 1;
nodes = (
(1029,561,l),
(1029,588,l),
(712,1071,l),
(482,922,l),
(705,575,l),
(482,227,l),
(712,80,l),
(712,80,l)
);
},
{
closed = 1;
nodes = (
(560,561,l),
(560,588,l),
(243,1071,l),
(13,922,l),
(237,575,l),
(13,227,l),
(243,80,l),
(243,80,l)
);
}
);
width = 1042;
},
{
layerId = "A52C9687-8F69-441E-A346-B6B4B01C4528";
shapes = (
{
closed = 1;
nodes = (
(960,526,l),
(960,553,l),
(611,965,l),
(485,891,l),
(771,541,l),
(485,190,l),
(611,115,l),
(611,115,l)
);
},
{
closed = 1;
nodes = (
(552,526,l),
(552,553,l),
(206,965,l),
(79,891,l),
(366,541,l),
(79,190,l),
(206,115,l),
(206,115,l)
);
}
);
userData = {
assembly = "PUSHB[ ]	/* 6 values pushed */
10 7 3 0 2 50
CALL[ ]	/* CallFunction */";
};
width = 1042;
},
{
layerId = "74807A0F-D47B-485E-A88B-DED3F6679B72";
shapes = (
{
closed = 1;
nodes = (
(833,561,l),
(833,588,l),
(522,967,l),
(489,944,l),
(770,573,l),
(489,203,l),
(522,178,l),
(522,178,l)
);
},
{
closed = 1;
nodes = (
(487,561,l),
(487,588,l),
(176,967,l),
(143,944,l),
(424,573,l),
(143,203,l),
(176,178,l),
(176,178,l)
);
}
);
width = 1042;
}
);
note = guillemotright;
unicode = 187;
},
{
glyphname = uni1780;
lastChange = "2025-05-02 13:15:02 +0000";
layers = (
{
layerId = m01;
shapes = (
{
closed = 1;
nodes = (
(488,0,l),
(488,570,ls),
(488,626.667,o),
(542,655,o),
(650,655,cs),
(758,655,o),
(812,626.667,o),
(812,570,cs),
(812,0,l),
(1200,0,l),
(1200,570,ls),
(1200,785.333,o),
(1016.667,893,o),
(650,893,cs),
(283.333,893,o),
(100,785.333,o),
(100,570,cs),
(100,0,l),
(100,0,l)
);
},
{
closed = 1;
nodes = (
(1200,1012,l),
(1200,1250,l),
(100,1250,l),
(100,1012,l),
(100,1012,l)
);
}
);
width = 1300;
},
{
layerId = "A52C9687-8F69-441E-A346-B6B4B01C4528";
shapes = (
{
closed = 1;
nodes = (
(388,0,l),
(388,600,ls),
(388,723.333,o),
(475.333,785,o),
(650,785,cs),
(824.667,785,o),
(912,723.333,o),
(912,600,cs),
(912,0,l),
(1100,0,l),
(1100,600,ls),
(1100,815.333,o),
(950,923,o),
(650,923,cs),
(350,923,o),
(200,815.333,o),
(200,600,cs),
(200,0,l),
(200,0,l)
);
},
{
closed = 1;
nodes = (
(1100,1062,l),
(1100,1200,l),
(200,1200,l),
(200,1062,l),
(200,1062,l)
);
}
);
width = 1300;
},
{
layerId = "74807A0F-D47B-485E-A88B-DED3F6679B72";
shapes = (
{
closed = 1;
nodes = (
(308,0,l),
(308,600,ls),
(308,782,o),
(422,873,o),
(650,873,cs),
(878,873,o),
(992,782,o),
(992,600,cs),
(992,0,l),
(1050,0,l),
(1050,600,ls),
(1050,815.333,o),
(916.667,923,o),
(650,923,cs),
(383.333,923,o),
(250,815.333,o),
(250,600,cs),
(250,0,l),
(250,0,l)
);
},
{
closed = 1;
nodes = (
(1050,1150,l),
(1050,1200,l),
(250,1200,l),
(250,1150,l),
(250,1150,l)
);
}
);
width = 1300;
}
);
note = uni1780;
unicode = 6016;
},
{
glyphname = uni1781;
lastChange = "2025-05-02 13:15:02 +0000";
layers = (
{
layerId = m01;
shapes = (
{
closed = 1;
nodes = (
(1016.667,0,o),
(1200,119.667,o),
(1200,359,cs),
(1200,510,l),
(812,510,l),
(812,359,ls),
(812,278.333,o),
(758,238,o),
(650,238,cs),
(542,238,o),
(488,278.333,o),
(488,359,cs),
(488,484,l),
(533,491,ls),
(977.667,564.333,o),
(1200,697.667,o),
(1200,891,cs),
(1200,1130.333,o),
(1016.667,1250,o),
(650,1250,cs),
(283.333,1250,o),
(100,1137,o),
(100,911,cs),
(100,796.333,o),
(246,739,o),
(538,739,c),
(538,878,l),
(504.667,878,o),
(488,889,o),
(488,911,cs),
(488,978.333,o),
(542,1012,o),
(650,1012,cs),
(758,1012,o),
(812,971.667,o),
(812,891,cs),
(812,784.333,o),
(693.333,712.333,o),
(456,675,cs),
(100,617,l),
(100,359,ls),
(100,119.667,o),
(283.333,0,o),
(650,0,cs)
);
}
);
width = 1300;
},
{
layerId = "A52C9687-8F69-441E-A346-B6B4B01C4528";
shapes = (
{
closed = 1;
nodes = (
(950,0,o),
(1100,107.667,o),
(1100,323,cs),
(1100,480,l),
(912,480,l),
(912,323,ls),
(912,199.667,o),
(824.667,138,o),
(650,138,cs),
(475.333,138,o),
(388,199.667,o),
(388,323,cs),
(388,473,l),
(477,486,ls),
(892.333,545.333,o),
(1100,675.667,o),
(1100,877,cs),
(1100,1092.333,o),
(950,1200,o),
(650,1200,cs),
(350,1200,o),
(200,1099,o),
(200,897,cs),
(200,778.333,o),
(296,719,o),
(488,719,c),
(488,853,l),
(421.333,853,o),
(388,867.667,o),
(388,897,cs),
(388,1007,o),
(475.333,1062,o),
(650,1062,cs),
(824.667,1062,o),
(912,1000.333,o),
(912,877,cs),
(912,750.333,o),
(756.333,665,o),
(445,621,cs),
(200,586,l),
(200,323,ls),
(200,107.667,o),
(350,0,o),
(650,0,cs)
);
}
);
width = 1300;
},
{
layerId = "74807A0F-D47B-485E-A88B-DED3F6679B72";
shapes = (
{
closed = 1;
nodes = (
(916.667,0,o),
(1050,107.667,o),
(1050,323,cs),
(1050,480,l),
(992,480,l),
(992,323,ls),
(992,141,o),
(878,50,o),
(650,50,cs),
(422,50,o),
(308,141,o),
(308,323,cs),
(308,509,l),
(566,552,ls),
(888.667,605.333,o),
(1050,713.667,o),
(1050,877,cs),
(1050,1092.333,o),
(916.667,1200,o),
(650,1200,cs),
(383.333,1200,o),
(250,1092.333,o),
(250,877,cs),
(250,771.667,o),
(312.667,719,o),
(438,719,c),
(438,773,l),
(351.333,773,o),
(308,807.667,o),
(308,877,cs),
(308,1059,o),
(422,1150,o),
(650,1150,cs),
(878,1150,o),
(992,1059,o),
(992,877,cs),
(992,741,o),
(846.667,649,o),
(556,601,cs),
(250,551,l),
(250,323,ls),
(250,107.667,o),
(383.333,0,o),
(650,0,cs)
);
}
);
width = 1300;
}
);
note = uni1781;
unicode = 6017;
},
{
glyphname = uni1782;
lastChange = "2025-05-02 13:15:02 +0000";
layers = (
{
layerId = m01;
shapes = (
{
closed = 1;
nodes = (
(488,0,l),
(488,76,l),
(511.333,166.667,o),
(570.667,212,o),
(666,212,cs),
(710,212,l),
(710,450,l),
(663,450,ls),
(571,450,o),
(512.667,409,o),
(488,327,c),
(488,570,ls),
(488,626.667,o),
(542,655,o),
(650,655,cs),
(758,655,o),
(812,626.667,o),
(812,570,cs),
(812,0,l),
(1200,0,l),
(1200,570,ls),
(1200,785.333,o),
(1016.667,893,o),
(650,893,cs),
(283.333,893,o),
(100,785.333,o),
(100,570,cs),
(100,0,l),
(100,0,l)
);
},
{
closed = 1;
nodes = (
(1200,1012,l),
(1200,1250,l),
(100,1250,l),
(100,1012,l),
(100,1012,l)
);
}
);
width = 1300;
},
{
layerId = "A52C9687-8F69-441E-A346-B6B4B01C4528";
shapes = (
{
closed = 1;
nodes = (
(388,0,l),
(388,86,l),
(418,203.333,o),
(487.333,262,o),
(596,262,cs),
(700,262,l),
(700,400,l),
(573,400,ls),
(495.667,400,o),
(434,373.333,o),
(388,320,c),
(388,600,ls),
(388,723.333,o),
(475.333,785,o),
(650,785,cs),
(824.667,785,o),
(912,723.333,o),
(912,600,cs),
(912,0,l),
(1100,0,l),
(1100,600,ls),
(1100,815.333,o),
(950,923,o),
(650,923,cs),
(350,923,o),
(200,815.333,o),
(200,600,cs),
(200,0,l),
(200,0,l)
);
},
{
closed = 1;
nodes = (
(1100,1062,l),
(1100,1200,l),
(200,1200,l),
(200,1062,l),
(200,1062,l)
);
}
);
width = 1300;
},
{
layerId = "74807A0F-D47B-485E-A88B-DED3F6679B72";
shapes = (
{
closed = 1;
nodes = (
(308,0,l),
(308,65,l),
(351.333,221.667,o),
(440.667,300,o),
(576,300,cs),
(630,300,l),
(630,350,l),
(576,350,ls),
(436.667,350,o),
(347.333,293,o),
(308,179,c),
(308,600,ls),
(308,782,o),
(422,873,o),
(650,873,cs),
(878,873,o),
(992,782,o),
(992,600,cs),
(992,0,l),
(1050,0,l),
(1050,600,ls),
(1050,815.333,o),
(916.667,923,o),
(650,923,cs),
(383.333,923,o),
(250,815.333,o),
(250,600,cs),
(250,0,l),
(250,0,l)
);
},
{
closed = 1;
nodes = (
(1050,1150,l),
(1050,1200,l),
(250,1200,l),
(250,1150,l),
(250,1150,l)
);
}
);
width = 1300;
}
);
note = uni1782;
unicode = 6018;
},
{
glyphname = uni1783;
lastChange = "2025-05-02 13:15:02 +0000";
layers = (
{
layerId = m01;
shapes = (
{
closed = 1;
nodes = (
(761,0,o),
(870.667,29.667,o),
(954,89,c),
(1036.667,29.667,o),
(1145.667,0,o),
(1281,0,cs),
(1627,0,o),
(1800,107.667,o),
(1800,323,cs),
(1800,840,l),
(1539,991,l),
(1551,1012,l),
(1800,1012,l),
(1800,1250,l),
(1372,1250,l),
(1276,1087,ls),
(1254.667,1051,o),
(1244,1026,o),
(1244,1012,cs),
(1244,993.333,o),
(1258,969.333,o),
(1286,940,cs),
(1412,806,l),
(1412,323,ls),
(1412,266.333,o),
(1368.333,238,o),
(1281,238,cs),
(1193,238,o),
(1149,266.333,o),
(1149,323,cs),
(1149,840,l),
(888,991,l),
(900,1012,l),
(1149,1012,l),
(1149,1250,l),
(721,1250,l),
(625,1087,ls),
(603.667,1051,o),
(593,1026,o),
(593,1012,cs),
(593,993.333,o),
(607,969.333,o),
(635,940,cs),
(761,806,l),
(761,323,ls),
(761,266.333,o),
(715.667,238,o),
(625,238,cs),
(533.667,238,o),
(488,266.333,o),
(488,323,cs),
(488,1128,ls),
(488,1209.333,o),
(438,1250,o),
(338,1250,cs),
(29,1250,l),
(29,1012,l),
(65,1012,ls),
(88.333,1012,o),
(100,996.333,o),
(100,965,cs),
(100,323,ls),
(100,107.667,o),
(275,0,o),
(625,0,cs)
);
}
);
width = 1900;
},
{
layerId = "A52C9687-8F69-441E-A346-B6B4B01C4528";
shapes = (
{
closed = 1;
nodes = (
(775,0,o),
(885.333,32.667,o),
(956,98,c),
(1026.667,32.667,o),
(1135,0,o),
(1281,0,cs),
(1560.333,0,o),
(1700,107.667,o),
(1700,323,cs),
(1700,840,l),
(1483,1034,l),
(1504,1062,l),
(1700,1062,l),
(1700,1200,l),
(1452,1200,l),
(1340,1053,ls),
(1329.333,1039.667,o),
(1324,1026,o),
(1324,1012,cs),
(1324,993.333,o),
(1334.333,974.333,o),
(1355,955,cs),
(1512,806,l),
(1512,323,ls),
(1512,199.667,o),
(1435,138,o),
(1281,138,cs),
(1127,138,o),
(1050,199.667,o),
(1050,323,cs),
(1050,840,l),
(833,1034,l),
(854,1062,l),
(1050,1062,l),
(1050,1200,l),
(802,1200,l),
(690,1053,ls),
(679.333,1039.667,o),
(674,1026,o),
(674,1012,cs),
(674,993.333,o),
(684.333,974.333,o),
(705,955,cs),
(862,806,l),
(862,323,ls),
(862,199.667,o),
(783,138,o),
(625,138,cs),
(467,138,o),
(388,199.667,o),
(388,323,cs),
(388,1098,ls),
(388,1166,o),
(338,1200,o),
(238,1200,cs),
(59,1200,l),
(59,1062,l),
(130,1062,ls),
(176.667,1062,o),
(200,1046.333,o),
(200,1015,cs),
(200,323,ls),
(200,107.667,o),
(341.667,0,o),
(625,0,cs)
);
}
);
width = 1900;
},
{
layerId = "74807A0F-D47B-485E-A88B-DED3F6679B72";
shapes = (
{
closed = 1;
nodes = (
(789,0,o),
(900.667,55.333,o),
(950,166,c),
(999.333,55.333,o),
(1111.333,0,o),
(1286,0,cs),
(1528.667,0,o),
(1650,107.667,o),
(1650,323,cs),
(1650,830,l),
(1403,1050,l),
(1455,1150,l),
(1650,1150,l),
(1650,1200,l),
(1432,1200,l),
(1374,1105,ls),
(1360.667,1083.667,o),
(1354,1066,o),
(1354,1052,cs),
(1354,1033.333,o),
(1364,1015,o),
(1384,997,cs),
(1592,806,l),
(1592,323,ls),
(1592,141,o),
(1490,50,o),
(1286,50,cs),
(1081.333,50,o),
(979,141,o),
(979,323,cs),
(979,830,l),
(732,1050,l),
(784,1150,l),
(979,1150,l),
(979,1200,l),
(761,1200,l),
(703,1105,ls),
(689.667,1083.667,o),
(683,1066,o),
(683,1052,cs),
(683,1033.333,o),
(693,1015,o),
(713,997,cs),
(921,806,l),
(921,323,ls),
(921,141,o),
(819,50,o),
(615,50,cs),
(410.333,50,o),
(308,141,o),
(308,323,cs),
(308,1048,ls),
(308,1149.333,o),
(258.667,1200,o),
(160,1200,cs),
(89,1200,l),
(89,1150,l),
(160,1150,ls),
(220,1150,o),
(250,1116,o),
(250,1048,cs),
(250,323,ls),
(250,107.667,o),
(371.667,0,o),
(615,0,cs)
);
}
);
width = 1900;
}
);
note = uni1783;
unicode = 6019;
},
{
glyphname = uni1784;
lastChange = "2025-05-02 13:15:02 +0000";
layers = (
{
layerId = m01;
shapes = (
{
closed = 1;
nodes = (
(469,0,l),
(651,180,l),
(832,0,l),
(1200,0,l),
(1200,720,ls),
(1200,827.333,o),
(1142.667,908.167,o),
(1028,962.5,cs),
(913.333,1016.833,o),
(856,1056,o),
(856,1080,cs),
(856,1113.333,o),
(868.333,1130,o),
(893,1130,cs),
(917.667,1130,o),
(930,1116,o),
(930,1088,cs),
(930,1024.667,o),
(813.667,993,o),
(581,993,cs),
(519,993,o),
(488,1008.333,o),
(488,1039,cs),
(488,1400,l),
(100,1400,l),
(100,1039,ls),
(100,869.667,o),
(260.333,785,o),
(581,785,cs),
(933.667,785,o),
(1110,886.667,o),
(1110,1090,cs),
(1110,1196.667,o),
(1037.667,1250,o),
(893,1250,cs),
(748.333,1250,o),
(676,1193.333,o),
(676,1080,cs),
(676,1022,o),
(698.667,964.833,o),
(744,908.5,cs),
(789.333,852.167,o),
(812,789.333,o),
(812,720,cs),
(812,321,l),
(691,443,l),
(610,443,l),
(488,321,l),
(488,526,ls),
(488,655.333,o),
(408.667,720,o),
(250,720,cs),
(30,720,l),
(30,526,l),
(65,526,ls),
(88.333,526,o),
(100,512.333,o),
(100,485,cs),
(100,0,l),
(100,0,l)
);
}
);
width = 1300;
},
{
layerId = "A52C9687-8F69-441E-A346-B6B4B01C4528";
shapes = (
{
closed = 1;
nodes = (
(419,0,l),
(651,248,l),
(882,0,l),
(1100,0,l),
(1100,720,ls),
(1100,794,o),
(1051,858.167,o),
(953,912.5,cs),
(855,966.833,o),
(806,1006,o),
(806,1030,cs),
(806,1063.333,o),
(818.333,1080,o),
(843,1080,cs),
(867.667,1080,o),
(880,1066,o),
(880,1038,cs),
(880,961.333,o),
(780.333,923,o),
(581,923,cs),
(452.333,923,o),
(388,945,o),
(388,989,cs),
(388,1350,l),
(200,1350,l),
(200,989,ls),
(200,855,o),
(327,788,o),
(581,788,cs),
(867,788,o),
(1010,872,o),
(1010,1040,cs),
(1010,1146.667,o),
(954.333,1200,o),
(843,1200,cs),
(731.667,1200,o),
(676,1143.333,o),
(676,1030,cs),
(676,972,o),
(715.333,914.833,o),
(794,858.5,cs),
(872.667,802.167,o),
(912,756,o),
(912,720,cs),
(912,180,l),
(672,420,l),
(630,420,l),
(388,180,l),
(388,568,ls),
(388,669.333,o),
(335.333,720,o),
(230,720,cs),
(119,720,l),
(119,580,l),
(160,580,ls),
(186.667,580,o),
(200,562.667,o),
(200,528,cs),
(200,0,l),
(200,0,l)
);
}
);
width = 1300;
},
{
layerId = "74807A0F-D47B-485E-A88B-DED3F6679B72";
shapes = (
{
closed = 1;
nodes = (
(323,0,l),
(651,348,l),
(979,0,l),
(1050,0,l),
(1050,720,ls),
(1050,794,o),
(996,854.833,o),
(888,902.5,cs),
(780,950.167,o),
(726,999.333,o),
(726,1050,cs),
(726,1116.667,o),
(761.667,1150,o),
(833,1150,cs),
(897.667,1150,o),
(930,1119.333,o),
(930,1058,cs),
(930,938,o),
(813.667,878,o),
(581,878,cs),
(399,878,o),
(308,915,o),
(308,989,cs),
(308,1350,l),
(250,1350,l),
(250,989,ls),
(250,881.667,o),
(360.333,828,o),
(581,828,cs),
(847,828,o),
(980,905.333,o),
(980,1060,cs),
(980,1153.333,o),
(931,1200,o),
(833,1200,cs),
(728.333,1200,o),
(676,1150,o),
(676,1050,cs),
(676,978.667,o),
(728.667,919.833,o),
(834,873.5,cs),
(939.333,827.167,o),
(992,776,o),
(992,720,cs),
(992,59,l),
(672,400,l),
(630,400,l),
(308,58,l),
(308,568,ls),
(308,669.333,o),
(258.667,720,o),
(160,720,cs),
(119,720,l),
(119,670,l),
(160,670,ls),
(220,670,o),
(250,636,o),
(250,568,cs),
(250,0,l),
(250,0,l)
);
}
);
width = 1300;
}
);
note = uni1784;
unicode = 6020;
},
{
glyphname = uni1785;
lastChange = "2025-05-02 13:15:02 +0000";
layers = (
{
layerId = m01;
shapes = (
{
closed = 1;
nodes = (
(1016.667,0,o),
(1200,107.667,o),
(1200,323,cs),
(1200,728,ls),
(1200,836,o),
(1100.333,890,o),
(901,890,cs),
(701.667,890,o),
(602,823.667,o),
(602,691,cs),
(602,558.333,o),
(665.333,492,o),
(792,492,cs),
(827,492,l),
(827,630,l),
(792,630,ls),
(764,630,o),
(750,650.333,o),
(750,691,cs),
(750,731.667,o),
(763.667,752,o),
(791,752,cs),
(805,752,o),
(812,744,o),
(812,728,cs),
(812,323,ls),
(812,233,o),
(758,188,o),
(650,188,cs),
(542,188,o),
(488,233,o),
(488,323,cs),
(488,820,l),
(237,974,l),
(263,1012,l),
(1200,1012,l),
(1200,1250,l),
(168,1250,l),
(39,1025,ls),
(26.333,1003,o),
(20,979.667,o),
(20,955,cs),
(20,927.667,o),
(26.667,903.333,o),
(40,882,cs),
(100,786,l),
(100,323,ls),
(100,107.667,o),
(283.333,0,o),
(650,0,cs)
);
}
);
width = 1300;
},
{
layerId = "A52C9687-8F69-441E-A346-B6B4B01C4528";
shapes = (
{
closed = 1;
nodes = (
(950,0,o),
(1100,107.667,o),
(1100,323,cs),
(1100,743,ls),
(1100,847.667,o),
(1032,900,o),
(896,900,cs),
(766.667,900,o),
(702,833.667,o),
(702,701,cs),
(702,568.333,o),
(765.333,502,o),
(892,502,cs),
(930,502,l),
(930,640,l),
(892,640,ls),
(844,640,o),
(820,660.333,o),
(820,701,cs),
(820,741.667,o),
(845.333,762,o),
(896,762,cs),
(906.667,762,o),
(912,755.667,o),
(912,743,cs),
(912,323,ls),
(912,199.667,o),
(824.667,138,o),
(650,138,cs),
(475.333,138,o),
(388,199.667,o),
(388,323,cs),
(388,820,l),
(237,992,l),
(288,1062,l),
(1100,1062,l),
(1100,1200,l),
(258,1200,l),
(118,1017,ls),
(106,1000.333,o),
(100,979.667,o),
(100,955,cs),
(100,927.667,o),
(112,898.667,o),
(136,868,cs),
(200,786,l),
(200,323,ls),
(200,107.667,o),
(350,0,o),
(650,0,cs)
);
}
);
width = 1300;
},
{
layerId = "74807A0F-D47B-485E-A88B-DED3F6679B72";
shapes = (
{
closed = 1;
nodes = (
(916.667,0,o),
(1050,107.667,o),
(1050,323,cs),
(1050,778,ls),
(1050,859.333,o),
(1004,900,o),
(912,900,cs),
(784,900,o),
(720,833.333,o),
(720,700,cs),
(720,580,o),
(784,520,o),
(912,520,cs),
(1002,520,l),
(1002,570,l),
(912,570,ls),
(817.333,570,o),
(770,613.333,o),
(770,700,cs),
(770,800,o),
(817.333,850,o),
(912,850,cs),
(965.333,850,o),
(992,826,o),
(992,778,cs),
(992,323,ls),
(992,141,o),
(878,50,o),
(650,50,cs),
(422,50,o),
(308,141,o),
(308,323,cs),
(308,850,l),
(162,1048,l),
(230,1150,l),
(1050,1150,l),
(1050,1200,l),
(203,1200,l),
(121,1077,ls),
(113,1065,o),
(109,1054.333,o),
(109,1045,cs),
(109,1035,o),
(115,1022,o),
(127,1006,cs),
(250,836,l),
(250,323,ls),
(250,107.667,o),
(383.333,0,o),
(650,0,cs)
);
}
);
width = 1300;
}
);
note = uni1785;
unicode = 6021;
},
{
glyphname = uni1786;
lastChange = "2025-05-02 13:15:26 +0000";
layers = (
{
layerId = m01;
shapes = (
{
closed = 1;
nodes = (
(433.333,0,o),
(520,64,o),
(520,192,cs),
(520,820,l),
(237,974,l),
(263,1012,l),
(1200,1012,l),
(1200,1250,l),
(168,1250,l),
(39,1025,ls),
(26.333,1003,o),
(20,979.667,o),
(20,955,cs),
(20,927.667,o),
(29.333,903.333,o),
(48,882,cs),
(132,786,l),
(132,192,ls),
(132,170.667,o),
(126.667,160,o),
(116,160,cs),
(105.333,160,o),
(100,175,o),
(100,205,cs),
(100,243,o),
(107.333,262,o),
(122,262,cs),
(564,262,l),
(621.333,91.333,o),
(703.333,0,o),
(890,0,cs),
(1096.667,0,o),
(1200,107.667,o),
(1200,323,cs),
(1200,728,ls),
(1200,836,o),
(1100.333,890,o),
(901,890,cs),
(701.667,890,o),
(602,823.667,o),
(602,691,cs),
(602,558.333,o),
(665.333,492,o),
(792,492,cs),
(827,492,l),
(827,630,l),
(792,630,ls),
(764,630,o),
(750,650.333,o),
(750,691,cs),
(750,731.667,o),
(763.667,752,o),
(791,752,cs),
(805,752,o),
(812,744,o),
(812,728,cs),
(812,323,ls),
(812,239.667,o),
(804.667,198,o),
(790,198,cs),
(773.333,198,o),
(753.833,213.5,o),
(731.5,244.5,cs),
(709.167,275.5,o),
(684,337.333,o),
(656,430,c),
(122,430,ls),
(40.667,430,o),
(0,365,o),
(0,235,cs),
(0,78.333,o),
(86.667,0,o),
(260,0,cs)
);
}
);
width = 1300;
},
{
layerId = "A52C9687-8F69-441E-A346-B6B4B01C4528";
shapes = (
{
closed = 1;
nodes = (
(331.333,0,o),
(388,47.333,o),
(388,142,cs),
(388,820,l),
(237,992,l),
(288,1062,l),
(1100,1062,l),
(1100,1200,l),
(258,1200,l),
(118,1017,ls),
(106,1000.333,o),
(100,979.667,o),
(100,955,cs),
(100,927.667,o),
(112,898.667,o),
(136,868,cs),
(200,786,l),
(200,142,ls),
(200,120.667,o),
(191.333,110,o),
(174,110,cs),
(156.667,110,o),
(148,141.667,o),
(148,205,cs),
(148,243,o),
(162,262,o),
(190,262,cs),
(504,262,l),
(561.333,131.333,o),
(673.333,0,o),
(820,0,cs),
(1006.667,0,o),
(1100,107.667,o),
(1100,323,cs),
(1100,743,ls),
(1100,847.667,o),
(1032,900,o),
(896,900,cs),
(766.667,900,o),
(702,833.667,o),
(702,701,cs),
(702,568.333,o),
(765.333,502,o),
(892,502,cs),
(930,502,l),
(930,640,l),
(892,640,ls),
(844,640,o),
(820,660.333,o),
(820,701,cs),
(820,741.667,o),
(845.333,762,o),
(896,762,cs),
(906.667,762,o),
(912,755.667,o),
(912,743,cs),
(912,323,ls),
(912,199.667,o),
(881.333,138,o),
(820,138,cs),
(776.667,138,o),
(738.833,156.833,o),
(706.5,194.5,cs),
(674.167,232.167,o),
(637.333,300.667,o),
(596,400,c),
(190,400,ls),
(95.333,400,o),
(48,335,o),
(48,205,cs),
(48,68.333,o),
(104.667,0,o),
(218,0,cs)
);
}
);
width = 1300;
},
{
layerId = "74807A0F-D47B-485E-A88B-DED3F6679B72";
shapes = (
{
closed = 1;
nodes = (
(278.667,0,o),
(308,27.333,o),
(308,82,cs),
(308,850,l),
(162,1048,l),
(230,1150,l),
(1050,1150,l),
(1050,1200,l),
(203,1200,l),
(121,1077,ls),
(113,1065,o),
(109,1054.333,o),
(109,1045,cs),
(109,1035,o),
(115,1022,o),
(127,1006,cs),
(250,836,l),
(250,82,ls),
(250,60.667,o),
(240,50,o),
(220,50,cs),
(165.333,50,o),
(138,101.667,o),
(138,205,cs),
(138,268.333,o),
(172,300,o),
(240,300,cs),
(554,300,l),
(611.333,118.667,o),
(726.667,0,o),
(820,0,cs),
(973.333,0,o),
(1050,107.667,o),
(1050,323,cs),
(1050,778,ls),
(1050,859.333,o),
(1004,900,o),
(912,900,cs),
(784,900,o),
(720,833.333,o),
(720,700,cs),
(720,580,o),
(784,520,o),
(912,520,cs),
(1002,520,l),
(1002,570,l),
(912,570,ls),
(817.333,570,o),
(770,613.333,o),
(770,700,cs),
(770,800,o),
(817.333,850,o),
(912,850,cs),
(965.333,850,o),
(992,826,o),
(992,778,cs),
(992,323,ls),
(992,141,o),
(934.667,50,o),
(820,50,cs),
(781,50,o),
(738,78,o),
(700,124,cs),
(652,180,o),
(612,262,o),
(596,350,c),
(240,350,ls),
(138.667,350,o),
(88,301.667,o),
(88,205,cs),
(88,68.333,o),
(132,0,o),
(220,0,cs)
);
}
);
width = 1300;
}
);
note = uni1786;
unicode = 6022;
},
{
glyphname = uni1787;
lastChange = "2025-05-02 13:15:02 +0000";
layers = (
{
layerId = m01;
shapes = (
{
closed = 1;
nodes = (
(469,0,l),
(651,180,l),
(832,0,l),
(1200,0,l),
(1200,893,l),
(812,893,l),
(812,321,l),
(691,444,l),
(610,444,l),
(488,321,l),
(488,820,l),
(237,974,l),
(263,1012,l),
(930,1012,ls),
(1110,1012,o),
(1200,1091.333,o),
(1200,1250,cs),
(1200,1400,l),
(812,1400,l),
(812,1300,ls),
(812,1266.667,o),
(791.333,1250,o),
(750,1250,cs),
(218,1250,l),
(70,1057,ls),
(36.667,1013.667,o),
(20,979.667,o),
(20,955,cs),
(20,927.667,o),
(33.333,892.667,o),
(60,850,cs),
(100,786,l),
(100,0,l),
(100,0,l)
);
}
);
width = 1300;
},
{
layerId = "A52C9687-8F69-441E-A346-B6B4B01C4528";
shapes = (
{
closed = 1;
nodes = (
(419,0,l),
(651,248,l),
(882,0,l),
(1100,0,l),
(1100,923,l),
(912,923,l),
(912,180,l),
(672,420,l),
(630,420,l),
(388,180,l),
(388,820,l),
(237,992,l),
(293,1062,l),
(800,1062,ls),
(1000,1062,o),
(1100,1124.667,o),
(1100,1250,cs),
(1100,1400,l),
(912,1400,l),
(912,1250,ls),
(912,1216.667,o),
(874.667,1200,o),
(800,1200,cs),
(258,1200,l),
(118,1017,ls),
(106,1000.333,o),
(100,979.667,o),
(100,955,cs),
(100,927.667,o),
(112,898.667,o),
(136,868,cs),
(200,786,l),
(200,0,l),
(200,0,l)
);
}
);
width = 1300;
},
{
layerId = "74807A0F-D47B-485E-A88B-DED3F6679B72";
shapes = (
{
closed = 1;
nodes = (
(323,0,l),
(651,348,l),
(979,0,l),
(1050,0,l),
(1050,923,l),
(992,923,l),
(992,59,l),
(672,400,l),
(630,400,l),
(308,58,l),
(308,850,l),
(162,1048,l),
(230,1150,l),
(800,1150,ls),
(966.667,1150,o),
(1050,1193.333,o),
(1050,1280,cs),
(1050,1400,l),
(992,1400,l),
(992,1280,ls),
(992,1226.667,o),
(928,1200,o),
(800,1200,cs),
(203,1200,l),
(121,1077,ls),
(113,1065,o),
(109,1054.333,o),
(109,1045,cs),
(109,1035,o),
(115,1022,o),
(127,1006,cs),
(250,836,l),
(250,0,l),
(250,0,l)
);
}
);
width = 1300;
}
);
note = uni1787;
unicode = 6023;
},
{
glyphname = uni1788;
lastChange = "2025-05-02 13:15:02 +0000";
layers = (
{
layerId = m01;
shapes = (
{
closed = 1;
nodes = (
(573.333,0,o),
(668,86.333,o),
(668,259,cs),
(668,397.667,o),
(608,467,o),
(488,467,cs),
(474,467,l),
(474,323,l),
(488,323,ls),
(529.333,323,o),
(550,301.667,o),
(550,259,cs),
(550,189,o),
(534,154,o),
(502,154,cs),
(492.667,154,o),
(488,160.667,o),
(488,174,cs),
(488,914,ls),
(488,979.333,o),
(533.667,1012,o),
(625,1012,cs),
(716.333,1012,o),
(762,979.333,o),
(762,914,cs),
(762,336,ls),
(762,112,o),
(937,0,o),
(1287,0,cs),
(1437,0,o),
(1547.333,34,o),
(1618,102,c),
(1688.667,34,o),
(1797,0,o),
(1943,0,cs),
(2289,0,o),
(2462,112,o),
(2462,336,cs),
(2462,840,l),
(2201,991,l),
(2213,1012,l),
(2462,1012,l),
(2462,1250,l),
(2034,1250,l),
(1938,1087,ls),
(1916.667,1051,o),
(1906,1026,o),
(1906,1012,cs),
(1906,993.333,o),
(1920,969.333,o),
(1948,940,cs),
(2074,806,l),
(2074,336,ls),
(2074,270.667,o),
(2030.333,238,o),
(1943,238,cs),
(1855.667,238,o),
(1812,270.667,o),
(1812,336,cs),
(1812,840,l),
(1551,991,l),
(1563,1012,l),
(1812,1012,l),
(1812,1250,l),
(1384,1250,l),
(1288,1087,ls),
(1266.667,1051,o),
(1256,1026,o),
(1256,1012,cs),
(1256,993.333,o),
(1270,969.333,o),
(1298,940,cs),
(1424,806,l),
(1424,336,ls),
(1424,270.667,o),
(1378.333,238,o),
(1287,238,cs),
(1195.667,238,o),
(1150,270.667,o),
(1150,336,cs),
(1150,914,ls),
(1150,1138,o),
(975,1250,o),
(625,1250,cs),
(275,1250,o),
(100,1138,o),
(100,914,cs),
(100,127,ls),
(100,42.333,o),
(194.667,0,o),
(384,0,cs)
);
}
);
width = 2562;
},
{
layerId = "A52C9687-8F69-441E-A346-B6B4B01C4528";
shapes = (
{
closed = 1;
nodes = (
(528,0,o),
(598,83,o),
(598,249,cs),
(598,381.667,o),
(531.333,448,o),
(398,448,cs),
(365,448,l),
(365,310,l),
(398,310,ls),
(452.667,310,o),
(480,289.667,o),
(480,249,cs),
(480,175,o),
(456.667,138,o),
(410,138,cs),
(395.333,138,o),
(388,145.667,o),
(388,161,cs),
(388,877,ls),
(388,1000.333,o),
(467,1062,o),
(625,1062,cs),
(783,1062,o),
(862,1000.333,o),
(862,877,cs),
(862,323,ls),
(862,107.667,o),
(1003.667,0,o),
(1287,0,cs),
(1437,0,o),
(1547.333,32.667,o),
(1618,98,c),
(1688.667,32.667,o),
(1797,0,o),
(1943,0,cs),
(2222.333,0,o),
(2362,107.667,o),
(2362,323,cs),
(2362,840,l),
(2145,1034,l),
(2166,1062,l),
(2362,1062,l),
(2362,1200,l),
(2114,1200,l),
(2002,1053,ls),
(1991.333,1039.667,o),
(1986,1026,o),
(1986,1012,cs),
(1986,993.333,o),
(1996.333,974.333,o),
(2017,955,cs),
(2174,806,l),
(2174,323,ls),
(2174,199.667,o),
(2097,138,o),
(1943,138,cs),
(1789,138,o),
(1712,199.667,o),
(1712,323,cs),
(1712,840,l),
(1495,1034,l),
(1516,1062,l),
(1712,1062,l),
(1712,1200,l),
(1464,1200,l),
(1352,1053,ls),
(1341.333,1039.667,o),
(1336,1026,o),
(1336,1012,cs),
(1336,993.333,o),
(1346.333,974.333,o),
(1367,955,cs),
(1524,806,l),
(1524,323,ls),
(1524,199.667,o),
(1445,138,o),
(1287,138,cs),
(1129,138,o),
(1050,199.667,o),
(1050,323,cs),
(1050,877,ls),
(1050,1092.333,o),
(908.333,1200,o),
(625,1200,cs),
(341.667,1200,o),
(200,1092.333,o),
(200,877,cs),
(200,161,ls),
(200,53.667,o),
(262.667,0,o),
(388,0,cs)
);
}
);
width = 2562;
},
{
layerId = "74807A0F-D47B-485E-A88B-DED3F6679B72";
shapes = (
{
closed = 1;
nodes = (
(496,0,o),
(550,83,o),
(550,249,cs),
(550,349.667,o),
(496,400,o),
(388,400,cs),
(288,400,l),
(288,350,l),
(388,350,ls),
(462.667,350,o),
(500,316.333,o),
(500,249,cs),
(500,116.333,o),
(462.667,50,o),
(388,50,cs),
(334.667,50,o),
(308,74,o),
(308,122,cs),
(308,877,ls),
(308,1059,o),
(411.333,1150,o),
(618,1150,cs),
(824,1150,o),
(927,1059,o),
(927,877,cs),
(927,323,ls),
(927,107.667,o),
(1047.333,0,o),
(1288,0,cs),
(1460,0,o),
(1570.333,55.333,o),
(1619,166,c),
(1667.667,55.333,o),
(1778.333,0,o),
(1951,0,cs),
(2191.667,0,o),
(2312,107.667,o),
(2312,323,cs),
(2312,830,l),
(2065,1050,l),
(2117,1150,l),
(2312,1150,l),
(2312,1200,l),
(2094,1200,l),
(2036,1105,ls),
(2022.667,1083.667,o),
(2016,1066,o),
(2016,1052,cs),
(2016,1033.333,o),
(2026,1015,o),
(2046,997,cs),
(2254,806,l),
(2254,323,ls),
(2254,141,o),
(2153,50,o),
(1951,50,cs),
(1749,50,o),
(1648,141,o),
(1648,323,cs),
(1648,830,l),
(1401,1050,l),
(1453,1150,l),
(1648,1150,l),
(1648,1200,l),
(1430,1200,l),
(1372,1105,ls),
(1358.667,1083.667,o),
(1352,1066,o),
(1352,1052,cs),
(1352,1033.333,o),
(1362,1015,o),
(1382,997,cs),
(1590,806,l),
(1590,323,ls),
(1590,141,o),
(1489.333,50,o),
(1288,50,cs),
(1086,50,o),
(985,141,o),
(985,323,cs),
(985,877,ls),
(985,1092.333,o),
(862.667,1200,o),
(618,1200,cs),
(372.667,1200,o),
(250,1092.333,o),
(250,877,cs),
(250,122,ls),
(250,40.667,o),
(296,0,o),
(388,0,cs)
);
}
);
width = 2562;
}
);
note = uni1788;
unicode = 6024;
},
{
glyphname = uni1789;
lastChange = "2025-05-02 13:17:50 +0000";
layers = (
{
layerId = m01;
shapes = (
{
closed = 1;
nodes = (
(573.333,0,o),
(668,86.333,o),
(668,259,cs),
(668,397.667,o),
(608,467,o),
(488,467,cs),
(474,467,l),
(474,323,l),
(488,323,ls),
(529.333,323,o),
(550,301.667,o),
(550,259,cs),
(550,189,o),
(534,154,o),
(502,154,cs),
(492.667,154,o),
(488,160.667,o),
(488,174,cs),
(488,923,ls),
(488,961.667,o),
(499.667,980,o),
(521,980,cs),
(543,980,o),
(566.333,965.333,o),
(591,936,cs),
(609,915.333,o),
(628.667,905,o),
(650,905,cs),
(671.333,905,o),
(691,915.333,o),
(709,936,cs),
(733.667,965.333,o),
(757.333,980,o),
(780,980,cs),
(801.333,980,o),
(812,961.667,o),
(812,923,cs),
(812,0,l),
(1200,0,l),
(1200,973,ls),
(1200,1123.667,o),
(1032.333,1250,o),
(907,1250,cs),
(810.333,1250,o),
(724.667,1208.667,o),
(650,1126,c),
(576,1208.667,o),
(491,1250,o),
(395,1250,cs),
(268.333,1250,o),
(100,1123.667,o),
(100,973,cs),
(100,127,ls),
(100,42.333,o),
(194.667,0,o),
(384,0,cs)
);
},
{
closed = 1;
nodes = (
(1717.333,-500,o),
(1850,-420,o),
(1850,-260,cs),
(1850,-100,l),
(1360,-100,l),
(1360,-220,l),
(1462,-220,l),
(1462,-260,ls),
(1462,-286.667,o),
(1438.667,-300,o),
(1392,-300,cs),
(1318,-300,o),
(1225.333,-266.667,o),
(1114,-200,cs),
(1002.667,-133.333,o),
(831.333,-100,o),
(600,-100,cs),
(100,-100,l),
(100,-300,l),
(600,-300,ls),
(776,-300,o),
(917.5,-333.333,o),
(1024.5,-400,cs),
(1131.5,-466.667,o),
(1274,-500,o),
(1452,-500,cs)
);
},
{
closed = 1;
nodes = (
(1850,0,l),
(1850,927,ls),
(1850,1111,o),
(1679.667,1250,o),
(1401,1250,cs),
(1244.333,1250,o),
(1105.667,1136,o),
(985,908,c),
(1160,827,l),
(1204.667,950.333,o),
(1278.333,1012,o),
(1381,1012,cs),
(1453,1012,o),
(1462,957,o),
(1462,877,cs),
(1462,0,l)
);
}
);
width = 1950;
},
{
layerId = "A52C9687-8F69-441E-A346-B6B4B01C4528";
shapes = (
{
closed = 1;
nodes = (
(528,0,o),
(598,83,o),
(598,249,cs),
(598,381.667,o),
(531.333,448,o),
(398,448,cs),
(365,448,l),
(365,310,l),
(398,310,ls),
(452.667,310,o),
(480,289.667,o),
(480,249,cs),
(480,175,o),
(456.667,138,o),
(410,138,cs),
(395.333,138,o),
(388,145.667,o),
(388,161,cs),
(388,923,ls),
(388,1008.333,o),
(413,1050,o),
(461,1050,cs),
(493.667,1050,o),
(537,1018.667,o),
(591,956,cs),
(609,935.333,o),
(628.667,925,o),
(650,925,cs),
(671.333,925,o),
(691,935.333,o),
(709,956,cs),
(763.667,1018.667,o),
(807.333,1050,o),
(840,1050,cs),
(888,1050,o),
(912,1008.333,o),
(912,923,cs),
(912,0,l),
(1100,0,l),
(1100,923,ls),
(1100,1073.667,o),
(982.333,1200,o),
(857,1200,cs),
(793.667,1200,o),
(724.667,1158.667,o),
(650,1076,c),
(576,1158.667,o),
(507.667,1200,o),
(445,1200,cs),
(318.333,1200,o),
(200,1073.667,o),
(200,923,cs),
(200,161,ls),
(200,53.667,o),
(262.667,0,o),
(388,0,cs)
);
},
{
closed = 1;
nodes = (
(1640.667,-500,o),
(1750,-420,o),
(1750,-260,cs),
(1750,-100,l),
(1400,-100,l),
(1400,-220,l),
(1562,-220,l),
(1562,-260,ls),
(1562,-340,o),
(1515.333,-380,o),
(1422,-380,cs),
(1328,-380,o),
(1225.333,-346.667,o),
(1114,-280,cs),
(1002.667,-213.333,o),
(831.333,-180,o),
(600,-180,cs),
(200,-180,l),
(200,-300,l),
(600,-300,ls),
(776,-300,o),
(917.5,-333.333,o),
(1024.5,-400,cs),
(1131.5,-466.667,o),
(1264,-500,o),
(1422,-500,cs)
);
},
{
closed = 1;
nodes = (
(1750,0,l),
(1750,877,ls),
(1750,1061,o),
(1616.333,1200,o),
(1351,1200,cs),
(1227.667,1200,o),
(1115.667,1129.333,o),
(1015,988,c),
(1090,877,l),
(1174.667,1000.333,o),
(1261.667,1062,o),
(1351,1062,cs),
(1476.333,1062,o),
(1562,999.667,o),
(1562,877,cs),
(1562,0,l)
);
}
);
width = 1950;
},
{
layerId = "74807A0F-D47B-485E-A88B-DED3F6679B72";
shapes = (
{
closed = 1;
nodes = (
(496,0,o),
(550,83,o),
(550,249,cs),
(550,349.667,o),
(496,400,o),
(388,400,cs),
(288,400,l),
(288,350,l),
(388,350,ls),
(462.667,350,o),
(500,316.333,o),
(500,249,cs),
(500,116.333,o),
(462.667,50,o),
(388,50,cs),
(334.667,50,o),
(308,74,o),
(308,122,cs),
(308,923,ls),
(308,1075,o),
(354.333,1150,o),
(445,1150,cs),
(484.333,1150,o),
(533.667,1111.333,o),
(593,1034,cs),
(612.333,1008,o),
(631.333,995,o),
(650,995,cs),
(668.667,995,o),
(688,1008,o),
(708,1034,cs),
(767.333,1111.333,o),
(817,1150,o),
(857,1150,cs),
(947.667,1150,o),
(992,1075,o),
(992,923,cs),
(992,0,l),
(1050,0,l),
(1050,923,ls),
(1050,1095,o),
(973,1200,o),
(857,1200,cs),
(793.667,1200,o),
(724.667,1152,o),
(650,1056,c),
(576,1152,o),
(507.667,1200,o),
(445,1200,cs),
(329,1200,o),
(250,1095,o),
(250,923,cs),
(250,122,ls),
(250,40.667,o),
(296,0,o),
(388,0,cs)
);
},
{
closed = 1;
nodes = (
(1607.333,-500,o),
(1700,-420,o),
(1700,-260,cs),
(1700,-100,l),
(1400,-100,l),
(1400,-150,l),
(1642,-150,l),
(1642,-260,ls),
(1642,-386.667,o),
(1568.667,-450,o),
(1422,-450,cs),
(1294.667,-450,o),
(1168.667,-408.333,o),
(1044,-325,cs),
(919.333,-241.667,o),
(771.333,-200,o),
(600,-200,cs),
(250,-200,l),
(250,-250,l),
(600,-250,ls),
(762.667,-250,o),
(905.833,-291.667,o),
(1029.5,-375,cs),
(1153.167,-458.333,o),
(1284,-500,o),
(1422,-500,cs)
);
},
{
closed = 1;
nodes = (
(1700,0,l),
(1700,877,ls),
(1700,1079.667,o),
(1574.333,1200,o),
(1361,1200,cs),
(1215.667,1200,o),
(1099,1130,o),
(1011,990,c),
(1039,956,l),
(1123.667,1085.333,o),
(1231,1150,o),
(1361,1150,cs),
(1549,1150,o),
(1642,1059.667,o),
(1642,877,cs),
(1642,0,l)
);
}
);
width = 1950;
}
);
note = uni1789;
unicode = 6025;
},
{
glyphname = uni178A;
lastChange = "2025-05-02 13:15:02 +0000";
layers = (
{
layerId = m01;
shapes = (
{
closed = 1;
nodes = (
(469,0,l),
(651,180,l),
(832,0,l),
(1200,0,l),
(1200,823,l),
(812,823,l),
(812,321,l),
(691,444,l),
(610,444,l),
(488,321,l),
(488,823,l),
(100,823,l),
(100,0,l),
(100,0,l)
);
},
{
closed = 1;
nodes = (
(960,932,ls),
(1120,932,o),
(1200,1028,o),
(1200,1220,cs),
(1200,1400,l),
(812,1400,l),
(812,1220,ls),
(812,1186.667,o),
(774.667,1170,o),
(700,1170,cs),
(488,1170,l),
(488,1250,l),
(100,1250,l),
(100,932,l),
(100,932,l)
);
}
);
width = 1300;
},
{
layerId = "A52C9687-8F69-441E-A346-B6B4B01C4528";
shapes = (
{
closed = 1;
nodes = (
(419,0,l),
(651,248,l),
(882,0,l),
(1100,0,l),
(1100,823,l),
(912,823,l),
(912,180,l),
(672,420,l),
(630,420,l),
(388,180,l),
(388,823,l),
(200,823,l),
(200,0,l),
(200,0,l)
);
},
{
closed = 1;
nodes = (
(800,962,ls),
(1000,962,o),
(1100,1024.667,o),
(1100,1150,cs),
(1100,1400,l),
(912,1400,l),
(912,1150,ls),
(912,1116.667,o),
(874.667,1100,o),
(800,1100,cs),
(388,1100,l),
(388,1250,l),
(200,1250,l),
(200,962,l),
(200,962,l)
);
}
);
width = 1300;
},
{
layerId = "74807A0F-D47B-485E-A88B-DED3F6679B72";
shapes = (
{
closed = 1;
nodes = (
(323,0,l),
(651,348,l),
(979,0,l),
(1050,0,l),
(1050,823,l),
(992,823,l),
(992,59,l),
(672,400,l),
(630,400,l),
(308,58,l),
(308,823,l),
(250,823,l),
(250,0,l),
(250,0,l)
);
},
{
closed = 1;
nodes = (
(800,970,ls),
(966.667,970,o),
(1050,1030,o),
(1050,1150,cs),
(1050,1400,l),
(992,1400,l),
(992,1150,ls),
(992,1063.333,o),
(928,1020,o),
(800,1020,cs),
(308,1020,l),
(308,1250,l),
(250,1250,l),
(250,970,l),
(250,970,l)
);
}
);
width = 1300;
}
);
note = uni178A;
unicode = 6026;
},
{
glyphname = uni178B;
lastChange = "2025-05-02 13:15:02 +0000";
layers = (
{
layerId = m01;
shapes = (
{
closed = 1;
nodes = (
(1016.667,0,o),
(1200,107.667,o),
(1200,323,cs),
(1200,840,l),
(939,991,l),
(951,1012,l),
(1110,1012,ls),
(1223.333,1012,o),
(1280,1091.333,o),
(1280,1250,cs),
(1280,1400,l),
(952,1400,l),
(952,1300,ls),
(952,1266.667,o),
(938,1250,o),
(910,1250,cs),
(772,1250,l),
(691,1087,ls),
(673,1051,o),
(664,1026,o),
(664,1012,cs),
(664,993.333,o),
(676.333,969.333,o),
(701,940,cs),
(812,806,l),
(812,323,ls),
(812,233,o),
(758,188,o),
(650,188,cs),
(542,188,o),
(488,233,o),
(488,323,cs),
(488,1128,ls),
(488,1209.333,o),
(438,1250,o),
(338,1250,cs),
(29,1250,l),
(29,1012,l),
(65,1012,ls),
(88.333,1012,o),
(100,996.333,o),
(100,965,cs),
(100,323,ls),
(100,107.667,o),
(283.333,0,o),
(650,0,cs)
);
}
);
width = 1300;
},
{
layerId = "A52C9687-8F69-441E-A346-B6B4B01C4528";
shapes = (
{
closed = 1;
nodes = (
(950,0,o),
(1100,107.667,o),
(1100,323,cs),
(1100,840,l),
(769,1045,l),
(782,1062,l),
(842,1062,ls),
(1014,1062,o),
(1100,1124.667,o),
(1100,1250,cs),
(1100,1400,l),
(912,1400,l),
(912,1250,ls),
(912,1216.667,o),
(888.667,1200,o),
(842,1200,cs),
(742,1200,l),
(630,1053,ls),
(619.333,1039.667,o),
(614,1026,o),
(614,1012,cs),
(614,993.333,o),
(624.333,974.333,o),
(645,955,c),
(912,746,l),
(912,323,ls),
(912,199.667,o),
(824.667,138,o),
(650,138,cs),
(475.333,138,o),
(388,199.667,o),
(388,323,cs),
(388,1098,ls),
(388,1166,o),
(338,1200,o),
(238,1200,cs),
(80,1200,l),
(80,1062,l),
(140,1062,ls),
(180,1062,o),
(200,1046.333,o),
(200,1015,cs),
(200,323,ls),
(200,107.667,o),
(350,0,o),
(650,0,cs)
);
}
);
width = 1300;
},
{
layerId = "74807A0F-D47B-485E-A88B-DED3F6679B72";
shapes = (
{
closed = 1;
nodes = (
(916.667,0,o),
(1050,107.667,o),
(1050,323,cs),
(1050,833,l),
(803,1045,l),
(855,1150,l),
(942,1150,ls),
(1027.333,1150,o),
(1070,1186.667,o),
(1070,1260,cs),
(1070,1400,l),
(1012,1400,l),
(1012,1260,ls),
(1012,1220,o),
(988.667,1200,o),
(942,1200,cs),
(824,1200,l),
(772,1097,ls),
(760,1073.667,o),
(754,1055.333,o),
(754,1042,cs),
(754,1026.667,o),
(764,1010.333,o),
(784,993,cs),
(992,813,l),
(992,323,ls),
(992,141,o),
(878,50,o),
(650,50,cs),
(422,50,o),
(308,141,o),
(308,323,cs),
(308,1048,ls),
(308,1149.333,o),
(258.667,1200,o),
(160,1200,cs),
(89,1200,l),
(89,1150,l),
(160,1150,ls),
(220,1150,o),
(250,1116,o),
(250,1048,cs),
(250,323,ls),
(250,107.667,o),
(383.333,0,o),
(650,0,cs)
);
}
);
width = 1300;
}
);
note = uni178B;
unicode = 6027;
},
{
glyphname = uni178C;
lastChange = "2025-05-02 13:18:05 +0000";
layers = (
{
layerId = m01;
shapes = (
{
closed = 1;
nodes = (
(1200,-50,l),
(1200,480,l),
(812,480,l),
(812,403,l),
(727.333,293,o),
(639,238,o),
(547,238,cs),
(507.667,238,o),
(488,266.333,o),
(488,323,cs),
(488,453,l),
(533,460,ls),
(977.667,530,o),
(1200,669,o),
(1200,877,cs),
(1200,953,ls),
(1200,1130.333,o),
(1095.667,1250,o),
(917,1250,cs),
(813.667,1250,o),
(724.667,1208.667,o),
(650,1126,c),
(576,1208.667,o),
(487.667,1250,o),
(385,1250,cs),
(191.667,1250,o),
(100,1130.333,o),
(100,953,cs),
(100,893,ls),
(100,777,o),
(246,719,o),
(538,719,c),
(538,863,l),
(504.667,863,o),
(488,874.333,o),
(488,897,cs),
(488,953,ls),
(488,985,o),
(496.667,1000,o),
(514,1000,cs),
(524.667,1000,o),
(554.667,973.667,o),
(604,921,cs),
(620,903.667,o),
(635.333,895,o),
(650,895,cs),
(664.667,895,o),
(680.333,903.667,o),
(697,921,cs),
(746.333,973.667,o),
(776.333,1000,o),
(787,1000,cs),
(804.333,1000,o),
(812,985,o),
(812,953,cs),
(812,877,ls),
(812,750.333,o),
(686,671,o),
(434,639,cs),
(100,596,l),
(100,323,ls),
(100,107.667,o),
(210,0,o),
(430,0,cs),
(556.667,0,o),
(684,51,o),
(812,153,c),
(812,-50,l)
);
}
);
width = 1300;
},
{
layerId = "A52C9687-8F69-441E-A346-B6B4B01C4528";
shapes = (
{
closed = 1;
nodes = (
(1100,-50,l),
(1100,480,l),
(912,480,l),
(912,403,l),
(794,226.333,o),
(661.667,138,o),
(515,138,cs),
(430.333,138,o),
(388,199.667,o),
(388,323,cs),
(388,473,l),
(566,499,ls),
(922,549.667,o),
(1100,675.667,o),
(1100,877,cs),
(1100,923,ls),
(1100,1073.667,o),
(982.333,1200,o),
(857,1200,cs),
(793.667,1200,o),
(724.667,1158.667,o),
(650,1076,c),
(576,1158.667,o),
(507.667,1200,o),
(445,1200,cs),
(318.333,1200,o),
(200,1073.667,o),
(200,923,cs),
(200,873,ls),
(200,770.333,o),
(296,719,o),
(488,719,c),
(488,863,l),
(421.333,863,o),
(388,874.333,o),
(388,897,cs),
(388,923,ls),
(388,1012.333,o),
(413,1050,o),
(461,1050,cs),
(493.667,1050,o),
(537,1018.667,o),
(591,956,cs),
(609,935.333,o),
(628.667,925,o),
(650,925,cs),
(671.333,925,o),
(691,935.333,o),
(709,956,cs),
(763.667,1018.667,o),
(807.333,1050,o),
(840,1050,cs),
(907,1050,o),
(912,990,o),
(912,923,cs),
(912,877,ls),
(912,750.333,o),
(793.333,670,o),
(556,636,cs),
(200,586,l),
(200,323,ls),
(200,107.667,o),
(300,0,o),
(500,0,cs),
(653.333,0,o),
(790.667,64.333,o),
(912,193,c),
(912,-50,l)
);
}
);
width = 1300;
},
{
layerId = "74807A0F-D47B-485E-A88B-DED3F6679B72";
shapes = (
{
closed = 1;
nodes = (
(1050,-50,l),
(1050,480,l),
(992,480,l),
(992,323,l),
(898.667,141,o),
(744.667,50,o),
(530,50,cs),
(382,50,o),
(308,141,o),
(308,323,cs),
(308,509,l),
(566,552,ls),
(888.667,605.333,o),
(1050,713.667,o),
(1050,877,cs),
(1050,923,ls),
(1050,1095,o),
(973,1200,o),
(857,1200,cs),
(793.667,1200,o),
(724.667,1152,o),
(650,1056,c),
(576,1152,o),
(507.667,1200,o),
(445,1200,cs),
(329,1200,o),
(250,1095,o),
(250,923,cs),
(250,877,ls),
(250,771.667,o),
(312.667,719,o),
(438,719,c),
(438,773,l),
(351.333,773,o),
(308,807.667,o),
(308,877,cs),
(308,923,ls),
(308,1075,o),
(354.333,1150,o),
(445,1150,cs),
(484.333,1150,o),
(533.667,1111.333,o),
(593,1034,cs),
(612.333,1008,o),
(631.333,995,o),
(650,995,cs),
(668.667,995,o),
(688,1008,o),
(708,1034,cs),
(767.333,1111.333,o),
(817,1150,o),
(857,1150,cs),
(947.667,1150,o),
(992,1075,o),
(992,923,cs),
(992,877,ls),
(992,741,o),
(846.667,649,o),
(556,601,cs),
(250,551,l),
(250,323,ls),
(250,107.667,o),
(343.333,0,o),
(530,0,cs),
(734,0,o),
(888,74,o),
(992,222,c),
(992,-50,l)
);
}
);
width = 1300;
}
);
note = uni178C;
unicode = 6028;
},
{
glyphname = uni178D;
lastChange = "2025-05-02 13:15:02 +0000";
layers = (
{
layerId = m01;
shapes = (
{
closed = 1;
nodes = (
(573.333,0,o),
(668,86.333,o),
(668,259,cs),
(668,397.667,o),
(608,467,o),
(488,467,cs),
(474,467,l),
(474,323,l),
(488,323,ls),
(529.333,323,o),
(550,301.667,o),
(550,259,cs),
(550,189,o),
(534,154,o),
(502,154,cs),
(492.667,154,o),
(488,160.667,o),
(488,174,cs),
(488,923,ls),
(488,961.667,o),
(499.667,980,o),
(521,980,cs),
(543,980,o),
(566.333,965.333,o),
(591,936,cs),
(609,915.333,o),
(628.667,905,o),
(650,905,cs),
(671.333,905,o),
(691,915.333,o),
(709,936,cs),
(733.667,965.333,o),
(757.333,980,o),
(780,980,cs),
(801.333,980,o),
(812,961.667,o),
(812,923,cs),
(812,0,l),
(1200,0,l),
(1200,973,ls),
(1200,1123.667,o),
(1032.333,1250,o),
(907,1250,cs),
(810.333,1250,o),
(724.667,1208.667,o),
(650,1126,c),
(576,1208.667,o),
(491,1250,o),
(395,1250,cs),
(268.333,1250,o),
(100,1123.667,o),
(100,973,cs),
(100,127,ls),
(100,42.333,o),
(194.667,0,o),
(384,0,cs)
);
},
{
closed = 1;
nodes = (
(1673.333,0,o),
(1800,107.667,o),
(1800,323,cs),
(1800,840,l),
(1539,991,l),
(1551,1012,l),
(1800,1012,l),
(1800,1250,l),
(1372,1250,l),
(1276,1087,ls),
(1254.667,1051,o),
(1244,1026,o),
(1244,1012,cs),
(1244,993.333,o),
(1258,969.333,o),
(1286,940,cs),
(1412,806,l),
(1412,323,ls),
(1412,266.333,o),
(1398,238,o),
(1370,238,cs),
(1342,238,o),
(1311.333,266.333,o),
(1278,323,cs),
(1236,400,l),
(1180,400,l),
(1180,89,l),
(1244.667,29.667,o),
(1324.667,0,o),
(1420,0,cs)
);
}
);
width = 1900;
},
{
layerId = "A52C9687-8F69-441E-A346-B6B4B01C4528";
shapes = (
{
closed = 1;
nodes = (
(528,0,o),
(598,83,o),
(598,249,cs),
(598,381.667,o),
(531.333,448,o),
(398,448,cs),
(365,448,l),
(365,310,l),
(398,310,ls),
(452.667,310,o),
(480,289.667,o),
(480,249,cs),
(480,175,o),
(456.667,138,o),
(410,138,cs),
(395.333,138,o),
(388,145.667,o),
(388,161,cs),
(388,923,ls),
(388,1008.333,o),
(413,1050,o),
(461,1050,cs),
(493.667,1050,o),
(537,1018.667,o),
(591,956,cs),
(609,935.333,o),
(628.667,925,o),
(650,925,cs),
(671.333,925,o),
(691,935.333,o),
(709,956,cs),
(763.667,1018.667,o),
(807.333,1050,o),
(840,1050,cs),
(888,1050,o),
(912,1008.333,o),
(912,923,cs),
(912,0,l),
(1100,0,l),
(1100,923,ls),
(1100,1073.667,o),
(982.333,1200,o),
(857,1200,cs),
(793.667,1200,o),
(724.667,1158.667,o),
(650,1076,c),
(576,1158.667,o),
(507.667,1200,o),
(445,1200,cs),
(318.333,1200,o),
(200,1073.667,o),
(200,923,cs),
(200,161,ls),
(200,53.667,o),
(262.667,0,o),
(388,0,cs)
);
},
{
closed = 1;
nodes = (
(1606.667,0,o),
(1700,107.667,o),
(1700,323,cs),
(1700,840,l),
(1483,1034,l),
(1504,1062,l),
(1700,1062,l),
(1700,1200,l),
(1452,1200,l),
(1340,1053,ls),
(1329.333,1039.667,o),
(1324,1026,o),
(1324,1012,cs),
(1324,993.333,o),
(1334.333,974.333,o),
(1355,955,cs),
(1512,806,l),
(1512,323,ls),
(1512,199.667,o),
(1481.333,138,o),
(1420,138,cs),
(1330,138,o),
(1259,200.667,o),
(1207,326,cs),
(1176,400,l),
(1084,400,l),
(1084,262,l),
(1154.667,87.333,o),
(1266.667,0,o),
(1420,0,cs)
);
}
);
width = 1900;
},
{
layerId = "74807A0F-D47B-485E-A88B-DED3F6679B72";
shapes = (
{
closed = 1;
nodes = (
(496,0,o),
(550,83,o),
(550,249,cs),
(550,349.667,o),
(496,400,o),
(388,400,cs),
(288,400,l),
(288,350,l),
(388,350,ls),
(462.667,350,o),
(500,316.333,o),
(500,249,cs),
(500,116.333,o),
(462.667,50,o),
(388,50,cs),
(334.667,50,o),
(308,74,o),
(308,122,cs),
(308,923,ls),
(308,1075,o),
(354.333,1150,o),
(445,1150,cs),
(484.333,1150,o),
(533.667,1111.333,o),
(593,1034,cs),
(612.333,1008,o),
(631.333,995,o),
(650,995,cs),
(668.667,995,o),
(688,1008,o),
(708,1034,cs),
(767.333,1111.333,o),
(817,1150,o),
(857,1150,cs),
(947.667,1150,o),
(992,1075,o),
(992,923,cs),
(992,0,l),
(1050,0,l),
(1050,923,ls),
(1050,1095,o),
(973,1200,o),
(857,1200,cs),
(793.667,1200,o),
(724.667,1152,o),
(650,1056,c),
(576,1152,o),
(507.667,1200,o),
(445,1200,cs),
(329,1200,o),
(250,1095,o),
(250,923,cs),
(250,122,ls),
(250,40.667,o),
(296,0,o),
(388,0,cs)
);
},
{
closed = 1;
nodes = (
(1556.667,0,o),
(1650,107.667,o),
(1650,323,cs),
(1650,830,l),
(1403,1050,l),
(1455,1150,l),
(1650,1150,l),
(1650,1200,l),
(1432,1200,l),
(1374,1105,ls),
(1360.667,1083.667,o),
(1354,1066,o),
(1354,1052,cs),
(1354,1033.333,o),
(1364,1015,o),
(1384,997,cs),
(1592,806,l),
(1592,323,ls),
(1592,141,o),
(1518,50,o),
(1370,50,cs),
(1260,50,o),
(1175.333,125,o),
(1116,275,cs),
(1086,350,l),
(1044,350,l),
(1044,300,l),
(1121.333,100,o),
(1230,0,o),
(1370,0,cs)
);
}
);
width = 1900;
}
);
note = uni178D;
unicode = 6029;
},
{
glyphname = uni178E;
lastChange = "2025-05-02 13:15:02 +0000";
layers = (
{
layerId = m01;
shapes = (
{
closed = 1;
nodes = (
(573.333,0,o),
(668,86.333,o),
(668,259,cs),
(668,397.667,o),
(608,467,o),
(488,467,cs),
(474,467,l),
(474,323,l),
(488,323,ls),
(529.333,323,o),
(550,301.667,o),
(550,259,cs),
(550,189,o),
(534,154,o),
(502,154,cs),
(492.667,154,o),
(488,160.667,o),
(488,174,cs),
(488,877,ls),
(488,967,o),
(531.667,1012,o),
(619,1012,cs),
(706.333,1012,o),
(750,967,o),
(750,877,cs),
(750,0,l),
(1119,0,l),
(1270,149,l),
(1420,0,l),
(1788,0,l),
(1788,877,ls),
(1788,967,o),
(1831.667,1012,o),
(1919,1012,cs),
(2006.333,1012,o),
(2050,967,o),
(2050,877,cs),
(2050,0,l),
(2438,0,l),
(2438,877,ls),
(2438,1125.667,o),
(2265,1250,o),
(1919,1250,cs),
(1573,1250,o),
(1400,1125.667,o),
(1400,877,cs),
(1400,321,l),
(1303,421,l),
(1237,421,l),
(1138,321,l),
(1138,877,ls),
(1138,1125.667,o),
(965,1250,o),
(619,1250,cs),
(273,1250,o),
(100,1125.667,o),
(100,877,cs),
(100,127,ls),
(100,42.333,o),
(194.667,0,o),
(384,0,cs)
);
}
);
width = 2538;
},
{
layerId = "A52C9687-8F69-441E-A346-B6B4B01C4528";
shapes = (
{
closed = 1;
nodes = (
(528,0,o),
(598,83,o),
(598,249,cs),
(598,381.667,o),
(531.333,448,o),
(398,448,cs),
(365,448,l),
(365,310,l),
(398,310,ls),
(452.667,310,o),
(480,289.667,o),
(480,249,cs),
(480,175,o),
(456.667,138,o),
(410,138,cs),
(395.333,138,o),
(388,145.667,o),
(388,161,cs),
(388,877,ls),
(388,1000.333,o),
(465,1062,o),
(619,1062,cs),
(773,1062,o),
(850,1000.333,o),
(850,877,cs),
(850,0,l),
(1069,0,l),
(1270,182,l),
(1470,0,l),
(1688,0,l),
(1688,877,ls),
(1688,1000.333,o),
(1765,1062,o),
(1919,1062,cs),
(2073,1062,o),
(2150,1000.333,o),
(2150,877,cs),
(2150,0,l),
(2338,0,l),
(2338,877,ls),
(2338,1092.333,o),
(2198.333,1200,o),
(1919,1200,cs),
(1639.667,1200,o),
(1500,1092.333,o),
(1500,877,cs),
(1500,167,l),
(1299,351,l),
(1241,351,l),
(1038,166,l),
(1038,877,ls),
(1038,1092.333,o),
(898.333,1200,o),
(619,1200,cs),
(339.667,1200,o),
(200,1092.333,o),
(200,877,cs),
(200,161,ls),
(200,53.667,o),
(262.667,0,o),
(388,0,cs)
);
}
);
width = 2538;
},
{
layerId = "74807A0F-D47B-485E-A88B-DED3F6679B72";
shapes = (
{
closed = 1;
nodes = (
(496,0,o),
(550,83,o),
(550,249,cs),
(550,349.667,o),
(496,400,o),
(388,400,cs),
(288,400,l),
(288,350,l),
(388,350,ls),
(462.667,350,o),
(500,316.333,o),
(500,249,cs),
(500,116.333,o),
(462.667,50,o),
(388,50,cs),
(334.667,50,o),
(308,74,o),
(308,122,cs),
(308,877,ls),
(308,1059,o),
(409.333,1150,o),
(612,1150,cs),
(814,1150,o),
(915,1059,o),
(915,877,cs),
(915,0,l),
(988,0,l),
(1270,299,l),
(1552,0,l),
(1623,0,l),
(1623,877,ls),
(1623,1059,o),
(1724.333,1150,o),
(1927,1150,cs),
(2129,1150,o),
(2230,1059,o),
(2230,877,cs),
(2230,0,l),
(2288,0,l),
(2288,877,ls),
(2288,1092.333,o),
(2167.667,1200,o),
(1927,1200,cs),
(1685.667,1200,o),
(1565,1092.333,o),
(1565,877,cs),
(1565,59,l),
(1288,354,l),
(1251,354,l),
(973,58,l),
(973,877,ls),
(973,1092.333,o),
(852.667,1200,o),
(612,1200,cs),
(370.667,1200,o),
(250,1092.333,o),
(250,877,cs),
(250,122,ls),
(250,40.667,o),
(296,0,o),
(388,0,cs)
);
}
);
width = 2538;
}
);
note = uni178E;
unicode = 6030;
},
{
glyphname = uni178F;
lastChange = "2025-05-02 13:15:02 +0000";
layers = (
{
layerId = m01;
shapes = (
{
closed = 1;
nodes = (
(573.333,0,o),
(668,86.333,o),
(668,259,cs),
(668,397.667,o),
(608,467,o),
(488,467,cs),
(474,467,l),
(474,323,l),
(488,323,ls),
(529.333,323,o),
(550,301.667,o),
(550,259,cs),
(550,189,o),
(534,154,o),
(502,154,cs),
(492.667,154,o),
(488,160.667,o),
(488,174,cs),
(488,570,ls),
(488,626.667,o),
(542,655,o),
(650,655,cs),
(758,655,o),
(812,626.667,o),
(812,570,cs),
(812,0,l),
(1200,0,l),
(1200,570,ls),
(1200,785.333,o),
(1016.667,893,o),
(650,893,cs),
(283.333,893,o),
(100,785.333,o),
(100,570,cs),
(100,127,ls),
(100,42.333,o),
(194.667,0,o),
(384,0,cs)
);
},
{
closed = 1;
nodes = (
(1200,1012,l),
(1200,1250,l),
(100,1250,l),
(100,1012,l),
(100,1012,l)
);
}
);
width = 1300;
},
{
layerId = "A52C9687-8F69-441E-A346-B6B4B01C4528";
shapes = (
{
closed = 1;
nodes = (
(528,0,o),
(598,83,o),
(598,249,cs),
(598,381.667,o),
(531.333,448,o),
(398,448,cs),
(365,448,l),
(365,310,l),
(398,310,ls),
(452.667,310,o),
(480,289.667,o),
(480,249,cs),
(480,175,o),
(456.667,138,o),
(410,138,cs),
(395.333,138,o),
(388,145.667,o),
(388,161,cs),
(388,600,ls),
(388,723.333,o),
(475.333,785,o),
(650,785,cs),
(824.667,785,o),
(912,723.333,o),
(912,600,cs),
(912,0,l),
(1100,0,l),
(1100,600,ls),
(1100,815.333,o),
(950,923,o),
(650,923,cs),
(350,923,o),
(200,815.333,o),
(200,600,cs),
(200,161,ls),
(200,53.667,o),
(262.667,0,o),
(388,0,cs)
);
},
{
closed = 1;
nodes = (
(1100,1062,l),
(1100,1200,l),
(200,1200,l),
(200,1062,l),
(200,1062,l)
);
}
);
width = 1300;
},
{
layerId = "74807A0F-D47B-485E-A88B-DED3F6679B72";
shapes = (
{
closed = 1;
nodes = (
(496,0,o),
(550,83,o),
(550,249,cs),
(550,349.667,o),
(496,400,o),
(388,400,cs),
(288,400,l),
(288,350,l),
(388,350,ls),
(462.667,350,o),
(500,316.333,o),
(500,249,cs),
(500,116.333,o),
(462.667,50,o),
(388,50,cs),
(334.667,50,o),
(308,74,o),
(308,122,cs),
(308,600,ls),
(308,782,o),
(422,873,o),
(650,873,cs),
(878,873,o),
(992,782,o),
(992,600,cs),
(992,0,l),
(1050,0,l),
(1050,600,ls),
(1050,815.333,o),
(916.667,923,o),
(650,923,cs),
(383.333,923,o),
(250,815.333,o),
(250,600,cs),
(250,122,ls),
(250,40.667,o),
(296,0,o),
(388,0,cs)
);
},
{
closed = 1;
nodes = (
(1050,1150,l),
(1050,1200,l),
(250,1200,l),
(250,1150,l),
(250,1150,l)
);
}
);
width = 1300;
}
);
note = uni178F;
unicode = 6031;
},
{
glyphname = uni1790;
lastChange = "2025-05-02 13:15:02 +0000";
layers = (
{
layerId = m01;
shapes = (
{
closed = 1;
nodes = (
(1016.667,0,o),
(1200,107.667,o),
(1200,323,cs),
(1200,728,ls),
(1200,836,o),
(1100.333,890,o),
(901,890,cs),
(701.667,890,o),
(602,823.667,o),
(602,691,cs),
(602,558.333,o),
(665.333,492,o),
(792,492,cs),
(827,492,l),
(827,630,l),
(792,630,ls),
(764,630,o),
(750,650.333,o),
(750,691,cs),
(750,731.667,o),
(763.667,752,o),
(791,752,cs),
(805,752,o),
(812,744,o),
(812,728,cs),
(812,323,ls),
(812,233,o),
(758,188,o),
(650,188,cs),
(542,188,o),
(488,233,o),
(488,323,cs),
(488,820,l),
(237,974,l),
(263,1012,l),
(930,1012,ls),
(1110,1012,o),
(1200,1091.333,o),
(1200,1250,cs),
(1200,1400,l),
(812,1400,l),
(812,1300,ls),
(812,1266.667,o),
(791.333,1250,o),
(750,1250,cs),
(218,1250,l),
(70,1057,ls),
(36.667,1013.667,o),
(20,979.667,o),
(20,955,cs),
(20,927.667,o),
(33.333,892.667,o),
(60,850,cs),
(100,786,l),
(100,323,ls),
(100,107.667,o),
(283.333,0,o),
(650,0,cs)
);
}
);
width = 1300;
},
{
layerId = "A52C9687-8F69-441E-A346-B6B4B01C4528";
shapes = (
{
closed = 1;
nodes = (
(950,0,o),
(1100,107.667,o),
(1100,323,cs),
(1100,743,ls),
(1100,847.667,o),
(1032,900,o),
(896,900,cs),
(766.667,900,o),
(702,833.667,o),
(702,701,cs),
(702,568.333,o),
(765.333,502,o),
(892,502,cs),
(930,502,l),
(930,640,l),
(892,640,ls),
(844,640,o),
(820,660.333,o),
(820,701,cs),
(820,741.667,o),
(845.333,762,o),
(896,762,cs),
(906.667,762,o),
(912,755.667,o),
(912,743,cs),
(912,323,ls),
(912,199.667,o),
(824.667,138,o),
(650,138,cs),
(475.333,138,o),
(388,199.667,o),
(388,323,cs),
(388,820,l),
(237,992,l),
(293,1062,l),
(800,1062,ls),
(1000,1062,o),
(1100,1124.667,o),
(1100,1250,cs),
(1100,1400,l),
(912,1400,l),
(912,1250,ls),
(912,1216.667,o),
(874.667,1200,o),
(800,1200,cs),
(258,1200,l),
(118,1017,ls),
(106,1000.333,o),
(100,979.667,o),
(100,955,cs),
(100,927.667,o),
(112,898.667,o),
(136,868,cs),
(200,786,l),
(200,323,ls),
(200,107.667,o),
(350,0,o),
(650,0,cs)
);
}
);
width = 1300;
},
{
layerId = "74807A0F-D47B-485E-A88B-DED3F6679B72";
shapes = (
{
closed = 1;
nodes = (
(916.667,0,o),
(1050,107.667,o),
(1050,323,cs),
(1050,778,ls),
(1050,859.333,o),
(1004,900,o),
(912,900,cs),
(784,900,o),
(720,833.333,o),
(720,700,cs),
(720,580,o),
(784,520,o),
(912,520,cs),
(1002,520,l),
(1002,570,l),
(912,570,ls),
(817.333,570,o),
(770,613.333,o),
(770,700,cs),
(770,800,o),
(817.333,850,o),
(912,850,cs),
(965.333,850,o),
(992,826,o),
(992,778,cs),
(992,323,ls),
(992,141,o),
(878,50,o),
(650,50,cs),
(422,50,o),
(308,141,o),
(308,323,cs),
(308,850,l),
(162,1048,l),
(230,1150,l),
(800,1150,ls),
(966.667,1150,o),
(1050,1193.333,o),
(1050,1280,cs),
(1050,1400,l),
(992,1400,l),
(992,1280,ls),
(992,1226.667,o),
(928,1200,o),
(800,1200,cs),
(203,1200,l),
(121,1077,ls),
(113,1065,o),
(109,1054.333,o),
(109,1045,cs),
(109,1035,o),
(115,1022,o),
(127,1006,cs),
(250,836,l),
(250,323,ls),
(250,107.667,o),
(383.333,0,o),
(650,0,cs)
);
}
);
width = 1300;
}
);
note = uni1790;
unicode = 6032;
},
{
glyphname = uni1791;
lastChange = "2025-05-02 13:15:02 +0000";
layers = (
{
layerId = m01;
shapes = (
{
closed = 1;
nodes = (
(942.667,0,o),
(1092,107.667,o),
(1092,323,cs),
(1092,659,ls),
(1092,679.667,o),
(1097.333,690,o),
(1108,690,cs),
(1118.667,690,o),
(1124,683.333,o),
(1124,670,cs),
(1124,650,o),
(1086.333,640,o),
(1011,640,cs),
(827,640,ls),
(601,640,o),
(488,719,o),
(488,877,cs),
(488,967,o),
(542,1012,o),
(650,1012,cs),
(758,1012,o),
(812,967,o),
(812,877,c),
(1200,877,l),
(1200,1125.667,o),
(1016.667,1250,o),
(650,1250,cs),
(283.333,1250,o),
(100,1125.667,o),
(100,877,cs),
(100,619,o),
(343.333,490,o),
(830,490,cs),
(1011,490,ls),
(1137,490,o),
(1200,550,o),
(1200,670,cs),
(1200,750,o),
(1130.667,790,o),
(992,790,cs),
(830.667,790,o),
(750,746.667,o),
(750,660,cs),
(750,323,ls),
(750,266.333,o),
(714.667,238,o),
(644,238,cs),
(573.333,238,o),
(538,266.333,o),
(538,323,cs),
(538,460,l),
(150,460,l),
(150,323,ls),
(150,107.667,o),
(314.667,0,o),
(644,0,cs)
);
}
);
width = 1300;
},
{
layerId = "A52C9687-8F69-441E-A346-B6B4B01C4528";
shapes = (
{
closed = 1;
nodes = (
(868.333,0,o),
(992,107.667,o),
(992,323,cs),
(992,629,ls),
(992,649.667,o),
(997.333,660,o),
(1008,660,cs),
(1018.667,660,o),
(1024,653.333,o),
(1024,640,cs),
(1024,620,o),
(986.333,610,o),
(911,610,cs),
(827,610,ls),
(534.333,610,o),
(388,699,o),
(388,877,cs),
(388,993.667,o),
(475.333,1052,o),
(650,1052,cs),
(824.667,1052,o),
(912,993.667,o),
(912,877,c),
(1100,877,l),
(1100,1092.333,o),
(950,1200,o),
(650,1200,cs),
(350,1200,o),
(200,1092.333,o),
(200,877,cs),
(200,619,o),
(410,490,o),
(830,490,cs),
(911,490,ls),
(1037,490,o),
(1100,540,o),
(1100,640,cs),
(1100,720,o),
(1054,760,o),
(962,760,cs),
(856.667,760,o),
(804,716.667,o),
(804,630,cs),
(804,323,ls),
(804,199.667,o),
(743,138,o),
(621,138,cs),
(499,138,o),
(438,199.667,o),
(438,323,cs),
(438,480,l),
(250,480,l),
(250,323,ls),
(250,107.667,o),
(373.667,0,o),
(621,0,cs)
);
}
);
width = 1300;
},
{
layerId = "74807A0F-D47B-485E-A88B-DED3F6679B72";
shapes = (
{
closed = 1;
nodes = (
(801.667,0,o),
(902,107.667,o),
(902,323,cs),
(902,599,ls),
(902,646.333,o),
(917,670,o),
(947,670,cs),
(978.333,670,o),
(994,653.333,o),
(994,620,cs),
(994,586.667,o),
(966.333,570,o),
(911,570,cs),
(827,570,ls),
(481,570,o),
(308,672.333,o),
(308,877,cs),
(308,1059,o),
(422,1150,o),
(650,1150,cs),
(878,1150,o),
(992,1059,o),
(992,877,c),
(1050,877,l),
(1050,1092.333,o),
(916.667,1200,o),
(650,1200,cs),
(383.333,1200,o),
(250,1092.333,o),
(250,877,cs),
(250,639,o),
(443.333,520,o),
(830,520,cs),
(911,520,ls),
(1003.667,520,o),
(1050,553.333,o),
(1050,620,cs),
(1050,686.667,o),
(1015.667,720,o),
(947,720,cs),
(878.333,720,o),
(844,680,o),
(844,600,cs),
(844,323,ls),
(844,141,o),
(763,50,o),
(601,50,cs),
(439,50,o),
(358,141,o),
(358,323,cs),
(358,480,l),
(300,480,l),
(300,323,ls),
(300,107.667,o),
(400.333,0,o),
(601,0,cs)
);
}
);
width = 1300;
}
);
note = uni1791;
unicode = 6033;
},
